SplineFontDB: 3.0
FontName: Coda-Heavy
FullName: Coda Heavy
FamilyName: Koda Heavy Heavy
Weight: Black
Copyright: Copyright (c) 2009-12 by vernon adams. All rights reserved.
Version: 1.000;PS 001.001;hotconv 1.0.56
ItalicAngle: 0
UnderlinePosition: 0
UnderlineWidth: 0
Ascent: 1638
Descent: 410
UFOAscent: 1710
UFODescent: -408
LayerCount: 2
Layer: 0 0 "Back"  1
Layer: 1 0 "Fore"  0
FSType: 512
OS2Version: 0
OS2_WeightWidthSlopeOnly: 0
OS2_UseTypoMetrics: 0
CreationTime: 1354237963
ModificationTime: 1354237987
PfmFamily: 0
TTFWeight: 900
TTFWidth: 1
LineGap: 0
VLineGap: 0
Panose: 2 0 5 5 2 0 0 2 0 4
OS2TypoAscent: 0
OS2TypoAOffset: 1
OS2TypoDescent: 0
OS2TypoDOffset: 1
OS2TypoLinegap: 0
OS2WinAscent: 1710
OS2WinAOffset: 0
OS2WinDescent: 408
OS2WinDOffset: 0
HheadAscent: 1638
HheadAOffset: 0
HheadDescent: 410
HheadDOffset: 0
OS2SubXSize: 1331
OS2SubYSize: 1228
OS2SubXOff: 0
OS2SubYOff: 153
OS2SupXSize: 1331
OS2SupYSize: 1228
OS2SupXOff: 0
OS2SupYOff: 716
OS2StrikeYSize: 102
OS2StrikeYPos: 780
OS2Vendor: 'newt'
OS2CodePages: 00000093.00000001
OS2UnicodeRanges: 00000007.00000000.00000000.00000000
Lookup: 258 0 0 "'kern' Horizontal Kerning in Latin lookup 0"  {"'kern' Horizontal Kerning in Latin lookup 0 subtable"  } ['kern' ('latn' <'dflt' > ) ]
DEI: 91125
LangName: 1033 "" "" "" "1.000;;Coda-Heavy" "" "Version 1.000;PS 001.001;hotconv 1.0.56" "" "Coda Heavy is a trademark of vernon adams." "vernon adams" "vernon adams" "Copyright (c) 2009 by vernon adams. All rights reserved." "newtypography.co.uk" "newtypography.co.uk" "SIL Open Font License (OFL)" "http://scripts.sil.org/cms/scripts/page.php?item_id+AD0A-OFL_web" 
PickledData: "(dp1
S'public.glyphOrder'
p2
(S'A'
S'Agrave'
S'Aacute'
S'Acircumflex'
S'Atilde'
S'Adieresis'
S'Aring'
S'Amacron'
S'Abreve'
S'Aogonek'
S'uni0200'
S'uni0202'
S'B'
S'C'
S'Ccedilla'
S'Cacute'
S'Ccircumflex'
S'Cdotaccent'
S'Ccaron'
S'D'
S'Dcaron'
S'E'
S'Egrave'
S'Eacute'
S'Ecircumflex'
S'Edieresis'
S'Emacron'
S'Eogonek'
S'Ecaron'
S'uni0204'

StartChar: A
Encoding: 65 65 1
Width: 1640
VWidth: 0
Flags: HW
LayerCount: 2
Fore
SplineSet
566 63 m 2
 596 277 l 2
 601 309 596 310 629 310 c 2
 759 310 l 2
 792 310 787 309 792 277 c 2
 821 63 l 2
 827 22 853 0 894 0 c 2
 1262 0 l 2
 1296 0 1316 19 1316 49 c 0
 1316 53 1296 420 1121 1286 c 0
 1113 1327 1086 1349 1045 1349 c 2
 338 1349 l 2
 297 1349 270 1328 262 1286 c 0
 89 412 71 54 71 49 c 0
 71 19 91 0 125 0 c 2
 492 0 l 2
 533 0 560 22 566 63 c 2
763 520 m 2
 764 512 765 507 765 503 c 0
 765 489 759 487 735 487 c 2
 652 487 l 2
 628 487 622 489 622 503 c 0
 622 507 623 513 624 520 c 2
 664 918 l 1
 683 1070 l 2
 684 1075 688 1077 692 1077 c 0
 696 1077 700 1075 700 1070 c 2
 721 918 l 1
 763 520 l 2
694 1349 m 0
1249 8 m 0
EndSplineSet
EndChar

StartChar: AE
Encoding: 198 198 2
Width: 2011
VWidth: 0
Flags: HW
LayerCount: 2
Fore
SplineSet
819 799 m 2
 824 813 835 811 835 796 c 2
 835 539 l 2
 835 507 817 489 785 489 c 2
 767 489 l 2
 738 489 723 509 732 537 c 2
 819 799 l 2
634 1349 m 2
 592 1349 562 1329 546 1290 c 2
 56 60 l 2
 43 26 60 0 96 0 c 2
 497 0 l 2
 539 0 567 21 580 61 c 2
 639 246 l 2
 649 278 672 294 705 294 c 2
 785 294 l 2
 817 294 835 276 835 244 c 2
 837 64 l 2
 837 24 861 0 901 0 c 2
 1582 0 l 2
 1622 0 1646 24 1646 64 c 2
 1646 142 l 2
 1646 182 1622 206 1582 206 c 2
 1408 206 l 2
 1376 206 1358 225 1358 257 c 2
 1358 551 l 2
 1358 583 1376 602 1408 602 c 2
 1563 602 l 2
 1603 602 1627 626 1627 666 c 2
 1627 749 l 2
 1627 789 1603 813 1563 813 c 2
 1408 813 l 2
 1376 813 1358 831 1358 863 c 2
 1358 1095 l 2
 1358 1127 1376 1145 1408 1145 c 2
 1582 1145 l 2
 1622 1145 1646 1170 1646 1210 c 2
 1646 1285 l 2
 1646 1325 1622 1349 1582 1349 c 2
 634 1349 l 2
851 1349 m 0
EndSplineSet
EndChar

StartChar: B
Encoding: 66 66 12
Width: 1666
VWidth: 0
Flags: HW
LayerCount: 2
Fore
SplineSet
684 266 m 2
 652 266 651 268 651 300 c 2
 651 601 l 2
 651 633 652 634 684 634 c 2
 769 634 l 2
 801 634 820 616 820 584 c 2
 820 317 l 2
 820 285 801 266 769 266 c 2
 684 266 l 2
684 766 m 2
 652 766 651 767 651 799 c 2
 651 1051 l 2
 651 1083 652 1085 684 1085 c 2
 769 1085 l 2
 801 1085 820 1066 820 1034 c 2
 820 816 l 2
 820 784 801 766 769 766 c 2
 684 766 l 2
876 0 m 2
 1205 0 1336 77 1336 389 c 0
 1336 547 1304 687 1043 740 c 1
 1270 770 1301 862 1301 1031 c 0
 1301 1312 1099 1349 879 1349 c 2
 204 1349 l 2
 163 1349 143 1326 140 1285 c 0
 126 1100 118 898 118 692 c 0
 118 486 126 273 140 64 c 0
 143 26 163 0 204 0 c 2
 876 0 l 2
EndSplineSet
EndChar

StartChar: C
Encoding: 67 67 13
Width: 1692
VWidth: 0
Flags: HW
PickledData: "(dp1
S'com.typemytype.robofont.layerData'
p2
(dp3
s."
LayerCount: 2
Fore
SplineSet
830 481 m 0
 827 250 814 266 733 266 c 2
 702 266 l 2
 616 266 615 265 615 673 c 0
 615 1049 616 1085 702 1085 c 2
 733 1085 l 2
 815 1085 828 1072 830 861 c 0
 830 820 850 780 923 780 c 2
 1260 780 l 2
 1321 780 1339 810 1339 854 c 1
 1314 1356 1155 1380 713 1380 c 0
 205 1380 89 1326 89 681 c 0
 89 16 188 -33 713 -33 c 0
 1177 -33 1318 -25 1339 486 c 1
 1339 523 1322 567 1263 567 c 2
 917 567 l 2
 859 567 830 522 830 481 c 0
716 1349 m 0
716 0 m 0
EndSplineSet
EndChar

StartChar: D
Encoding: 68 68 19
Width: 1751
VWidth: 0
Flags: HW
LayerCount: 2
Fore
SplineSet
203 1349 m 2
 162 1349 142 1326 139 1285 c 0
 120 1065 118 861 118 662 c 0
 118 462 120 267 139 64 c 0
 143 24 162 0 203 0 c 2
 832 0 l 2
 1095 0 1316 28 1361 332 c 0
 1377 439 1385 556 1385 674 c 0
 1385 792 1377 911 1361 1019 c 0
 1319 1311 1099 1349 832 1349 c 2
 203 1349 l 2
655 1051 m 2
 655 1083 657 1085 689 1085 c 2
 769 1085 l 2
 801 1085 847 1065 851 1034 c 0
 865 945 871 814 871 680 c 0
 871 549 865 415 851 316 c 0
 847 286 801 266 769 266 c 2
 689 266 l 2
 657 266 655 267 655 299 c 2
 655 1051 l 2
741 1349 m 0
741 675 m 0
EndSplineSet
EndChar

StartChar: Dcroat
Encoding: 272 272 21
Width: 1449
VWidth: 0
Flags: HW
LayerCount: 2
Fore
SplineSet
1166 1019 m 2
 1166 1042 1165 1065 1163 1090 c 0
 1157 1194 1105 1256 1025 1294 c 0
 940 1335 829 1349 691 1349 c 2
 188 1349 l 2
 148 1349 124 1325 124 1285 c 2
 124 734 l 1
 103 734 l 2
 66 734 44 712 44 675 c 2
 44 673 l 2
 44 636 66 614 103 614 c 2
 124 614 l 1
 124 64 l 2
 124 24 148 0 188 0 c 2
 691 0 l 2
 829 0 939 15 1024 56 c 0
 1126 106 1164 185 1164 332 c 0
 1164 332 l 2
 1166 332 l 2
 1166 333 l 2
 1166 1019 l 2
546 1098 m 2
 546 1130 564 1149 596 1149 c 2
 695 1149 l 2
 727 1149 745 1130 745 1098 c 2
 745 251 l 2
 745 219 727 201 695 201 c 2
 596 201 l 2
 564 201 546 219 546 251 c 2
 546 614 l 1
 595 614 l 2
 632 614 654 636 654 673 c 2
 654 675 l 2
 654 712 632 734 595 734 c 2
 546 734 l 1
 546 1098 l 2
EndSplineSet
EndChar

StartChar: E
Encoding: 69 69 22
Width: 1191
VWidth: 0
Flags: HW
LayerCount: 2
Fore
SplineSet
199 1349 m 2
 158 1349 138 1324 135 1285 c 0
 126 1156 118 940 118 707 c 0
 118 491 125 259 135 64 c 0
 138 23 158 0 199 0 c 2
 877 0 l 2
 918 0 942 23 942 64 c 2
 942 148 l 2
 942 189 918 212 877 212 c 2
 704 212 l 2
 672 212 653 231 653 263 c 2
 653 551 l 2
 653 583 672 602 704 602 c 2
 858 602 l 2
 899 602 922 625 922 666 c 2
 922 749 l 2
 922 790 899 813 858 813 c 2
 704 813 l 2
 672 813 653 832 653 864 c 2
 653 1088 l 2
 653 1120 672 1139 704 1139 c 2
 877 1139 l 2
 918 1139 942 1162 942 1203 c 2
 942 1285 l 2
 942 1326 918 1349 877 1349 c 2
 199 1349 l 2
504 1349 m 0
504 0 m 0
907 8 m 0
EndSplineSet
EndChar

StartChar: E_E
Encoding: 65537 -1 23
Width: 2024
VWidth: 0
Flags: HW
LayerCount: 2
Fore
SplineSet
856 1100 m 0
856 0 m 0
1541 8 m 0
EndSplineSet
EndChar

StartChar: Eth
Encoding: 208 208 31
Width: 1449
VWidth: 0
Flags: HW
LayerCount: 2
Fore
SplineSet
1166 1019 m 2
 1166 1042 1165 1065 1163 1090 c 0
 1157 1194 1105 1256 1025 1294 c 0
 940 1335 829 1349 691 1349 c 2
 188 1349 l 2
 148 1349 124 1325 124 1285 c 2
 124 734 l 1
 103 734 l 2
 66 734 44 712 44 675 c 2
 44 673 l 2
 44 636 66 614 103 614 c 2
 124 614 l 1
 124 64 l 2
 124 24 148 0 188 0 c 2
 691 0 l 2
 829 0 939 15 1024 56 c 0
 1126 106 1164 185 1164 332 c 0
 1164 332 l 2
 1166 332 l 2
 1166 333 l 2
 1166 1019 l 2
546 1098 m 2
 546 1130 564 1149 596 1149 c 2
 695 1149 l 2
 727 1149 745 1130 745 1098 c 2
 745 251 l 2
 745 219 727 201 695 201 c 2
 596 201 l 2
 564 201 546 219 546 251 c 2
 546 614 l 1
 595 614 l 2
 632 614 654 636 654 673 c 2
 654 675 l 2
 654 712 632 734 595 734 c 2
 546 734 l 1
 546 1098 l 2
EndSplineSet
EndChar

StartChar: Euro
Encoding: 8364 8364 32
Width: 1432
VWidth: 0
Flags: HW
LayerCount: 2
Fore
SplineSet
-0 512 m 2
 0 489 14 475 37 475 c 2
 39 475 l 2
 62 475 76 460 76 437 c 2
 76 313 l 2
 76 -8 432 -34 665 -34 c 0
 922 -34 1245 -5 1245 312 c 2
 1245 348 l 2
 1245 369 1232 382 1211 382 c 2
 799 382 l 2
 759 382 734 357 734 317 c 2
 734 248 l 2
 734 216 716 197 684 197 c 2
 638 197 l 2
 606 197 588 216 588 248 c 2
 588 424 l 2
 588 456 606 475 638 475 c 2
 817 475 l 2
 855 475 877 497 877 535 c 2
 877 537 l 2
 877 575 855 597 817 597 c 2
 638 597 l 2
 606 597 588 616 588 648 c 2
 588 663 l 2
 588 695 606 713 638 713 c 2
 817 713 l 2
 855 713 877 736 877 774 c 2
 877 775 l 2
 877 813 855 836 817 836 c 2
 638 836 l 2
 606 836 588 854 588 886 c 2
 588 1097 l 2
 588 1129 606 1147 638 1147 c 2
 684 1147 l 2
 716 1147 734 1129 734 1097 c 2
 734 1028 l 2
 734 988 759 964 799 964 c 2
 1209 964 l 2
 1232 964 1245 977 1245 1000 c 2
 1245 1038 l 2
 1245 1359 928 1381 662 1381 c 0
 408 1381 76 1352 76 1037 c 2
 76 872 l 2
 76 849 62 835 39 835 c 2
 37 835 l 2
 14 835 0 821 -0 798 c 2
 -0 750 l 2
 0 727 14 713 37 713 c 2
 39 713 l 2
 62 713 76 699 76 676 c 2
 76 634 l 2
 76 611 62 596 39 596 c 2
 37 596 l 2
 14 596 0 582 -0 559 c 2
 -0 512 l 2
EndSplineSet
EndChar

StartChar: F
Encoding: 70 70 33
Width: 1102
VWidth: 0
Flags: HW
LayerCount: 2
Fore
SplineSet
152 1349 m 2
 112 1349 88 1325 88 1285 c 2
 88 64 l 2
 88 24 112 0 152 0 c 2
 535 0 l 2
 575 0 599 24 599 64 c 2
 599 546 l 2
 599 578 617 596 649 596 c 2
 804 596 l 2
 844 596 868 621 868 661 c 2
 868 743 l 2
 868 783 844 807 804 807 c 2
 649 807 l 2
 617 807 599 826 599 858 c 2
 599 1088 l 2
 599 1120 617 1139 649 1139 c 2
 823 1139 l 2
 863 1139 887 1163 887 1203 c 2
 887 1285 l 2
 887 1325 863 1349 823 1349 c 2
 152 1349 l 2
EndSplineSet
EndChar

StartChar: G
Encoding: 71 71 34
Width: 1695
VWidth: 0
Flags: HW
LayerCount: 2
Fore
SplineSet
1222 0 m 2
 1251 -26 1345 23 1345 64 c 2
 1345 618 l 2
 1345 659 1322 682 1281 682 c 2
 826 682 l 2
 785 682 761 659 761 618 c 2
 761 522 l 2
 761 500 775 486 797 486 c 2
 799 486 l 1
 867 486 l 2
 908 486 909 471 909 452 c 2
 909 332 l 1
 905 286 890 266 842 266 c 2
 710 266 l 2
 624 266 623 265 623 673 c 0
 623 1082 624 1085 710 1085 c 2
 766 1085 l 2
 829 1085 836 1080 838 844 c 0
 838 803 858 780 897 780 c 2
 1293 780 l 2
 1329 780 1347 810 1347 854 c 1
 1322 1356 1163 1380 721 1380 c 0
 213 1380 96 1326 96 681 c 0
 96 58 196 -33 721 -33 c 0
 967 -33 1082 30 1122 93 c 1
 1222 0 l 2
717 1349 m 0
717 0 m 0
EndSplineSet
EndChar

StartChar: H
Encoding: 72 72 39
Width: 1788
VWidth: 0
Flags: HW
LayerCount: 2
Fore
SplineSet
921 1349 m 2
 880 1349 857 1326 857 1285 c 2
 857 804 l 2
 857 772 855 768 823 768 c 2
 689 768 l 2
 657 768 655 772 655 804 c 2
 655 1285 l 2
 655 1326 632 1349 591 1349 c 2
 200 1349 l 2
 159 1349 138 1324 135 1285 c 0
 118 1073 118 867 118 668 c 0
 118 459 119 258 135 64 c 0
 138 24 159 0 200 0 c 2
 591 0 l 2
 632 0 655 23 655 64 c 2
 655 548 l 2
 655 580 657 582 689 582 c 2
 823 582 l 2
 855 582 857 580 857 548 c 2
 857 64 l 2
 857 23 880 0 921 0 c 2
 1312 0 l 2
 1353 0 1372 23 1376 64 c 0
 1394 239 1394 463 1394 685 c 0
 1394 904 1394 1121 1376 1285 c 0
 1372 1325 1353 1349 1312 1349 c 2
 921 1349 l 2
756 1349 m 0
756 675 m 0
EndSplineSet
EndChar

StartChar: Hbar
Encoding: 294 294 40
Width: 1703
VWidth: 0
Flags: HW
LayerCount: 2
Fore
SplineSet
866 1349 m 2
 826 1349 802 1325 802 1285 c 2
 802 1141 l 1
 639 1141 l 1
 639 1285 l 2
 639 1325 615 1349 575 1349 c 2
 192 1349 l 2
 152 1349 128 1325 128 1285 c 2
 128 1141 l 1
 110 1141 l 2
 70 1141 46 1117 46 1077 c 2
 46 1044 l 2
 46 1004 70 980 110 980 c 2
 128 980 l 1
 128 64 l 2
 128 24 152 0 192 0 c 2
 575 0 l 2
 615 0 639 24 639 64 c 2
 639 532 l 2
 639 564 657 582 689 582 c 2
 752 582 l 2
 784 582 802 564 802 532 c 2
 802 64 l 2
 802 24 826 0 866 0 c 2
 1250 0 l 2
 1290 0 1314 24 1314 64 c 2
 1314 980 l 1
 1339 980 l 2
 1379 980 1404 1004 1404 1044 c 2
 1404 1077 l 2
 1404 1117 1379 1141 1339 1141 c 2
 1314 1141 l 1
 1314 1285 l 2
 1314 1325 1290 1349 1250 1349 c 2
 866 1349 l 2
802 980 m 1
 802 844 l 2
 802 812 784 794 752 794 c 2
 689 794 l 2
 657 794 639 812 639 844 c 2
 639 980 l 1
 802 980 l 1
EndSplineSet
EndChar

StartChar: I
Encoding: 73 73 42
Width: 926
VWidth: 0
Flags: HW
LayerCount: 2
Fore
SplineSet
201 1349 m 2
 160 1349 142 1324 136 1285 c 0
 124 1210 118 962 118 712 c 0
 118 449 125 182 136 64 c 0
 139 25 160 0 201 0 c 2
 583 0 l 2
 624 0 644 24 647 64 c 0
 659 224 665 475 665 712 c 0
 665 949 659 1172 647 1285 c 0
 643 1324 624 1349 583 1349 c 2
 201 1349 l 2
392 1349 m 0
705 8 m 0
EndSplineSet
EndChar

StartChar: J
Encoding: 74 74 53
Width: 908
VWidth: 0
Flags: HW
LayerCount: 2
Fore
SplineSet
256 1349 m 2
 216 1349 192 1324 192 1284 c 2
 192 167 l 2
 192 135 174 117 142 117 c 2
 110 117 l 2
 70 117 46 93 46 53 c 2
 46 -51 l 2
 46 -91 69 -118 109 -123 c 0
 162 -130 213 -135 262 -135 c 0
 511 -135 703 -37 703 232 c 2
 703 1284 l 2
 703 1324 679 1349 639 1349 c 2
 256 1349 l 2
384 1349 m 0
EndSplineSet
EndChar

StartChar: K
Encoding: 75 75 55
Width: 1725
VWidth: 0
Flags: HW
LayerCount: 2
Fore
SplineSet
1372 0 m 2
 1408 0 1425 26 1410 58 c 2
 1133 668 l 2
 1119 699 1119 729 1133 760 c 2
 1375 1291 l 2
 1390 1323 1374 1349 1338 1349 c 2
 942 1349 l 2
 900 1349 871 1329 856 1289 c 2
 706 890 l 2
 694 859 677 806 669 774 c 2
 657 729 l 2
 655 720 647 714 638 716 c 2
 637 717 l 2
 628 719 622 725 623 734 c 2
 630 841 l 1
 630 1285 l 2
 630 1325 606 1349 566 1349 c 2
 183 1349 l 2
 143 1349 118 1325 118 1285 c 2
 118 64 l 2
 118 24 143 0 183 0 c 2
 566 0 l 2
 606 0 630 24 630 64 c 2
 630 416 l 1
 624 522 l 2
 623 544 631 560 649 571 c 2
 651 572 l 2
 668 582 683 576 690 558 c 2
 875 60 l 2
 890 20 920 0 962 0 c 2
 1372 0 l 2
730 1349 m 0
730 0 m 0
EndSplineSet
EndChar

StartChar: L
Encoding: 76 76 57
Width: 1122
VWidth: 0
Flags: HW
LayerCount: 2
Fore
SplineSet
864 0 m 2
 905 0 928 23 928 64 c 2
 928 140 l 2
 928 181 905 204 864 204 c 2
 690 204 l 2
 658 204 640 223 640 255 c 2
 640 1285 l 2
 640 1326 616 1349 575 1349 c 2
 193 1349 l 2
 152 1349 133 1324 129 1285 c 0
 118 1178 113 926 113 675 c 0
 113 423 118 171 129 64 c 0
 133 25 152 0 193 0 c 2
 864 0 l 2
475 1349 m 0
475 0 m 0
EndSplineSet
EndChar

StartChar: Lcaron
Encoding: 317 317 59
Width: 1094
VWidth: 0
Flags: HW
LayerCount: 2
Fore
SplineSet
823 0 m 2
 863 0 887 24 887 64 c 2
 887 140 l 2
 887 180 863 204 823 204 c 2
 649 204 l 2
 617 204 599 222 599 254 c 2
 599 1285 l 2
 599 1325 575 1349 535 1349 c 2
 152 1349 l 2
 112 1349 88 1325 88 1285 c 2
 88 64 l 2
 88 24 112 0 152 0 c 2
 823 0 l 2
1119 1046 m 0
 1150 1033 1158 986 1133 964 c 0
 1119 951 1101 943 1081 937 c 0
 1047 927 1036 913 1036 879 c 2
 1036 856 l 2
 1036 845 1043 838 1054 837 c 0
 1061 837 1068 836 1074 836 c 0
 1261 836 1367 1021 1367 1177 c 0
 1367 1286 1311 1380 1189 1380 c 0
 1103 1380 1017 1324 1017 1211 c 0
 1017 1125 1061 1070 1119 1046 c 0
EndSplineSet
EndChar

StartChar: Ldot
Encoding: 319 319 61
Width: 1094
VWidth: 0
Flags: HW
LayerCount: 2
Fore
SplineSet
822 0 m 2
 862 0 887 24 887 64 c 2
 887 140 l 2
 887 180 862 204 822 204 c 2
 649 204 l 2
 617 204 598 222 598 254 c 2
 598 1285 l 2
 598 1325 574 1349 534 1349 c 2
 151 1349 l 2
 111 1349 87 1325 87 1285 c 2
 87 64 l 2
 87 24 111 0 151 0 c 2
 822 0 l 2
1134 1135 m 2
 1134 1175 1109 1199 1069 1199 c 2
 769 1199 l 2
 729 1199 705 1175 705 1135 c 2
 705 868 l 2
 705 828 729 804 769 804 c 2
 1069 804 l 2
 1109 804 1134 828 1134 868 c 2
 1134 1135 l 2
EndSplineSet
EndChar

StartChar: Lslash
Encoding: 321 321 62
Width: 1534
VWidth: 0
Flags: HW
LayerCount: 2
Fore
SplineSet
1054 0 m 2
 1094 0 1118 24 1118 64 c 2
 1118 140 l 2
 1118 180 1094 204 1054 204 c 2
 880 204 l 2
 848 204 830 222 830 254 c 2
 830 755 l 1
 1060 877 l 2
 1098 897 1117 928 1117 971 c 2
 1117 1129 l 2
 1117 1164 1091 1179 1060 1163 c 2
 830 1041 l 1
 830 1285 l 2
 830 1325 806 1349 766 1349 c 2
 383 1349 l 2
 343 1349 319 1325 319 1285 c 2
 319 771 l 1
 118 665 l 2
 80 645 61 613 61 570 c 2
 61 411 l 2
 61 376 87 361 118 377 c 2
 319 484 l 1
 319 64 l 2
 319 24 343 0 383 0 c 2
 1054 0 l 2
EndSplineSet
EndChar

StartChar: M
Encoding: 77 77 63
Width: 2052
VWidth: 0
Flags: HW
LayerCount: 2
Fore
SplineSet
1246 64 m 1
 1249 23 1274 0 1315 0 c 2
 1555 0 l 2
 1593 0 1617 23 1617 60 c 0
 1617 63 1618 89 1618 140 c 0
 1618 286 1611 643 1560 1285 c 0
 1557 1326 1533 1349 1492 1349 c 2
 1045 1349 l 2
 1004 1349 977 1327 971 1286 c 2
 882 608 l 2
 882 604 877 602 873 602 c 0
 868 602 864 604 863 608 c 2
 764 1286 l 2
 758 1327 731 1349 690 1349 c 2
 244 1349 l 2
 203 1349 179 1326 176 1285 c 0
 125 667 118 303 118 149 c 0
 118 89 119 60 119 60 c 2
 119 23 143 0 181 0 c 2
 434 0 l 2
 475 0 500 23 503 64 c 1
 525 794 l 1
 655 63 l 2
 662 22 687 0 728 0 c 2
 1011 0 l 2
 1052 0 1077 22 1085 63 c 2
 1222 794 l 1
 1246 64 l 1
EndSplineSet
EndChar

StartChar: N
Encoding: 78 78 64
Width: 1715
VWidth: 0
Flags: HW
LayerCount: 2
Fore
SplineSet
1250 0 m 2
 1291 0 1312 23 1314 64 c 0
 1325 295 1332 484 1332 701 c 0
 1332 888 1328 1105 1314 1285 c 0
 1311 1325 1291 1349 1250 1349 c 2
 1003 1349 l 2
 962 1349 938 1326 938 1285 c 2
 938 756 l 2
 938 745 933 739 927 739 c 0
 923 739 918 742 914 750 c 2
 605 1294 l 2
 584 1331 552 1349 509 1349 c 2
 201 1349 l 2
 160 1349 139 1326 136 1285 c 0
 124 1092 118 894 118 691 c 0
 118 488 124 279 136 64 c 0
 139 23 160 0 201 0 c 2
 451 0 l 2
 492 0 515 23 515 64 c 2
 515 551 l 2
 515 562 520 568 526 568 c 0
 530 568 536 566 540 558 c 2
 826 56 l 2
 848 19 879 0 922 0 c 2
 1250 0 l 2
726 1349 m 0
726 0 m 0
EndSplineSet
EndChar

StartChar: O
Encoding: 79 79 69
Width: 1710
VWidth: 0
Flags: HW
LayerCount: 2
Fore
SplineSet
710 266 m 2
 624 266 623 265 623 673 c 0
 623 1082 624 1085 710 1085 c 2
 740 1085 l 2
 836 1085 838 1085 838 676 c 0
 838 267 836 266 740 266 c 2
 710 266 l 2
721 1380 m 0
 213 1380 96 1326 96 681 c 0
 96 16 196 -33 721 -33 c 0
 1230 -33 1350 18 1350 684 c 0
 1350 1331 1205 1380 721 1380 c 0
723 1349 m 0
EndSplineSet
EndChar

StartChar: OE
Encoding: 338 338 70
Width: 1832
VWidth: 0
Flags: HW
LayerCount: 2
Fore
SplineSet
574 1106 m 2
 574 1136 591 1153 621 1153 c 2
 623 1153 l 2
 653 1153 670 1136 670 1106 c 2
 670 244 l 2
 670 214 653 196 623 196 c 2
 621 196 l 2
 591 196 574 214 574 244 c 2
 574 1106 l 2
1432 0 m 2
 1472 0 1496 24 1496 64 c 2
 1496 142 l 2
 1496 182 1472 206 1432 206 c 2
 1255 206 l 2
 1223 206 1205 225 1205 257 c 2
 1205 551 l 2
 1205 583 1223 602 1255 602 c 2
 1411 602 l 2
 1451 602 1475 626 1475 666 c 2
 1475 749 l 2
 1475 789 1451 813 1411 813 c 2
 1255 813 l 2
 1223 813 1205 831 1205 863 c 2
 1205 1095 l 2
 1205 1127 1223 1145 1255 1145 c 2
 1432 1145 l 2
 1472 1145 1496 1170 1496 1210 c 2
 1496 1285 l 2
 1496 1325 1472 1349 1432 1349 c 2
 611 1349 l 2
 460 1349 335 1337 236 1298 c 0
 126 1255 78 1185 78 1038 c 2
 78 314 l 2
 78 291 78 268 80 243 c 0
 88 139 150 86 236 51 c 2
 611 -100 l 1
 611 0 l 1
 1432 0 l 2
611 -100 m 1
 611 -100 l 2
 633 -109 611 -124 611 -100 c 2
 611 -100 l 1
775 1349 m 0
EndSplineSet
EndChar

StartChar: Oslash
Encoding: 216 216 78
Width: 1542
VWidth: 0
Flags: HW
LayerCount: 2
Fore
SplineSet
895 -17 m 0
 1096 17 1245 87 1245 313 c 2
 1245 1037 l 2
 1245 1180 1189 1257 1091 1306 c 1
 1147 1397 l 2
 1169 1432 1164 1467 1132 1493 c 2
 1128 1496 l 2
 1098 1521 1065 1516 1045 1483 c 2
 964 1350 l 1
 877 1371 775 1379 658 1379 c 0
 566 1379 487 1374 422 1363 c 0
 222 1330 76 1261 76 1037 c 2
 76 313 l 2
 76 290 78 265 81 239 c 0
 90 164 126 111 177 72 c 1
 130 -5 l 2
 109 -40 115 -73 148 -98 c 2
 153 -102 l 2
 184 -126 217 -120 238 -86 c 2
 298 11 l 1
 396 -22 516 -35 659 -35 c 0
 659 -35 l 2
 658 -33 l 2
 658 -33 l 0
 751 -33 830 -28 895 -17 c 0
588 1102 m 2
 588 1134 606 1152 638 1152 c 2
 684 1152 l 2
 716 1152 734 1134 734 1102 c 2
 734 978 l 1
 588 740 l 1
 588 1102 l 2
734 723 m 1
 734 249 l 2
 734 217 716 199 684 199 c 2
 638 199 l 2
 606 199 588 217 588 249 c 2
 588 485 l 1
 734 723 l 1
652 1349 m 0
EndSplineSet
EndChar

StartChar: P
Encoding: 80 80 80
Width: 1550
VWidth: 0
Flags: HW
LayerCount: 2
Fore
SplineSet
598 1102 m 2
 598 1134 617 1152 649 1152 c 2
 694 1152 l 2
 726 1152 744 1134 744 1102 c 2
 744 582 l 2
 744 550 726 531 694 531 c 2
 649 531 l 2
 617 531 598 550 598 582 c 2
 598 1102 l 2
88 64 m 2
 88 24 112 0 152 0 c 2
 535 0 l 2
 575 0 599 24 599 64 c 2
 599 290 l 2
 599 322 617 340 649 340 c 2
 728 340 l 2
 990 340 1256 362 1256 671 c 2
 1256 1019 l 2
 1256 1319 994 1349 727 1349 c 2
 152 1349 l 2
 112 1349 88 1325 88 1285 c 2
 88 64 l 2
EndSplineSet
EndChar

StartChar: Q
Encoding: 81 81 81
Width: 1710
VWidth: 0
Flags: HW
LayerCount: 2
Fore
SplineSet
709 266 m 2
 624 266 623 267 623 673 c 0
 623 1082 624 1085 710 1085 c 2
 741 1085 l 2
 836 1085 838 1084 838 676 c 0
 838 267 836 266 740 266 c 2
 709 266 l 2
936 -415 m 0
 976 -415 1102 -405 1147 -402 c 0
 1188 -399 1190 -383 1198 -343 c 2
 1225 -197 l 2
 1226 -193 1226 -188 1226 -184 c 0
 1226 -159 1210 -142 1184 -142 c 0
 1181 -142 1176 -142 1173 -143 c 0
 1138 -148 1102 -151 1069 -151 c 0
 1028 -151 923 -147 898 -135 c 0
 887 -130 892 -67 891 -30 c 1
 1258 -11 1350 99 1350 684 c 0
 1350 1331 1205 1380 721 1380 c 0
 213 1380 96 1326 96 681 c 0
 96 167 157 21 426 -19 c 0
 429 -20 429 -19 432 -20 c 0
 502 -35 513 -57 513 -96 c 0
 513 -113 511 -159 511 -188 c 0
 513 -385 701 -415 936 -415 c 0
EndSplineSet
EndChar

StartChar: R
Encoding: 82 82 82
Width: 1680
VWidth: 0
Flags: HW
LayerCount: 2
Fore
SplineSet
654 64 m 2
 654 515 l 2
 654 547 654 549 686 549 c 2
 740 549 l 2
 772 549 791 530 791 498 c 1
 851 64 l 1
 851 23 874 0 915 0 c 2
 1300 0 l 2
 1341 0 1370 23 1365 64 c 2
 1311 475 l 2
 1299 569 1254 665 1144 695 c 1
 1265 740 1297 839 1297 1007 c 0
 1297 1271 1154 1349 910 1349 c 2
 202 1349 l 2
 161 1349 141 1324 137 1285 c 0
 119 1108 118 877 118 651 c 0
 118 433 123 219 137 66 c 0
 140 27 157 0 198 0 c 2
 590 0 l 2
 631 0 654 23 654 64 c 2
654 1115 m 2
 654 1147 656 1149 688 1149 c 2
 750 1149 l 2
 782 1149 800 1130 800 1098 c 2
 800 796 l 2
 800 764 782 745 750 745 c 2
 686 745 l 2
 654 745 654 747 654 779 c 2
 654 1115 l 2
711 1349 m 0
711 0 m 0
EndSplineSet
EndChar

StartChar: S
Encoding: 83 83 86
Width: 1580
VWidth: 0
Flags: HW
LayerCount: 2
Fore
SplineSet
680 -33 m 0
 1076 -33 1254 21 1254 414 c 0
 1254 770 1136 831 699 875 c 0
 661 879 597 889 596 922 c 0
 596 923 596 923 595 923 c 2
 594 925 l 2
 593 925 593 925 593 926 c 2
 593 1066 l 2
 593 1098 612 1117 644 1117 c 2
 689 1117 l 2
 721 1117 739 1098 739 1066 c 2
 739 1012 l 2
 739 954 746 935 787 937 c 2
 1166 956 l 2
 1202 958 1206 981 1206 1016 c 2
 1206 1020 l 1
 1187 1354 975 1380 655 1380 c 0
 310 1380 105 1311 105 940 c 0
 105 602 215 554 641 510 c 0
 683 506 741 489 741 444 c 2
 741 283 l 2
 741 251 722 233 690 233 c 2
 645 233 l 2
 613 233 595 251 595 283 c 2
 595 382 l 2
 595 423 580 434 539 437 c 2
 160 462 l 2
 124 465 111 433 111 397 c 2
 111 395 l 1
 112 375 113 311 115 292 c 0
 143 -8 364 -33 680 -33 c 0
668 1349 m 0
668 0 m 0
EndSplineSet
EndChar

StartChar: T
Encoding: 84 84 92
Width: 1313
VWidth: 0
Flags: HW
LayerCount: 2
Fore
SplineSet
810 64 m 0
 822 224 827 475 827 712 c 0
 827 874 825 1014 819 1122 c 1
 1047 1122 l 2
 1088 1122 1111 1145 1111 1186 c 2
 1111 1285 l 2
 1111 1326 1088 1349 1047 1349 c 2
 64 1349 l 2
 23 1349 0 1326 0 1285 c 2
 0 1186 l 2
 0 1145 23 1122 64 1122 c 2
 288 1122 l 1
 283 1019 281 872 281 712 c 0
 281 449 288 182 299 64 c 0
 302 25 322 0 363 0 c 2
 745 0 l 2
 786 0 807 24 810 64 c 0
556 1349 m 0
556 0 m 0
556 675 m 0
EndSplineSet
EndChar

StartChar: Thorn
Encoding: 222 222 94
Width: 1534
VWidth: 0
Flags: HW
LayerCount: 2
Fore
SplineSet
597 950 m 2
 597 982 616 1000 648 1000 c 2
 685 1000 l 2
 717 1000 735 982 735 950 c 2
 735 458 l 2
 735 426 717 408 685 408 c 2
 648 408 l 2
 616 408 597 426 597 458 c 2
 597 950 l 2
88 64 m 2
 88 24 112 0 152 0 c 2
 533 0 l 2
 573 0 597 24 597 64 c 2
 597 161 l 2
 597 193 616 212 648 212 c 2
 713 212 l 2
 802 212 876 217 937 227 c 0
 1072 250 1181 292 1224 397 c 0
 1241 439 1243 487 1243 542 c 2
 1243 865 l 2
 1243 888 1242 912 1240 937 c 0
 1234 1044 1171 1103 1086 1140 c 0
 989 1182 865 1195 713 1195 c 2
 648 1195 l 2
 616 1195 597 1214 597 1246 c 2
 597 1289 l 2
 597 1329 573 1353 533 1353 c 2
 152 1353 l 2
 112 1353 88 1329 88 1289 c 2
 88 64 l 2
EndSplineSet
EndChar

StartChar: U
Encoding: 85 85 95
Width: 1556
VWidth: 0
Flags: HW
LayerCount: 2
Fore
SplineSet
593 1285 m 2
 593 1325 569 1349 529 1349 c 2
 146 1349 l 2
 106 1349 82 1325 82 1285 c 2
 82 314 l 2
 82 -6 431 -33 665 -33 c 0
 920 -33 1251 -3 1251 313 c 2
 1251 1284 l 2
 1251 1324 1227 1349 1187 1349 c 2
 804 1349 l 2
 764 1349 739 1324 739 1284 c 2
 739 248 l 2
 739 216 721 198 689 198 c 2
 643 198 l 2
 611 198 593 216 593 248 c 2
 593 1285 l 2
658 1349 m 0
1184 8 m 0
EndSplineSet
EndChar

StartChar: V
Encoding: 86 86 106
Width: 1610
VWidth: 0
Flags: HW
LayerCount: 2
Fore
SplineSet
564 1286 m 2
 558 1327 533 1349 492 1349 c 2
 120 1349 l 2
 86 1349 68 1329 68 1299 c 0
 68 1295 68 1291 69 1287 c 0
 133 862 220 389 312 63 c 0
 323 25 348 0 389 0 c 2
 973 0 l 2
 1014 0 1040 22 1050 63 c 0
 1130 384 1231 856 1294 1287 c 0
 1295 1291 1294 1295 1294 1299 c 0
 1294 1329 1276 1349 1242 1349 c 2
 870 1349 l 2
 829 1349 802 1327 798 1286 c 1
 696 506 l 2
 696 502 692 500 689 500 c 0
 686 500 682 503 681 508 c 2
 564 1286 l 2
EndSplineSet
EndChar

StartChar: W
Encoding: 87 87 107
Width: 2108
VWidth: 0
Flags: HW
LayerCount: 2
Fore
SplineSet
1123 1286 m 2
 1118 1327 1093 1349 1052 1349 c 2
 745 1349 l 2
 704 1349 679 1327 674 1286 c 2
 610 722 l 1
 597 510 l 2
 596 500 591 494 581 494 c 2
 579 494 l 2
 569 494 563 500 563 510 c 2
 528 1285 l 2
 526 1325 502 1349 461 1349 c 2
 96 1349 l 2
 57 1349 35 1325 41 1286 c 2
 217 64 l 2
 223 23 249 0 290 0 c 2
 705 0 l 2
 746 0 773 22 779 63 c 2
 844 468 l 2
 850 503 854 560 856 595 c 2
 864 769 l 2
 864 779 870 784 880 784 c 2
 882 784 l 2
 892 784 898 779 898 769 c 2
 907 595 l 2
 909 560 915 502 920 468 c 2
 983 63 l 2
 989 22 1016 0 1057 0 c 2
 1489 0 l 2
 1530 0 1557 22 1563 63 c 2
 1746 1286 l 2
 1752 1324 1730 1349 1691 1349 c 2
 1370 1349 l 2
 1329 1349 1304 1326 1300 1285 c 2
 1228 508 l 2
 1227 500 1222 496 1214 495 c 2
 1212 495 l 2
 1204 495 1199 499 1199 507 c 2
 1185 722 l 1
 1123 1286 l 2
892 1349 m 0
EndSplineSet
EndChar

StartChar: X
Encoding: 88 88 112
Width: 1586
VWidth: 0
Flags: HW
LayerCount: 2
Fore
SplineSet
663 435 m 1
 665 435 l 1
 797 61 l 2
 811 21 840 0 882 0 c 2
 1260 0 l 2
 1288 0 1304 15 1304 37 c 0
 1304 44 1302 51 1299 59 c 2
 1064 615 l 2
 1057 631 1055 646 1055 662 c 0
 1055 677 1057 693 1063 708 c 2
 1300 1290 l 2
 1303 1298 1305 1304 1305 1311 c 0
 1305 1333 1288 1349 1260 1349 c 2
 886 1349 l 2
 844 1349 814 1328 800 1288 c 2
 669 906 l 1
 667 906 l 1
 537 1288 l 2
 523 1328 495 1349 453 1349 c 2
 82 1349 l 2
 54 1349 37 1333 37 1311 c 0
 37 1304 38 1298 41 1290 c 2
 276 708 l 2
 282 693 285 677 285 663 c 0
 285 647 282 631 275 615 c 2
 42 59 l 2
 39 51 38 44 38 37 c 0
 38 15 54 0 82 0 c 2
 449 0 l 2
 491 0 520 21 534 61 c 2
 663 435 l 1
EndSplineSet
EndChar

StartChar: Y
Encoding: 89 89 113
Width: 1509
VWidth: 0
Flags: HW
LayerCount: 2
Fore
SplineSet
831 0 m 2
 872 0 892 24 895 64 c 0
 903 164 908 301 911 447 c 1
 1246 1289 l 2
 1260 1323 1241 1349 1205 1349 c 2
 863 1349 l 2
 821 1349 793 1329 782 1288 c 2
 651 836 l 1
 650 829 646 825 639 825 c 2
 637 825 l 2
 629 825 626 829 625 836 c 1
 498 1288 l 2
 487 1329 459 1349 417 1349 c 2
 71 1349 l 2
 35 1349 17 1323 31 1289 c 2
 369 450 l 1
 372 286 376 143 384 64 c 0
 387 25 408 0 449 0 c 2
 831 0 l 2
639 1349 m 0
EndSplineSet
EndChar

StartChar: Z
Encoding: 90 90 118
Width: 1138
VWidth: 0
Flags: HW
LayerCount: 2
Fore
SplineSet
122 1349 m 2
 82 1349 58 1325 58 1285 c 2
 58 1167 l 2
 58 1127 82 1103 122 1103 c 2
 322 1103 l 2
 351 1103 366 1083 358 1055 c 2
 66 62 l 2
 55 26 75 0 112 0 c 2
 851 0 l 2
 891 0 915 24 915 64 c 2
 915 185 l 2
 915 225 891 249 851 249 c 2
 681 249 l 2
 651 249 635 268 643 297 c 2
 907 1287 l 2
 917 1323 898 1349 860 1349 c 2
 122 1349 l 2
481 1349 m 0
EndSplineSet
EndChar

StartChar: a
Encoding: 97 97 122
Width: 1464
VWidth: 0
Flags: HW
LayerCount: 2
Fore
SplineSet
684 96 m 0
 693 115 700 123 703 123 c 0
 709 123 710 105 717 88 c 2
 729 58 l 2
 745 20 774 1 815 1 c 2
 1127 1 l 2
 1163 1 1182 20 1182 52 c 0
 1182 55 1182 60 1181 64 c 0
 1173 111 1169 162 1168 217 c 1
 1168 805 l 2
 1168 1102 886 1123 626 1123 c 0
 425 1123 115 1103 115 850 c 0
 115 833 116 818 118 802 c 0
 121 776 139 759 165 759 c 2
 168 759 l 1
 528 777 l 2
 569 779 569 780 569 821 c 2
 569 885 l 2
 569 917 570 936 602 936 c 2
 652 936 l 2
 684 936 686 917 686 885 c 2
 686 697 l 2
 686 696 673 696 651 696 c 0
 234 696 62 657 62 328 c 0
 62 90 177 -23 418 -23 c 0
 558 -23 649 27 684 96 c 0
652 575 m 2
 684 575 686 573 686 541 c 2
 686 226 l 2
 686 194 683 192 651 192 c 2
 630 192 l 2
 566 192 558 215 546 243 c 0
 536 267 532 309 532 354 c 0
 532 428 542 511 546 525 c 0
 555 559 587 575 622 575 c 2
 652 575 l 2
619 1100 m 0
1115 8 m 0
EndSplineSet
EndChar

StartChar: acute
Encoding: 180 180 126
Width: 873
VWidth: 0
Flags: HW
LayerCount: 2
Fore
SplineSet
21 1201 m 0
 21 1176 44 1160 74 1160 c 0
 82 1160 93 1161 102 1164 c 0
 275 1216 518 1277 606 1328 c 0
 675 1368 704 1427 704 1482 c 0
 704 1562 644 1633 557 1633 c 0
 525 1633 489 1623 451 1601 c 0
 366 1552 188 1378 50 1252 c 0
 30 1234 21 1216 21 1201 c 0
363 1100 m 0
EndSplineSet
EndChar

StartChar: ae
Encoding: 230 230 128
Width: 2144
VWidth: 0
Flags: HW
LayerCount: 2
Fore
SplineSet
1150 842 m 2
 1150 874 1168 893 1200 893 c 2
 1221 893 l 2
 1253 893 1272 874 1272 842 c 2
 1272 728 l 2
 1272 696 1253 678 1221 678 c 2
 1200 678 l 2
 1168 678 1150 696 1150 728 c 2
 1150 842 l 2
615 511 m 2
 647 511 666 493 666 461 c 2
 666 264 l 2
 666 232 647 213 615 213 c 2
 589 213 l 2
 557 213 539 232 539 264 c 2
 539 461 l 2
 539 493 557 511 589 511 c 2
 615 511 l 2
613 1136 m 0
 541 1136 479 1132 426 1124 c 0
 253 1099 109 1041 109 849 c 0
 109 839 109 830 110 820 c 0
 113 782 141 757 179 759 c 0
 288 763 395 768 504 772 c 0
 541 773 562 795 562 832 c 2
 562 841 l 2
 562 873 580 892 612 892 c 2
 615 892 l 2
 647 892 666 873 666 841 c 2
 666 715 l 2
 666 685 647 670 618 678 c 0
 572 690 519 697 455 697 c 0
 194 697 58 585 58 328 c 0
 58 222 91 140 148 82 c 0
 221 8 334 -30 488 -30 c 0
 643 -30 766 -6 868 42 c 0
 901 58 922 56 953 37 c 0
 1018 -4 1101 -30 1207 -30 c 0
 1291 -30 1363 -26 1423 -17 c 0
 1622 13 1751 81 1755 299 c 1
 1755 363 l 2
 1755 401 1731 424 1693 424 c 2
 1336 424 l 2
 1296 424 1272 400 1272 360 c 2
 1272 264 l 2
 1272 232 1253 213 1221 213 c 2
 1200 213 l 2
 1168 213 1150 232 1150 264 c 2
 1150 462 l 2
 1150 494 1168 513 1200 513 c 2
 1691 513 l 2
 1731 513 1755 537 1755 577 c 2
 1755 809 l 2
 1755 832 1755 855 1752 880 c 0
 1743 986 1676 1045 1588 1082 c 0
 1489 1123 1365 1138 1211 1138 c 0
 1085 1138 981 1117 907 1069 c 0
 907 1068 l 2
 908 1067 l 1
 839 1117 736 1136 613 1136 c 0
907 1100 m 0
EndSplineSet
EndChar

StartChar: afii10018
Encoding: 1041 1041 130
Width: 1550
VWidth: 0
Flags: HW
LayerCount: 2
Fore
SplineSet
88 1285 m 2
 88 1325 112 1349 152 1349 c 2
 1080 1349 l 2
 1121 1349 1145 1326 1145 1285 c 2
 1145 1186 l 2
 1145 1145 1121 1122 1080 1122 c 2
 599 1122 l 1
 599 848 l 2
 599 838 608 832 624 832 c 2
 728 832 l 2
 990 832 1256 810 1256 501 c 2
 1256 331 l 2
 1256 31 994 0 727 0 c 2
 152 0 l 2
 112 0 88 24 88 64 c 2
 88 1285 l 2
598 222 m 2
 598 206 607 197 623 197 c 2
 694 197 l 2
 726 197 744 216 744 248 c 2
 744 590 l 2
 744 622 726 640 694 640 c 2
 623 640 l 2
 607 640 598 631 598 615 c 2
 598 222 l 2
EndSplineSet
EndChar

StartChar: afii10020
Encoding: 1043 1043 132
Width: 1313
VWidth: 0
Flags: HW
LayerCount: 2
Fore
SplineSet
810 64 m 0
 822 224 827 475 827 712 c 0
 827 874 825 1014 819 1122 c 1
 1097 1122 l 2
 1138 1122 1162 1145 1162 1186 c 2
 1162 1285 l 2
 1162 1326 1138 1349 1097 1349 c 2
 354 1349 l 2
 313 1349 291 1326 290 1285 c 0
 288 1238 281 1043 281 712 c 0
 281 449 288 182 299 64 c 0
 302 25 322 0 363 0 c 2
 745 0 l 2
 786 0 807 24 810 64 c 0
556 1349 m 0
EndSplineSet
EndChar

StartChar: afii10021
Encoding: 1044 1044 133
Width: 1788
VWidth: 0
Flags: HW
LayerCount: 2
Fore
SplineSet
307 1349 m 2
 266 1349 247 1324 243 1285 c 1
 205 1005 156 592 111 211 c 1
 -2 211 l 2
 -43 211 -61 186 -66 147 c 1
 -68 86 -69 23 -69 -39 c 0
 -69 -90 -68 -141 -66 -191 c 1
 -61 -231 -43 -255 -2 -255 c 2
 337 -255 l 2
 378 -255 401 -232 401 -191 c 2
 401 -8 l 2
 401 24 403 25 435 25 c 2
 1043 25 l 2
 1075 25 1077 24 1077 -8 c 2
 1077 -191 l 2
 1077 -232 1100 -255 1141 -255 c 2
 1481 -255 l 2
 1522 -255 1539 -231 1546 -191 c 1
 1549 -148 1551 -90 1551 -32 c 0
 1551 33 1549 98 1546 147 c 1
 1539 186 1522 211 1481 211 c 2
 1369 211 l 1
 1377 355 1377 521 1377 685 c 0
 1377 904 1378 1121 1360 1285 c 0
 1356 1325 1336 1349 1295 1349 c 2
 307 1349 l 2
624 228 m 1
 714 1130 l 2
 717 1162 716 1164 748 1164 c 2
 823 1164 l 2
 855 1164 857 1162 857 1130 c 2
 857 228 l 1
 624 228 l 1
EndSplineSet
EndChar

StartChar: afii10022
Encoding: 1045 1045 134
Width: 1191
VWidth: 0
Flags: HW
LayerCount: 2
Fore
SplineSet
504 1349 m 0
EndSplineSet
Refer: 22 69 N 1 0 0 1 0 0 2
EndChar

StartChar: afii10024
Encoding: 1046 1046 136
Width: 1586
VWidth: 0
Flags: HW
LayerCount: 2
Fore
SplineSet
663 435 m 1
 665 435 l 1
 797 61 l 2
 811 21 840 0 882 0 c 2
 1260 0 l 2
 1288 0 1304 15 1304 37 c 0
 1304 44 1302 51 1299 59 c 2
 1064 615 l 2
 1057 631 1055 646 1055 662 c 0
 1055 677 1057 693 1063 708 c 2
 1300 1290 l 2
 1303 1298 1305 1304 1305 1311 c 0
 1305 1333 1288 1349 1260 1349 c 2
 886 1349 l 2
 844 1349 814 1328 800 1288 c 2
 669 906 l 1
 667 906 l 1
 537 1288 l 2
 523 1328 495 1349 453 1349 c 2
 82 1349 l 2
 54 1349 37 1333 37 1311 c 0
 37 1304 38 1298 41 1290 c 2
 276 708 l 2
 282 693 285 677 285 663 c 0
 285 647 282 631 275 615 c 2
 42 59 l 2
 39 51 38 44 38 37 c 0
 38 15 54 0 82 0 c 2
 449 0 l 2
 491 0 520 21 534 61 c 2
 663 435 l 1
EndSplineSet
EndChar

StartChar: afii10025
Encoding: 1047 1047 137
Width: 1436
VWidth: 0
Flags: HW
LayerCount: 2
Fore
SplineSet
61 937 m 0
 61 925 62 913 62 901 c 0
 63 880 77 866 98 866 c 2
 466 866 l 2
 506 866 530 891 530 931 c 2
 530 1101 l 2
 530 1133 549 1151 581 1151 c 2
 626 1151 l 2
 658 1151 676 1133 676 1101 c 2
 676 838 l 2
 676 806 658 788 626 788 c 2
 521 788 l 2
 481 788 457 763 457 723 c 2
 457 662 l 2
 457 622 481 598 521 598 c 2
 626 598 l 2
 658 598 676 580 676 548 c 2
 676 249 l 2
 676 217 658 199 626 199 c 2
 581 199 l 2
 549 199 530 217 530 249 c 2
 530 454 l 2
 530 494 506 519 466 519 c 2
 102 519 l 2
 78 519 62 503 61 479 c 0
 60 465 60 451 60 437 c 0
 60 120 229 -33 606 -33 c 0
 940 -33 1156 67 1156 442 c 0
 1156 543 1114 625 1030 673 c 0
 1007 686 1007 703 1029 716 c 0
 1106 762 1154 836 1154 942 c 0
 1154 1274 970 1381 604 1381 c 0
 248 1381 61 1271 61 937 c 0
607 1349 m 0
607 0 m 0
EndSplineSet
EndChar

StartChar: afii10026
Encoding: 1048 1048 138
Width: 1715
VWidth: 0
Flags: HW
LayerCount: 2
Fore
SplineSet
201 0 m 2
 160 0 139 23 137 64 c 0
 126 295 118 484 118 701 c 0
 118 888 123 1105 137 1285 c 0
 140 1325 160 1349 201 1349 c 2
 448 1349 l 2
 489 1349 513 1326 513 1285 c 2
 513 756 l 2
 513 745 518 739 524 739 c 0
 528 739 533 742 537 750 c 2
 846 1294 l 2
 867 1331 899 1349 942 1349 c 2
 1250 1349 l 2
 1291 1349 1312 1326 1315 1285 c 0
 1327 1092 1332 894 1332 691 c 0
 1332 488 1327 279 1315 64 c 0
 1312 23 1291 0 1250 0 c 2
 1000 0 l 2
 959 0 936 23 936 64 c 2
 936 551 l 2
 936 562 931 568 925 568 c 0
 921 568 915 566 911 558 c 2
 625 56 l 2
 603 19 572 0 529 0 c 2
 201 0 l 2
726 1349 m 0
EndSplineSet
EndChar

StartChar: afii10028
Encoding: 1050 1050 140
Width: 1725
VWidth: 0
Flags: HW
LayerCount: 2
Fore
SplineSet
730 1349 m 0
EndSplineSet
Refer: 55 75 N 1 0 0 1 0 0 2
EndChar

StartChar: afii10029
Encoding: 1051 1051 141
Width: 1788
VWidth: 0
Flags: HW
LayerCount: 2
Fore
SplineSet
200 1349 m 2
 159 1349 138 1324 135 1285 c 0
 124 1134 121 1085 121 838 c 0
 121 547 135 467 135 280 c 0
 135 248 116 230 84 230 c 2
 44 230 l 2
 4 230 -20 206 -20 166 c 2
 -20 62 l 2
 -20 22 3 -5 43 -10 c 0
 96 -17 147 -21 196 -21 c 0
 454 -21 654 76 654 345 c 2
 655 1130 l 2
 655 1162 657 1164 689 1164 c 2
 823 1164 l 2
 855 1164 857 1162 857 1130 c 2
 857 64 l 2
 857 23 880 0 921 0 c 2
 1312 0 l 2
 1353 0 1372 23 1376 64 c 0
 1394 239 1394 463 1394 685 c 0
 1394 904 1394 1121 1376 1285 c 0
 1372 1325 1353 1349 1312 1349 c 2
 200 1349 l 2
EndSplineSet
EndChar

StartChar: afii10033
Encoding: 1055 1055 145
Width: 1788
VWidth: 0
Flags: HW
LayerCount: 2
Fore
SplineSet
200 1349 m 2
 159 1349 138 1324 135 1285 c 0
 118 1073 118 867 118 668 c 0
 118 459 119 258 135 64 c 0
 138 24 159 0 200 0 c 2
 591 0 l 2
 632 0 655 23 655 64 c 2
 655 1130 l 2
 655 1162 657 1164 689 1164 c 2
 823 1164 l 2
 855 1164 857 1162 857 1130 c 2
 857 64 l 2
 857 23 880 0 921 0 c 2
 1312 0 l 2
 1353 0 1372 23 1376 64 c 0
 1394 239 1394 463 1394 685 c 0
 1394 904 1394 1121 1376 1285 c 0
 1372 1325 1353 1349 1312 1349 c 2
 200 1349 l 2
EndSplineSet
EndChar

StartChar: afii10037
Encoding: 1059 1059 149
Width: 1509
VWidth: 0
Flags: HW
LayerCount: 2
Fore
SplineSet
831 0 m 2
 872 0 892 24 895 64 c 0
 903 164 908 301 911 447 c 1
 1246 1289 l 2
 1260 1323 1241 1349 1205 1349 c 2
 863 1349 l 2
 821 1349 793 1329 782 1288 c 2
 651 836 l 1
 650 829 646 825 639 825 c 2
 637 825 l 2
 629 825 626 829 625 836 c 1
 498 1288 l 2
 487 1329 459 1349 417 1349 c 2
 71 1349 l 2
 35 1349 17 1323 31 1289 c 2
 369 450 l 1
 372 286 376 143 384 64 c 0
 387 25 408 0 449 0 c 2
 831 0 l 2
639 1349 m 0
EndSplineSet
EndChar

StartChar: afii10038
Encoding: 1060 1060 150
Width: 2336
VWidth: 0
Flags: HW
LayerCount: 2
Fore
SplineSet
840 1349 m 2
 799 1349 782 1324 776 1285 c 0
 773 1264 769 1229 767 1184 c 1
 721 1184 l 2
 213 1184 96 1209 96 679 c 0
 96 133 196 163 721 163 c 2
 769 163 l 1
 771 124 774 90 776 64 c 0
 779 25 799 0 840 0 c 2
 1134 0 l 2
 1175 0 1195 24 1198 64 c 0
 1200 94 1202 127 1204 163 c 1
 1255 163 l 2
 1780 163 1880 133 1880 679 c 0
 1880 1209 1763 1184 1255 1184 c 2
 1206 1184 l 1
 1204 1224 1201 1257 1198 1285 c 0
 1194 1324 1175 1349 1134 1349 c 2
 840 1349 l 2
761 408 m 1
 666 409 l 1
 580 409 579 411 579 673 c 0
 579 941 580 942 666 942 c 2
 760 942 l 1
 759 869 758 790 758 712 c 0
 758 608 759 504 761 408 c 1
1212 408 m 1
 1214 506 1216 610 1216 712 c 0
 1216 791 1215 870 1214 942 c 1
 1310 942 l 2
 1396 942 1398 941 1398 673 c 0
 1398 411 1396 409 1310 409 c 1
 1212 408 l 1
EndSplineSet
EndChar

StartChar: afii10040
Encoding: 1062 1062 152
Width: 1788
VWidth: 0
Flags: HW
LayerCount: 2
Fore
SplineSet
1313 0 m 2
 1354 0 1374 25 1377 64 c 0
 1394 276 1394 482 1394 681 c 0
 1394 890 1393 1091 1377 1285 c 0
 1374 1325 1354 1349 1313 1349 c 2
 922 1349 l 2
 881 1349 858 1326 858 1285 c 2
 858 220 l 2
 858 188 856 186 824 186 c 2
 689 186 l 2
 657 186 656 188 656 220 c 2
 656 1285 l 2
 656 1326 632 1349 591 1349 c 2
 201 1349 l 2
 160 1349 140 1326 136 1285 c 0
 118 1110 118 886 118 664 c 0
 118 445 118 228 136 64 c 0
 140 24 160 0 201 0 c 2
 1313 0 l 2
EndSplineSet
EndChar

StartChar: afii10041
Encoding: 1063 1063 153
Width: 1550
VWidth: 0
Flags: HW
LayerCount: 2
Fore
SplineSet
746 1102 m 2
 746 1134 728 1152 696 1152 c 2
 650 1152 l 2
 618 1152 600 1134 600 1102 c 2
 600 582 l 2
 600 550 618 531 650 531 c 2
 696 531 l 2
 728 531 746 550 746 582 c 2
 746 1102 l 2
1256 64 m 2
 1256 24 1232 0 1192 0 c 2
 810 0 l 2
 770 0 745 24 745 64 c 2
 745 290 l 2
 745 322 727 340 695 340 c 2
 617 340 l 2
 355 340 88 362 88 671 c 2
 88 1019 l 2
 88 1319 351 1349 618 1349 c 2
 1192 1349 l 2
 1232 1349 1256 1325 1256 1285 c 2
 1256 64 l 2
EndSplineSet
EndChar

StartChar: afii10042
Encoding: 1064 1064 154
Width: 1788
VWidth: 0
Flags: HW
LayerCount: 2
Fore
SplineSet
1313 0 m 2
 1354 0 1374 25 1377 64 c 0
 1394 276 1394 482 1394 681 c 0
 1394 890 1393 1091 1377 1285 c 0
 1374 1325 1354 1349 1313 1349 c 2
 922 1349 l 2
 881 1349 858 1326 858 1285 c 2
 858 220 l 2
 858 188 856 186 824 186 c 2
 689 186 l 2
 657 186 656 188 656 220 c 2
 656 1285 l 2
 656 1326 632 1349 591 1349 c 2
 201 1349 l 2
 160 1349 140 1326 136 1285 c 0
 118 1110 118 886 118 664 c 0
 118 445 118 228 136 64 c 0
 140 24 160 0 201 0 c 2
 1313 0 l 2
EndSplineSet
EndChar

StartChar: afii10043
Encoding: 1065 1065 155
Width: 1788
VWidth: 0
Flags: HW
LayerCount: 2
Fore
SplineSet
1313 0 m 2
 1354 0 1374 25 1377 64 c 0
 1394 276 1394 482 1394 681 c 0
 1394 890 1393 1091 1377 1285 c 0
 1374 1325 1354 1349 1313 1349 c 2
 922 1349 l 2
 881 1349 858 1326 858 1285 c 2
 858 220 l 2
 858 188 856 186 824 186 c 2
 689 186 l 2
 657 186 656 188 656 220 c 2
 656 1285 l 2
 656 1326 632 1349 591 1349 c 2
 201 1349 l 2
 160 1349 140 1326 136 1285 c 0
 118 1110 118 886 118 664 c 0
 118 445 118 228 136 64 c 0
 140 24 160 0 201 0 c 2
 1313 0 l 2
EndSplineSet
EndChar

StartChar: afii10044
Encoding: 1066 1066 156
Width: 1550
VWidth: 0
Flags: HW
LayerCount: 2
Fore
SplineSet
598 222 m 2
 598 206 607 197 623 197 c 2
 694 197 l 2
 726 197 744 216 744 248 c 2
 744 590 l 2
 744 622 726 640 694 640 c 2
 623 640 l 2
 607 640 598 631 598 615 c 2
 598 222 l 2
88 1285 m 2
 88 1325 112 1349 152 1349 c 2
 535 1349 l 2
 575 1349 599 1325 599 1285 c 2
 599 848 l 2
 599 838 608 832 624 832 c 2
 728 832 l 2
 990 832 1256 810 1256 501 c 2
 1256 331 l 2
 1256 31 994 0 727 0 c 2
 152 0 l 2
 112 0 88 24 88 64 c 2
 88 1285 l 2
EndSplineSet
EndChar

StartChar: afii10045
Encoding: 1067 1067 157
Width: 1550
VWidth: 0
Flags: HW
LayerCount: 2
Fore
SplineSet
598 222 m 2
 598 206 607 197 623 197 c 2
 694 197 l 2
 726 197 744 216 744 248 c 2
 744 590 l 2
 744 622 726 640 694 640 c 2
 623 640 l 2
 607 640 598 631 598 615 c 2
 598 222 l 2
88 1285 m 2
 88 1325 112 1349 152 1349 c 2
 535 1349 l 2
 575 1349 599 1325 599 1285 c 2
 599 848 l 2
 599 838 608 832 624 832 c 2
 728 832 l 2
 990 832 1256 810 1256 501 c 2
 1256 331 l 2
 1256 31 994 0 727 0 c 2
 152 0 l 2
 112 0 88 24 88 64 c 2
 88 1285 l 2
EndSplineSet
EndChar

StartChar: afii10046
Encoding: 1068 1068 158
Width: 1550
VWidth: 0
Flags: HW
LayerCount: 2
Fore
SplineSet
598 222 m 2
 598 206 607 197 623 197 c 2
 694 197 l 2
 726 197 744 216 744 248 c 2
 744 590 l 2
 744 622 726 640 694 640 c 2
 623 640 l 2
 607 640 598 631 598 615 c 2
 598 222 l 2
88 1285 m 2
 88 1325 112 1349 152 1349 c 2
 535 1349 l 2
 575 1349 599 1325 599 1285 c 2
 599 848 l 2
 599 838 608 832 624 832 c 2
 728 832 l 2
 990 832 1256 810 1256 501 c 2
 1256 331 l 2
 1256 31 994 0 727 0 c 2
 152 0 l 2
 112 0 88 24 88 64 c 2
 88 1285 l 2
EndSplineSet
EndChar

StartChar: afii10047
Encoding: 1069 1069 159
Width: 1692
VWidth: 0
Flags: HW
LayerCount: 2
Fore
SplineSet
573 413 m 0
 576 267 589 266 670 266 c 2
 700 266 l 2
 779 266 787 266 788 581 c 1
 540 581 l 2
 500 581 475 605 475 645 c 2
 475 706 l 2
 475 746 500 771 540 771 c 2
 788 771 l 1
 787 1083 779 1085 700 1085 c 2
 670 1085 l 2
 588 1085 575 1082 573 929 c 0
 573 888 553 865 514 865 c 2
 143 865 l 2
 107 865 89 895 89 939 c 1
 113 1360 265 1380 689 1380 c 0
 1197 1380 1314 1326 1314 681 c 0
 1314 16 1214 -33 689 -33 c 0
 244 -33 109 -11 89 419 c 1
 89 456 106 482 140 482 c 2
 519 482 l 2
 552 482 573 454 573 413 c 0
EndSplineSet
EndChar

StartChar: afii10048
Encoding: 1070 1070 160
Width: 2452
VWidth: 0
Flags: HW
LayerCount: 2
Fore
SplineSet
1380 266 m 2
 1294 266 1293 265 1293 673 c 0
 1293 1082 1294 1085 1380 1085 c 2
 1410 1085 l 2
 1506 1085 1508 1085 1508 676 c 0
 1508 267 1506 266 1410 266 c 2
 1380 266 l 2
1391 1380 m 0
 917 1380 810 1326 810 681 c 0
 810 16 902 -33 1391 -33 c 0
 1866 -33 1978 18 1978 684 c 0
 1978 1331 1842 1380 1391 1380 c 0
823 768 m 1
 672 768 l 2
 640 768 638 772 638 804 c 2
 638 1285 l 2
 638 1326 615 1349 574 1349 c 2
 200 1349 l 2
 159 1349 138 1324 135 1285 c 0
 118 1073 118 867 118 668 c 0
 118 459 119 258 135 64 c 0
 138 24 159 0 200 0 c 2
 574 0 l 2
 615 0 638 23 638 64 c 2
 638 548 l 2
 638 580 640 582 672 582 c 2
 823 582 l 1
 823 768 l 1
EndSplineSet
EndChar

StartChar: afii10049
Encoding: 1071 1071 161
Width: 1680
VWidth: 0
Flags: HW
LayerCount: 2
Fore
SplineSet
829 64 m 2
 829 515 l 2
 829 547 829 549 797 549 c 2
 743 549 l 2
 711 549 692 530 692 498 c 1
 632 64 l 1
 632 23 609 0 568 0 c 2
 183 0 l 2
 142 0 113 23 118 64 c 2
 172 475 l 2
 184 569 229 665 339 695 c 1
 218 740 186 839 186 1007 c 0
 186 1271 329 1349 573 1349 c 2
 1281 1349 l 2
 1322 1349 1342 1324 1346 1285 c 0
 1364 1108 1365 877 1365 651 c 0
 1365 433 1360 219 1346 66 c 0
 1343 27 1326 0 1285 0 c 2
 893 0 l 2
 852 0 829 23 829 64 c 2
829 1115 m 2
 829 1147 827 1149 795 1149 c 2
 733 1149 l 2
 701 1149 683 1130 683 1098 c 2
 683 796 l 2
 683 764 701 745 733 745 c 2
 797 745 l 2
 829 745 829 747 829 779 c 2
 829 1115 l 2
EndSplineSet
EndChar

StartChar: afii10050
Encoding: 1168 1168 162
Width: 1313
VWidth: 0
Flags: HW
LayerCount: 2
Fore
SplineSet
810 64 m 0
 822 224 827 475 827 712 c 0
 827 874 825 1014 819 1122 c 1
 1097 1122 l 2
 1138 1122 1162 1145 1162 1186 c 2
 1162 1285 l 2
 1162 1326 1138 1349 1097 1349 c 2
 354 1349 l 2
 313 1349 291 1326 290 1285 c 0
 288 1238 281 1043 281 712 c 0
 281 449 288 182 299 64 c 0
 302 25 322 0 363 0 c 2
 745 0 l 2
 786 0 807 24 810 64 c 0
EndSplineSet
EndChar

StartChar: afii10052
Encoding: 1027 1027 164
Width: 1313
VWidth: 0
Flags: HW
LayerCount: 2
Fore
SplineSet
810 64 m 0
 822 224 827 475 827 712 c 0
 827 874 825 1014 819 1122 c 1
 1097 1122 l 2
 1138 1122 1162 1145 1162 1186 c 2
 1162 1285 l 2
 1162 1326 1138 1349 1097 1349 c 2
 354 1349 l 2
 313 1349 291 1326 290 1285 c 0
 288 1238 281 1043 281 712 c 0
 281 449 288 182 299 64 c 0
 302 25 322 0 363 0 c 2
 745 0 l 2
 786 0 807 24 810 64 c 0
EndSplineSet
EndChar

StartChar: afii10053
Encoding: 1028 1028 165
Width: 1692
VWidth: 0
Flags: HW
LayerCount: 2
Fore
SplineSet
830 413 m 0
 827 267 814 266 733 266 c 2
 702 266 l 2
 623 266 616 266 615 581 c 1
 863 581 l 2
 903 581 927 605 927 645 c 2
 927 706 l 2
 927 746 903 771 863 771 c 2
 615 771 l 1
 616 1083 623 1085 702 1085 c 2
 733 1085 l 2
 815 1085 828 1082 830 929 c 0
 830 888 850 865 889 865 c 2
 1260 865 l 2
 1296 865 1314 895 1314 939 c 1
 1290 1360 1137 1380 713 1380 c 0
 205 1380 89 1326 89 681 c 0
 89 16 188 -33 713 -33 c 0
 1158 -33 1294 -11 1314 419 c 1
 1314 456 1297 482 1263 482 c 2
 883 482 l 2
 850 482 830 454 830 413 c 0
EndSplineSet
EndChar

StartChar: afii10055
Encoding: 1030 1030 167
Width: 926
VWidth: 0
Flags: HW
LayerCount: 2
Fore
SplineSet
392 1349 m 0
EndSplineSet
Refer: 42 73 N 1 0 0 1 0 0 2
EndChar

StartChar: afii10058
Encoding: 1033 1033 170
Width: 2534
VWidth: 0
Flags: HW
LayerCount: 2
Fore
SplineSet
1415 580 m 1
 1417 592 1421 598 1429 598 c 2
 1509 598 l 2
 1541 598 1559 580 1559 548 c 2
 1559 248 l 2
 1559 216 1541 197 1509 197 c 2
 1429 197 l 2
 1419 197 1413 206 1413 222 c 2
 1415 580 l 1
220 1349 m 2
 179 1349 159 1324 156 1285 c 0
 145 1134 141 1085 141 838 c 0
 141 547 155 467 155 280 c 0
 155 248 136 230 104 230 c 2
 64 230 l 2
 24 230 0 206 0 166 c 2
 0 62 l 2
 0 22 23 -5 63 -10 c 0
 116 -17 168 -21 217 -21 c 0
 475 -21 674 76 674 345 c 2
 675 1130 l 2
 675 1162 677 1164 709 1164 c 2
 843 1164 l 2
 875 1164 877 1162 877 1130 c 2
 877 64 l 2
 877 23 901 0 942 0 c 2
 1541 0 l 2
 1808 0 2071 31 2071 331 c 2
 2071 459 l 2
 2071 768 1804 789 1542 789 c 2
 1464 789 l 1
 1414 789 l 1
 1413 972 1409 1144 1397 1285 c 0
 1393 1325 1373 1349 1332 1349 c 2
 220 1349 l 2
EndSplineSet
EndChar

StartChar: afii10059
Encoding: 1034 1034 171
Width: 2397
VWidth: 0
Flags: HW
LayerCount: 2
Fore
SplineSet
1394 580 m 1
 1393 222 l 2
 1393 206 1399 197 1409 197 c 2
 1488 197 l 2
 1520 197 1539 216 1539 248 c 2
 1539 548 l 2
 1539 580 1520 598 1488 598 c 2
 1409 598 l 2
 1401 598 1396 592 1394 580 c 1
921 1349 m 2
 1312 1349 l 2
 1353 1349 1372 1325 1376 1285 c 0
 1390 1146 1393 973 1394 790 c 1
 1522 789 l 2
 1784 788 2051 768 2051 459 c 2
 2051 331 l 2
 2051 31 1788 0 1521 0 c 2
 1312 0 l 1
 1124 0 l 1
 921 0 l 2
 880 0 857 23 857 64 c 2
 857 548 l 2
 857 580 855 582 823 582 c 2
 689 582 l 2
 657 582 655 580 655 548 c 2
 655 64 l 2
 655 23 632 0 591 0 c 2
 200 0 l 2
 159 0 138 24 135 64 c 0
 119 258 118 459 118 668 c 0
 118 867 118 1073 135 1285 c 0
 138 1324 159 1349 200 1349 c 2
 591 1349 l 2
 632 1349 655 1326 655 1285 c 2
 655 804 l 2
 655 772 657 768 689 768 c 2
 823 768 l 2
 855 768 857 772 857 804 c 2
 857 1285 l 2
 857 1326 880 1349 921 1349 c 2
EndSplineSet
EndChar

StartChar: afii10067
Encoding: 1074 1074 177
Width: 1666
VWidth: 0
Flags: HW
LayerCount: 2
Fore
SplineSet
821 0 m 2
 1124 0 1245 62 1245 317 c 0
 1245 446 1215 561 976 604 c 1
 1185 629 1213 704 1213 842 c 0
 1213 1071 1027 1101 825 1101 c 2
 204 1101 l 2
 167 1101 148 1082 145 1049 c 0
 132 898 125 732 125 564 c 0
 125 396 132 223 145 52 c 0
 148 21 167 0 204 0 c 2
 821 0 l 2
646 624 m 2
 616 624 615 626 615 652 c 2
 615 857 l 2
 615 883 616 885 646 885 c 2
 724 885 l 2
 754 885 771 869 771 843 c 2
 771 666 l 2
 771 640 754 624 724 624 c 2
 646 624 l 2
646 217 m 2
 616 217 615 219 615 245 c 2
 615 490 l 2
 615 516 616 518 646 518 c 2
 724 518 l 2
 754 518 771 502 771 476 c 2
 771 259 l 2
 771 233 754 217 724 217 c 2
 646 217 l 2
EndSplineSet
EndChar

StartChar: afii10068
Encoding: 1075 1075 178
Width: 1313
VWidth: 0
Flags: HW
LayerCount: 2
Fore
SplineSet
774 52 m 0
 785 182 790 388 790 581 c 0
 790 713 788 827 783 915 c 1
 1039 915 l 2
 1076 915 1097 935 1097 968 c 2
 1097 1049 l 2
 1097 1082 1076 1101 1039 1101 c 2
 355 1101 l 2
 318 1101 298 1082 296 1049 c 0
 294 1011 288 851 288 581 c 0
 288 366 294 148 304 52 c 0
 307 20 326 0 363 0 c 2
 715 0 l 2
 752 0 771 20 774 52 c 0
556 1100 m 0
EndSplineSet
EndChar

StartChar: afii10069
Encoding: 1076 1076 179
Width: 1788
VWidth: 0
Flags: HW
LayerCount: 2
Fore
SplineSet
317 1101 m 2
 280 1101 261 1081 258 1049 c 1
 223 821 178 483 137 173 c 1
 33 173 l 2
 -4 173 -22 151 -26 120 c 1
 -28 70 -29 19 -29 -32 c 0
 -29 -73 -28 -115 -26 -156 c 1
 -21 -188 -4 -208 33 -208 c 2
 344 -208 l 2
 381 -208 404 -189 404 -156 c 2
 404 -28 l 2
 404 -2 405 0 435 0 c 2
 994 0 l 2
 1024 0 1025 -2 1025 -28 c 2
 1025 -156 l 2
 1025 -189 1048 -208 1085 -208 c 2
 1398 -208 l 2
 1435 -208 1451 -189 1457 -156 c 1
 1460 -120 1461 -73 1461 -26 c 0
 1461 27 1460 80 1457 120 c 1
 1450 152 1435 173 1398 173 c 2
 1294 173 l 1
 1302 291 1302 424 1302 559 c 0
 1302 738 1302 915 1286 1049 c 0
 1282 1081 1264 1101 1227 1101 c 2
 317 1101 l 2
609 186 m 1
 692 922 l 2
 695 948 692 949 722 949 c 2
 792 949 l 2
 822 949 823 948 823 922 c 2
 823 186 l 1
 609 186 l 1
EndSplineSet
EndChar

StartChar: afii10070
Encoding: 1077 1077 180
Width: 1513
VWidth: 0
Flags: HW
LayerCount: 2
Fore
SplineSet
640 1100 m 0
EndSplineSet
Refer: 269 101 N 1 0 0 1 0 0 2
EndChar

StartChar: afii10073
Encoding: 1079 1079 183
Width: 1436
VWidth: 0
Flags: HW
LayerCount: 2
Fore
SplineSet
105 764 m 0
 105 754 105 744 105 734 c 0
 106 716 118 706 138 706 c 2
 478 706 l 2
 515 706 537 725 537 758 c 2
 537 898 l 2
 537 924 554 939 583 939 c 2
 624 939 l 2
 653 939 671 924 671 898 c 2
 671 683 l 2
 671 657 653 642 624 642 c 2
 528 642 l 2
 491 642 469 623 469 590 c 2
 469 540 l 2
 469 507 491 487 528 487 c 2
 624 487 l 2
 653 487 671 472 671 446 c 2
 671 203 l 2
 671 177 653 161 624 161 c 2
 583 161 l 2
 554 161 537 177 537 203 c 2
 537 370 l 2
 537 403 515 422 478 422 c 2
 143 422 l 2
 121 422 106 410 105 390 c 0
 104 379 104 367 104 356 c 0
 104 97 259 -28 606 -28 c 0
 913 -28 1112 54 1112 360 c 0
 1112 442 1074 509 996 548 c 0
 975 558 975 573 996 584 c 0
 1066 621 1110 682 1110 768 c 0
 1110 1039 941 1126 604 1126 c 0
 276 1126 105 1037 105 764 c 0
607 1100 m 0
607 0 m 0
EndSplineSet
EndChar

StartChar: afii10074
Encoding: 1080 1080 184
Width: 1715
VWidth: 0
Flags: HW
LayerCount: 2
Fore
SplineSet
201 0 m 2
 164 0 144 19 142 52 c 0
 132 241 125 394 125 572 c 0
 125 724 129 902 142 1049 c 0
 145 1081 164 1101 201 1101 c 2
 429 1101 l 2
 466 1101 488 1082 488 1049 c 2
 488 618 l 2
 488 609 493 603 498 603 c 0
 502 603 506 606 510 612 c 2
 794 1056 l 2
 813 1086 842 1101 882 1101 c 2
 1167 1101 l 2
 1204 1101 1223 1082 1226 1049 c 0
 1237 892 1242 730 1242 564 c 0
 1242 398 1237 227 1226 52 c 0
 1223 19 1204 0 1167 0 c 2
 936 0 l 2
 899 0 877 19 877 52 c 2
 877 449 l 2
 877 458 872 464 867 464 c 0
 863 464 858 461 854 455 c 2
 591 46 l 2
 571 16 543 0 503 0 c 2
 201 0 l 2
726 1100 m 0
EndSplineSet
EndChar

StartChar: afii10076
Encoding: 1082 1082 186
Width: 1725
VWidth: 0
Flags: HW
LayerCount: 2
Fore
SplineSet
1277 0 m 2
 1310 0 1326 21 1312 47 c 2
 1058 545 l 2
 1045 570 1045 595 1058 620 c 2
 1280 1053 l 2
 1294 1079 1278 1101 1245 1101 c 2
 882 1101 l 2
 843 1101 816 1084 802 1052 c 2
 664 727 l 2
 653 702 638 658 630 632 c 2
 619 595 l 2
 616 587 610 584 602 585 c 1
 601 585 l 1
 593 586 587 591 588 599 c 2
 595 686 l 1
 595 1049 l 2
 595 1082 573 1101 536 1101 c 2
 183 1101 l 2
 146 1101 124 1082 124 1049 c 2
 124 52 l 2
 124 19 146 0 183 0 c 2
 536 0 l 2
 573 0 595 19 595 52 c 2
 595 339 l 1
 589 426 l 2
 588 444 596 457 613 466 c 1
 613 467 l 1
 628 475 643 471 649 456 c 2
 820 49 l 2
 834 17 860 0 899 0 c 2
 1277 0 l 2
730 1100 m 0
EndSplineSet
EndChar

StartChar: afii10077
Encoding: 1083 1083 187
Width: 1788
VWidth: 0
Flags: HW
LayerCount: 2
Fore
SplineSet
257 1101 m 2
 220 1101 201 1081 198 1049 c 0
 188 925 185 885 185 684 c 0
 185 446 197 381 197 228 c 0
 197 203 180 188 151 188 c 2
 114 188 l 2
 77 188 55 168 55 135 c 2
 55 51 l 2
 55 18 77 -4 113 -8 c 0
 161 -14 210 -18 255 -18 c 0
 493 -18 675 63 675 282 c 2
 676 922 l 2
 676 948 677 949 707 949 c 2
 831 949 l 2
 861 949 862 948 862 922 c 2
 862 52 l 2
 862 19 884 0 921 0 c 2
 1281 0 l 2
 1318 0 1336 19 1340 52 c 0
 1356 195 1356 378 1356 559 c 0
 1356 738 1356 915 1340 1049 c 0
 1336 1081 1318 1101 1281 1101 c 2
 257 1101 l 2
EndSplineSet
EndChar

StartChar: afii10078
Encoding: 1084 1084 188
Width: 2052
VWidth: 0
Flags: HW
LayerCount: 2
Fore
SplineSet
1161 52 m 1
 1164 19 1187 0 1224 0 c 2
 1445 0 l 2
 1480 0 1502 19 1502 49 c 0
 1502 52 1502 73 1502 114 c 0
 1502 233 1497 525 1450 1049 c 0
 1447 1082 1424 1101 1387 1101 c 2
 975 1101 l 2
 937 1101 913 1082 908 1049 c 2
 827 497 l 2
 827 494 822 491 818 491 c 0
 813 491 810 494 809 497 c 2
 717 1049 l 2
 712 1082 688 1101 650 1101 c 2
 239 1101 l 2
 202 1101 179 1082 176 1049 c 0
 129 545 124 248 124 122 c 0
 124 73 124 49 124 49 c 2
 124 19 146 0 181 0 c 2
 414 0 l 2
 451 0 474 19 477 52 c 1
 497 648 l 1
 617 52 l 2
 623 19 646 0 684 0 c 2
 945 0 l 2
 983 0 1006 19 1013 52 c 2
 1140 648 l 1
 1161 52 l 1
EndSplineSet
EndChar

StartChar: afii10079
Encoding: 1085 1085 189
Width: 1788
VWidth: 0
Flags: HW
LayerCount: 2
Fore
SplineSet
864 1101 m 2
 827 1101 805 1082 805 1049 c 2
 805 656 l 2
 805 630 803 627 773 627 c 2
 650 627 l 2
 620 627 618 630 618 656 c 2
 618 1049 l 2
 618 1082 596 1101 559 1101 c 2
 200 1101 l 2
 163 1101 143 1081 140 1049 c 0
 125 876 125 708 125 546 c 0
 125 375 126 210 140 52 c 0
 143 20 163 0 200 0 c 2
 559 0 l 2
 596 0 618 19 618 52 c 2
 618 448 l 2
 618 474 620 475 650 475 c 2
 773 475 l 2
 803 475 805 474 805 448 c 2
 805 52 l 2
 805 19 827 0 864 0 c 2
 1223 0 l 2
 1260 0 1279 19 1283 52 c 0
 1299 195 1299 378 1299 559 c 0
 1299 738 1299 915 1283 1049 c 0
 1279 1081 1260 1101 1223 1101 c 2
 864 1101 l 2
EndSplineSet
EndChar

StartChar: afii10081
Encoding: 1087 1087 191
Width: 1788
VWidth: 0
Flags: HW
LayerCount: 2
Fore
SplineSet
200 1101 m 2
 163 1101 143 1081 140 1049 c 0
 125 876 125 708 125 546 c 0
 125 375 126 210 140 52 c 0
 143 20 163 0 200 0 c 2
 559 0 l 2
 596 0 618 19 618 52 c 2
 618 922 l 2
 618 948 620 949 650 949 c 2
 773 949 l 2
 803 949 805 948 805 922 c 2
 805 52 l 2
 805 19 827 0 864 0 c 2
 1223 0 l 2
 1260 0 1279 19 1283 52 c 0
 1299 195 1299 378 1299 559 c 0
 1299 738 1299 915 1283 1049 c 0
 1279 1081 1260 1101 1223 1101 c 2
 200 1101 l 2
EndSplineSet
EndChar

StartChar: afii10084
Encoding: 1090 1090 194
Width: 1313
VWidth: 0
Flags: HW
LayerCount: 2
Fore
SplineSet
774 52 m 0
 785 182 790 388 790 581 c 0
 790 713 788 827 783 915 c 1
 992 915 l 2
 1029 915 1051 935 1051 968 c 2
 1051 1049 l 2
 1051 1082 1029 1101 992 1101 c 2
 88 1101 l 2
 51 1101 29 1082 29 1049 c 2
 29 968 l 2
 29 935 51 915 88 915 c 2
 294 915 l 1
 289 830 288 711 288 581 c 0
 288 366 294 148 304 52 c 0
 307 20 326 0 363 0 c 2
 715 0 l 2
 752 0 771 20 774 52 c 0
EndSplineSet
EndChar

StartChar: afii10085
Encoding: 1091 1091 195
Width: 1342
VWidth: 0
Flags: HW
LayerCount: 2
Fore
SplineSet
568 1100 m 0
EndSplineSet
Refer: 487 121 N 1 0 0 1 0 0 2
EndChar

StartChar: afii10086
Encoding: 1092 1092 196
Width: 2336
VWidth: 0
Flags: HW
LayerCount: 2
Fore
SplineSet
840 1101 m 2
 803 1101 786 1081 781 1049 c 0
 778 1031 776 1002 773 966 c 1
 730 966 l 2
 262 966 156 986 156 554 c 0
 156 109 248 133 730 133 c 2
 775 133 l 1
 777 101 778 73 781 52 c 0
 784 20 803 0 840 0 c 2
 1110 0 l 2
 1147 0 1166 20 1169 52 c 0
 1171 77 1173 104 1175 133 c 1
 1222 133 l 2
 1704 133 1797 109 1797 554 c 0
 1797 986 1690 966 1222 966 c 2
 1176 966 l 1
 1174 998 1172 1026 1169 1049 c 0
 1165 1081 1147 1101 1110 1101 c 2
 840 1101 l 2
767 333 m 1
 679 334 l 2
 599 334 600 336 600 550 c 0
 600 769 599 768 679 768 c 2
 766 768 l 1
 765 709 765 645 765 581 c 0
 765 496 765 411 767 333 c 1
1183 333 m 1
 1185 413 1185 498 1185 581 c 0
 1185 645 1185 709 1184 768 c 1
 1273 768 l 2
 1353 768 1353 769 1353 550 c 0
 1353 336 1353 334 1273 334 c 2
 1183 333 l 1
EndSplineSet
EndChar

StartChar: afii10088
Encoding: 1094 1094 198
Width: 1788
VWidth: 0
Flags: HW
LayerCount: 2
Fore
SplineSet
1224 0 m 2
 1261 0 1280 20 1283 52 c 0
 1298 225 1299 394 1299 556 c 0
 1299 727 1297 891 1283 1049 c 0
 1280 1081 1261 1101 1224 1101 c 2
 865 1101 l 2
 828 1101 805 1082 805 1049 c 2
 805 179 l 2
 805 153 804 152 774 152 c 2
 651 152 l 2
 621 152 619 153 619 179 c 2
 619 1049 l 2
 619 1082 597 1101 560 1101 c 2
 201 1101 l 2
 164 1101 145 1082 141 1049 c 0
 125 906 125 723 125 542 c 0
 125 363 125 186 141 52 c 0
 145 20 164 0 201 0 c 2
 1224 0 l 2
EndSplineSet
EndChar

StartChar: afii10090
Encoding: 1096 1096 200
Width: 1788
VWidth: 0
Flags: HW
LayerCount: 2
Fore
SplineSet
1224 0 m 2
 1261 0 1280 20 1283 52 c 0
 1298 225 1299 394 1299 556 c 0
 1299 727 1297 891 1283 1049 c 0
 1280 1081 1261 1101 1224 1101 c 2
 865 1101 l 2
 828 1101 805 1082 805 1049 c 2
 805 179 l 2
 805 153 804 152 774 152 c 2
 651 152 l 2
 621 152 619 153 619 179 c 2
 619 1049 l 2
 619 1082 597 1101 560 1101 c 2
 201 1101 l 2
 164 1101 145 1082 141 1049 c 0
 125 906 125 723 125 542 c 0
 125 363 125 186 141 52 c 0
 145 20 164 0 201 0 c 2
 1224 0 l 2
EndSplineSet
EndChar

StartChar: afii10091
Encoding: 1097 1097 201
Width: 1788
VWidth: 0
Flags: HW
LayerCount: 2
Fore
SplineSet
1224 0 m 2
 1261 0 1280 20 1283 52 c 0
 1298 225 1299 394 1299 556 c 0
 1299 727 1297 891 1283 1049 c 0
 1280 1081 1261 1101 1224 1101 c 2
 865 1101 l 2
 828 1101 805 1082 805 1049 c 2
 805 179 l 2
 805 153 804 152 774 152 c 2
 651 152 l 2
 621 152 619 153 619 179 c 2
 619 1049 l 2
 619 1082 597 1101 560 1101 c 2
 201 1101 l 2
 164 1101 145 1082 141 1049 c 0
 125 906 125 723 125 542 c 0
 125 363 125 186 141 52 c 0
 145 20 164 0 201 0 c 2
 1224 0 l 2
EndSplineSet
EndChar

StartChar: afii10092
Encoding: 1098 1098 202
Width: 1550
VWidth: 0
Flags: HW
LayerCount: 2
Fore
SplineSet
608 181 m 2
 608 168 617 161 631 161 c 2
 696 161 l 2
 725 161 743 177 743 202 c 2
 743 481 l 2
 743 506 725 523 696 523 c 2
 631 523 l 2
 617 523 608 516 608 503 c 2
 608 181 l 2
139 1049 m 2
 139 1082 161 1101 198 1101 c 2
 550 1101 l 2
 587 1101 609 1082 609 1049 c 2
 609 692 l 2
 609 684 618 678 632 678 c 2
 728 678 l 2
 969 678 1214 661 1214 409 c 2
 1214 270 l 2
 1214 25 973 0 727 0 c 2
 198 0 l 2
 161 0 139 19 139 52 c 2
 139 1049 l 2
EndSplineSet
EndChar

StartChar: afii10093
Encoding: 1099 1099 203
Width: 1550
VWidth: 0
Flags: HW
LayerCount: 2
Fore
SplineSet
608 181 m 2
 608 168 617 161 631 161 c 2
 696 161 l 2
 725 161 743 177 743 202 c 2
 743 481 l 2
 743 506 725 523 696 523 c 2
 631 523 l 2
 617 523 608 516 608 503 c 2
 608 181 l 2
139 1049 m 2
 139 1082 161 1101 198 1101 c 2
 550 1101 l 2
 587 1101 609 1082 609 1049 c 2
 609 692 l 2
 609 684 618 678 632 678 c 2
 728 678 l 2
 969 678 1214 661 1214 409 c 2
 1214 270 l 2
 1214 25 973 0 727 0 c 2
 198 0 l 2
 161 0 139 19 139 52 c 2
 139 1049 l 2
EndSplineSet
EndChar

StartChar: afii10094
Encoding: 1100 1100 204
Width: 1550
VWidth: 0
Flags: HW
LayerCount: 2
Fore
SplineSet
608 181 m 2
 608 168 617 161 631 161 c 2
 696 161 l 2
 725 161 743 177 743 202 c 2
 743 481 l 2
 743 506 725 523 696 523 c 2
 631 523 l 2
 617 523 608 516 608 503 c 2
 608 181 l 2
139 1049 m 2
 139 1082 161 1101 198 1101 c 2
 550 1101 l 2
 587 1101 609 1082 609 1049 c 2
 609 692 l 2
 609 684 618 678 632 678 c 2
 728 678 l 2
 969 678 1214 661 1214 409 c 2
 1214 270 l 2
 1214 25 973 0 727 0 c 2
 198 0 l 2
 161 0 139 19 139 52 c 2
 139 1049 l 2
EndSplineSet
EndChar

StartChar: afii10095
Encoding: 1101 1101 205
Width: 1692
VWidth: 0
Flags: HW
LayerCount: 2
Fore
SplineSet
584 337 m 0
 586 218 599 218 673 218 c 2
 701 218 l 2
 774 218 781 217 782 474 c 1
 554 474 l 2
 517 474 494 495 494 527 c 2
 494 577 l 2
 494 609 517 629 554 629 c 2
 782 629 l 1
 781 884 774 885 701 885 c 2
 673 885 l 2
 598 885 586 883 584 758 c 0
 584 725 565 706 529 706 c 2
 189 706 l 2
 156 706 139 730 139 766 c 1
 161 1109 301 1126 691 1126 c 0
 1159 1126 1266 1083 1266 556 c 0
 1266 13 1174 -27 691 -27 c 0
 281 -27 158 -9 139 342 c 1
 139 372 154 394 185 394 c 2
 535 394 l 2
 565 394 584 370 584 337 c 0
EndSplineSet
EndChar

StartChar: afii10096
Encoding: 1102 1102 206
Width: 2452
VWidth: 0
Flags: HW
LayerCount: 2
Fore
SplineSet
761 475 m 1
 770 9 869 -27 1295 -27 c 0
 1732 -27 1836 15 1836 558 c 0
 1836 1086 1710 1126 1295 1126 c 0
 880 1126 770 1086 761 627 c 1
 634 627 l 2
 604 627 603 630 603 656 c 2
 603 1049 l 2
 603 1082 581 1101 544 1101 c 2
 200 1101 l 2
 163 1101 143 1081 140 1049 c 0
 125 876 125 708 125 546 c 0
 125 375 126 210 140 52 c 0
 143 20 163 0 200 0 c 2
 544 0 l 2
 581 0 603 19 603 52 c 2
 603 448 l 2
 603 474 604 475 634 475 c 2
 761 475 l 1
1285 217 m 2
 1205 217 1206 218 1206 550 c 0
 1206 884 1205 885 1285 885 c 2
 1314 885 l 2
 1402 885 1404 886 1404 552 c 0
 1404 218 1402 217 1314 217 c 2
 1285 217 l 2
EndSplineSet
EndChar

StartChar: afii10097
Encoding: 1103 1103 207
Width: 1680
VWidth: 0
Flags: HW
LayerCount: 2
Fore
SplineSet
834 52 m 2
 834 420 l 2
 834 446 835 448 805 448 c 2
 755 448 l 2
 725 448 708 433 708 407 c 1
 653 52 l 1
 653 19 631 0 594 0 c 2
 239 0 l 2
 202 0 175 19 180 52 c 2
 229 388 l 2
 240 465 281 542 383 567 c 1
 271 603 243 684 243 821 c 0
 243 1037 373 1101 598 1101 c 2
 1250 1101 l 2
 1287 1101 1306 1081 1310 1049 c 0
 1326 904 1327 715 1327 531 c 0
 1327 352 1323 179 1310 54 c 0
 1307 22 1291 0 1254 0 c 2
 893 0 l 2
 856 0 834 19 834 52 c 2
834 909 m 2
 834 935 833 937 803 937 c 2
 746 937 l 2
 716 937 700 922 700 896 c 2
 700 650 l 2
 700 624 716 608 746 608 c 2
 805 608 l 2
 835 608 834 610 834 636 c 2
 834 909 l 2
EndSplineSet
EndChar

StartChar: afii10101
Encoding: 1108 1108 211
Width: 1692
VWidth: 0
Flags: HW
LayerCount: 2
Fore
SplineSet
821 337 m 0
 819 218 805 218 731 218 c 2
 703 218 l 2
 630 218 624 217 623 474 c 1
 851 474 l 2
 888 474 910 495 910 527 c 2
 910 577 l 2
 910 609 888 629 851 629 c 2
 623 629 l 1
 624 884 630 885 703 885 c 2
 731 885 l 2
 806 885 819 883 821 758 c 0
 821 725 839 706 875 706 c 2
 1216 706 l 2
 1249 706 1266 730 1266 766 c 1
 1244 1109 1103 1126 713 1126 c 0
 245 1126 139 1083 139 556 c 0
 139 13 230 -27 713 -27 c 0
 1123 -27 1247 -9 1266 342 c 1
 1266 372 1250 394 1219 394 c 2
 870 394 l 2
 840 394 821 370 821 337 c 0
EndSplineSet
EndChar

StartChar: afii10103
Encoding: 1110 1110 213
Width: 759
VWidth: 0
Flags: HW
LayerCount: 2
Fore
SplineSet
321 1100 m 0
EndSplineSet
Refer: 305 105 N 1 0 0 1 0 0 2
EndChar

StartChar: ampersand
Encoding: 38 38 226
Width: 1653
VWidth: 0
Flags: HW
LayerCount: 2
Fore
SplineSet
304 711 m 2
 304 701 298 695 288 694 c 2
 209 684 l 2
 107 672 72 482 72 386 c 0
 72 14 305 -34 648 -34 c 0
 1110 -34 1220 63 1220 434 c 2
 1220 572 l 2
 1220 604 1238 623 1270 623 c 2
 1285 623 l 2
 1324 623 1348 647 1348 686 c 2
 1348 723 l 2
 1348 762 1324 786 1285 786 c 2
 1270 786 l 2
 1238 786 1220 804 1220 836 c 2
 1220 846 l 2
 1220 882 1198 904 1162 904 c 2
 816 904 l 2
 780 904 758 882 758 846 c 2
 758 836 l 2
 758 804 740 786 708 786 c 2
 632 786 l 2
 600 786 581 804 581 836 c 2
 581 1127 l 2
 581 1159 600 1178 632 1178 c 2
 705 1178 l 2
 737 1178 755 1159 755 1127 c 2
 755 1066 l 2
 755 1026 780 1002 820 1002 c 2
 1195 1002 l 2
 1208 1002 1218 1011 1219 1024 c 0
 1220 1032 1220 1039 1220 1047 c 0
 1220 1287 1032 1381 682 1381 c 0
 383 1381 71 1349 71 1014 c 0
 71 811 152 745 209 739 c 2
 288 730 l 2
 298 729 304 723 304 713 c 2
 304 711 l 2
632 190 m 2
 600 190 581 208 581 240 c 2
 581 572 l 2
 581 604 600 623 632 623 c 2
 708 623 l 2
 740 623 758 604 758 572 c 2
 758 240 l 2
 758 208 740 190 708 190 c 2
 632 190 l 2
EndSplineSet
EndChar

StartChar: asciicircum
Encoding: 94 94 229
Width: 1222
VWidth: 0
Flags: HW
LayerCount: 2
Fore
SplineSet
333 572 m 2
 290 572 260 552 243 513 c 2
 65 110 l 2
 51 77 67 52 103 52 c 2
 381 52 l 2
 423 52 450 73 461 114 c 2
 503 274 l 2
 508 293 524 293 529 274 c 2
 573 114 l 2
 584 74 613 52 655 52 c 2
 933 52 l 2
 969 52 986 78 971 110 c 2
 785 514 l 2
 767 553 737 572 694 572 c 2
 333 572 l 2
EndSplineSet
EndChar

StartChar: asciitilde
Encoding: 126 126 230
Width: 1424
VWidth: 0
Flags: HW
LayerCount: 2
Fore
SplineSet
1082 543 m 2
 1122 543 1146 567 1145 607 c 0
 1139 864 1091 1016 853 1016 c 0
 638 1016 567 853 407 853 c 0
 356 853 330 886 319 931 c 0
 307 978 287 995 238 995 c 2
 124 995 l 2
 85 995 61 970 63 931 c 0
 73 711 140 521 406 521 c 0
 605 521 664 682 804 682 c 0
 850 682 875 650 887 607 c 0
 900 559 920 543 970 543 c 2
 1082 543 l 2
EndSplineSet
EndChar

StartChar: asterisk
Encoding: 42 42 231
Width: 1321
VWidth: 0
Flags: HW
LayerCount: 2
Fore
SplineSet
742 364 m 0
 810 364 883 423 883 492 c 0
 883 550 796 629 692 726 c 0
 678 739 686 752 704 747 c 0
 804 719 904 691 954 691 c 0
 1027 691 1061 752 1061 814 c 0
 1061 877 1024 941 954 941 c 0
 902 941 803 912 704 883 c 0
 686 878 679 891 692 904 c 0
 799 1007 884 1085 884 1143 c 0
 884 1210 810 1266 742 1266 c 0
 707 1266 675 1252 655 1218 c 0
 627 1171 601 1066 574 962 c 0
 569 944 553 944 548 963 c 0
 522 1067 496 1171 468 1218 c 0
 448 1252 415 1266 381 1266 c 0
 312 1266 239 1211 239 1143 c 0
 239 1085 322 1007 430 904 c 0
 443 891 436 878 418 883 c 0
 319 912 220 941 168 941 c 0
 98 941 62 877 62 814 c 0
 62 752 96 691 168 691 c 0
 218 691 318 719 418 747 c 0
 436 752 443 739 429 726 c 0
 324 629 239 550 239 492 c 0
 239 425 312 364 381 364 c 0
 476 364 501 484 548 662 c 0
 553 681 569 681 574 662 c 0
 602 560 630 458 656 414 c 0
 677 378 709 364 742 364 c 0
EndSplineSet
EndChar

StartChar: at
Encoding: 64 64 232
Width: 2198
VWidth: 0
Flags: HW
LayerCount: 2
Fore
SplineSet
955 542 m 2
 979 542 993 528 993 504 c 2
 993 323 l 2
 993 299 979 284 955 284 c 2
 953 284 l 2
 929 284 915 299 915 323 c 2
 915 504 l 2
 915 528 929 542 953 542 c 2
 955 542 l 2
1805 743 m 0
 1805 1276 1556 1473 971 1473 c 0
 372 1473 63 1265 63 581 c 0
 63 -150 360 -332 1049 -332 c 0
 1196 -332 1331 -288 1436 -230 c 0
 1471 -211 1486 -176 1477 -138 c 2
 1456 -44 l 2
 1447 -5 1418 13 1379 4 c 0
 1201 -37 1110 -49 1034 -49 c 0
 498 -49 362 49 362 585 c 0
 362 1018 478 1205 975 1205 c 0
 1343 1205 1503 1133 1503 704 c 2
 1503 330 l 2
 1503 298 1485 279 1453 279 c 2
 1410 279 l 2
 1378 279 1360 298 1360 330 c 2
 1360 708 l 2
 1360 969 1266 1056 963 1056 c 0
 726 1056 561 1019 561 809 c 0
 561 799 561 789 561 779 c 0
 561 761 572 750 590 750 c 2
 888 750 l 2
 923 750 944 772 944 807 c 2
 944 841 l 2
 944 856 953 865 968 865 c 2
 970 865 l 2
 985 865 994 856 994 841 c 2
 994 721 l 2
 994 691 978 678 949 688 c 0
 910 701 862 707 804 707 c 0
 599 707 518 619 518 417 c 0
 518 392 518 368 519 343 c 0
 525 169 620 96 804 96 c 0
 882 96 940 126 983 165 c 0
 1008 188 1023 188 1047 164 c 0
 1094 117 1163 89 1250 79 c 0
 1270 77 1324 74 1348 75 c 0
 1735 89 1805 357 1805 743 c 0
EndSplineSet
EndChar

StartChar: b
Encoding: 98 98 234
Width: 1563
VWidth: 0
Flags: HW
LayerCount: 2
Fore
SplineSet
655 168 m 2
 623 168 604 187 604 219 c 2
 604 884 l 2
 604 916 623 935 655 935 c 2
 695 935 l 2
 727 935 741 912 745 884 c 0
 758 799 764 680 764 557 c 0
 764 438 758 315 745 219 c 0
 741 189 727 168 695 168 c 2
 655 168 l 2
1244 550 m 0
 1244 619 1239 693 1228 795 c 0
 1204 1016 1106 1123 878 1123 c 0
 776 1123 697 1103 641 1062 c 0
 634 1057 628 1055 623 1055 c 0
 612 1055 604 1064 604 1081 c 2
 604 1382 l 2
 604 1423 581 1447 540 1447 c 2
 185 1447 l 2
 144 1447 123 1422 121 1382 c 0
 116 1233 108 951 108 650 c 0
 108 452 112 245 121 64 c 0
 123 24 144 0 185 0 c 2
 511 0 l 2
 544 0 566 16 576 47 c 1
 576 46 l 1
 581 62 590 70 601 70 c 0
 609 70 617 67 625 59 c 0
 683 7 775 -23 876 -23 c 0
 1111 -23 1202 92 1228 319 c 0
 1239 411 1244 479 1244 550 c 0
EndSplineSet
EndChar

StartChar: backslash
Encoding: 92 92 235
Width: 1053
VWidth: 0
Flags: HW
LayerCount: 2
Fore
SplineSet
160 1349 m 2
 122 1349 101 1324 109 1287 c 2
 379 63 l 2
 388 22 415 0 457 0 c 2
 730 0 l 2
 768 0 789 26 781 63 c 2
 510 1287 l 2
 501 1328 474 1349 432 1349 c 2
 160 1349 l 2
EndSplineSet
EndChar

StartChar: bar
Encoding: 124 124 236
Width: 831
VWidth: 0
Flags: HW
LayerCount: 2
Fore
SplineSet
173 1519 m 2
 133 1519 109 1494 109 1454 c 2
 109 -20 l 2
 109 -60 133 -85 173 -85 c 2
 528 -85 l 2
 568 -85 592 -60 592 -20 c 2
 592 1454 l 2
 592 1494 568 1519 528 1519 c 2
 173 1519 l 2
EndSplineSet
EndChar

StartChar: braceleft
Encoding: 123 123 237
Width: 1132
VWidth: 0
Flags: HW
LayerCount: 2
Fore
SplineSet
232 1039 m 0
 219 941 227 834 135 802 c 0
 85 785 72 766 72 713 c 2
 72 637 l 2
 72 583 84 565 135 547 c 0
 228 514 219 402 231 310 c 1
 261 -118 454 -265 867 -278 c 0
 906 -279 931 -255 931 -216 c 2
 931 -112 l 2
 931 -68 911 -45 867 -39 c 0
 506 7 710 460 553 640 c 0
 529 668 529 681 552 709 c 0
 711 904 505 1344 866 1389 c 0
 910 1394 931 1417 931 1461 c 2
 931 1565 l 2
 931 1604 905 1629 866 1628 c 0
 457 1614 288 1461 232 1039 c 0
EndSplineSet
EndChar

StartChar: braceright
Encoding: 125 125 238
Width: 1131
VWidth: 0
Flags: HW
LayerCount: 2
Fore
SplineSet
429 708 m 0
 452 680 452 668 428 641 c 0
 270 462 475 7 113 -39 c 0
 69 -45 49 -68 49 -112 c 2
 49 -216 l 2
 49 -255 74 -279 113 -278 c 0
 526 -265 720 -118 750 310 c 1
 762 402 752 514 845 547 c 0
 896 565 909 583 909 637 c 2
 909 713 l 2
 909 766 895 785 845 802 c 0
 753 834 762 941 749 1039 c 0
 693 1461 523 1614 114 1628 c 0
 75 1629 50 1604 50 1565 c 2
 50 1461 l 2
 50 1417 70 1394 114 1389 c 0
 476 1344 269 903 429 708 c 0
EndSplineSet
EndChar

StartChar: bracketleft
Encoding: 91 91 239
Width: 1108
VWidth: 0
Flags: HW
LayerCount: 2
Fore
SplineSet
72 -206 m 2
 72 -247 95 -270 136 -270 c 2
 849 -270 l 2
 890 -270 897 -247 897 -206 c 2
 897 -130 l 2
 897 -89 890 -66 849 -66 c 2
 642 -66 l 2
 610 -66 608 -56 608 -24 c 2
 608 1292 l 2
 608 1324 610 1334 642 1334 c 2
 849 1334 l 2
 890 1334 897 1357 897 1398 c 2
 897 1475 l 2
 897 1516 890 1539 849 1539 c 2
 136 1539 l 2
 95 1539 72 1516 72 1475 c 2
 72 -206 l 2
EndSplineSet
EndChar

StartChar: bracketright
Encoding: 93 93 240
Width: 1108
VWidth: 0
Flags: HW
LayerCount: 2
Fore
SplineSet
854 1475 m 2
 854 1515 830 1539 790 1539 c 2
 77 1539 l 2
 36 1539 30 1515 30 1475 c 2
 30 1399 l 2
 30 1359 36 1335 77 1335 c 2
 284 1335 l 2
 316 1335 318 1325 318 1293 c 2
 318 -23 l 2
 318 -55 316 -65 284 -65 c 2
 77 -65 l 2
 36 -65 30 -89 30 -129 c 2
 30 -206 l 2
 30 -246 36 -270 77 -270 c 2
 790 -270 l 2
 830 -270 854 -246 854 -206 c 2
 854 1475 l 2
EndSplineSet
EndChar

StartChar: breve
Encoding: 728 728 241
Width: 1062
VWidth: 0
Flags: HW
LayerCount: 2
Fore
SplineSet
843 1525 m 0
 845 1563 821 1590 783 1590 c 2
 666 1590 l 2
 620 1590 597 1571 590 1526 c 0
 581 1472 552 1439 454 1439 c 0
 356 1439 327 1472 318 1526 c 0
 311 1571 289 1590 243 1590 c 2
 126 1590 l 2
 88 1590 63 1563 65 1525 c 0
 78 1320 161 1183 454 1183 c 0
 747 1183 830 1320 843 1525 c 0
454 1100 m 0
EndSplineSet
EndChar

StartChar: brokenbar
Encoding: 166 166 242
Width: 831
VWidth: 0
Flags: HW
LayerCount: 2
Fore
SplineSet
175 1445 m 2
 135 1445 111 1421 111 1381 c 2
 111 738 l 2
 111 698 135 674 175 674 c 2
 530 674 l 2
 570 674 594 698 594 738 c 2
 594 1381 l 2
 594 1421 570 1445 530 1445 c 2
 175 1445 l 2
175 555 m 2
 135 555 111 531 111 491 c 2
 111 -152 l 2
 111 -192 135 -216 175 -216 c 2
 530 -216 l 2
 570 -216 594 -192 594 -152 c 2
 594 491 l 2
 594 531 570 555 530 555 c 2
 175 555 l 2
EndSplineSet
EndChar

StartChar: bullet
Encoding: 8226 8226 243
Width: 1120
VWidth: 0
Flags: HW
LayerCount: 2
Fore
SplineSet
490 1061 m 0
 180 1061 60 932 60 614 c 0
 60 322 153 165 488 165 c 0
 801 165 891 344 891 614 c 0
 891 910 779 1061 490 1061 c 0
EndSplineSet
EndChar

StartChar: c
Encoding: 99 99 244
Width: 1525
VWidth: 0
Flags: HW
LayerCount: 2
Fore
SplineSet
1202 670 m 0
 1202 715 1196 759 1188 805 c 0
 1132 1093 916 1123 646 1123 c 0
 395 1123 138 1094 97 806 c 0
 84 717 86 628 86 542 c 0
 86 458 84 377 97 299 c 0
 148 -6 376 -23 645 -23 c 0
 903 -23 1129 -10 1188 298 c 0
 1196 343 1201 384 1202 425 c 0
 1202 428 1201 443 1188 443 c 2
 743 443 l 2
 732 443 730 436 730 417 c 2
 730 332 l 2
 730 238 729 197 653 197 c 2
 631 197 l 2
 552 197 552 234 552 331 c 2
 552 808 l 2
 552 908 552 935 631 935 c 2
 653 935 l 2
 730 935 730 905 730 808 c 2
 730 678 l 2
 730 662 735 655 748 655 c 2
 1191 655 l 2
 1201 655 1202 663 1202 670 c 0
645 1100 m 0
645 0 m 0
EndSplineSet
EndChar

StartChar: caron
Encoding: 711 711 246
Width: 954
VWidth: 0
Flags: HW
LayerCount: 2
Fore
SplineSet
404 1194 m 0
 449 1194 496 1212 524 1255 c 2
 746 1601 l 2
 756 1617 761 1631 761 1645 c 0
 761 1676 738 1699 708 1699 c 0
 693 1699 676 1693 660 1680 c 2
 443 1512 l 2
 417 1492 390 1492 364 1512 c 2
 147 1680 l 2
 132 1692 116 1697 102 1697 c 0
 72 1697 46 1676 46 1645 c 0
 46 1632 51 1617 61 1601 c 2
 283 1255 l 2
 309 1214 357 1194 404 1194 c 0
404 1100 m 0
EndSplineSet
EndChar

StartChar: cedilla
Encoding: 184 184 251
Width: 948
VWidth: 0
Flags: HW
LayerCount: 2
Fore
SplineSet
325 -88 m 2
 325 -128 349 -152 389 -152 c 2
 435 -152 l 2
 467 -152 486 -171 486 -203 c 2
 486 -288 l 2
 486 -304 476 -314 460 -314 c 2
 458 -314 l 2
 442 -314 432 -304 432 -288 c 2
 432 -257 l 2
 432 -224 411 -205 378 -209 c 2
 263 -223 l 2
 248 -225 240 -234 240 -249 c 2
 240 -273 l 2
 240 -386 329 -407 455 -407 c 0
 573 -407 669 -389 669 -273 c 2
 669 -193 l 2
 669 -95 605 -64 503 -60 c 0
 484 -59 475 -49 475 -30 c 2
 475 -29 l 2
 475 -11 464 0 446 0 c 2
 389 0 l 2
 349 0 325 -24 325 -64 c 2
 325 -88 l 2
455 0 m 0
EndSplineSet
EndChar

StartChar: cent
Encoding: 162 162 252
Width: 1462
VWidth: 0
Flags: HW
LayerCount: 2
Fore
SplineSet
552 947 m 2
 580 947 597 930 597 902 c 2
 597 360 l 2
 597 332 580 316 552 316 c 2
 551 316 l 2
 523 316 506 332 506 360 c 2
 506 902 l 2
 506 930 523 947 551 947 c 2
 552 947 l 2
813 536 m 2
 773 536 749 511 749 471 c 2
 749 357 l 2
 749 331 733 316 707 316 c 2
 706 316 l 2
 680 316 664 331 664 357 c 2
 664 905 l 2
 664 931 680 947 706 947 c 2
 707 947 l 2
 733 947 749 931 749 905 c 2
 749 810 l 2
 749 770 773 745 813 745 c 2
 1135 745 l 2
 1164 745 1181 762 1181 791 c 2
 1181 839 l 2
 1181 1086 915 1128 714 1135 c 0
 682 1136 664 1155 664 1187 c 2
 664 1302 l 2
 664 1322 652 1335 632 1335 c 2
 630 1335 l 2
 610 1335 597 1322 597 1302 c 2
 597 1187 l 2
 597 1155 579 1136 547 1135 c 0
 321 1129 73 1088 73 820 c 2
 73 448 l 2
 73 178 310 131 547 125 c 0
 579 124 597 105 597 73 c 2
 597 -30 l 2
 597 -50 610 -63 630 -63 c 2
 632 -63 l 2
 652 -63 664 -50 664 -30 c 2
 664 73 l 2
 664 105 683 124 715 125 c 0
 947 131 1181 171 1181 442 c 2
 1181 490 l 2
 1181 519 1164 536 1135 536 c 2
 813 536 l 2
EndSplineSet
EndChar

StartChar: circumflex
Encoding: 710 710 253
Width: 954
VWidth: 0
Flags: HW
LayerCount: 2
Fore
SplineSet
46 1248 m 0
 46 1217 72 1195 102 1195 c 0
 116 1195 132 1200 147 1212 c 2
 364 1380 l 2
 390 1400 417 1400 443 1380 c 2
 660 1212 l 2
 676 1199 693 1194 708 1194 c 0
 738 1194 761 1216 761 1247 c 0
 761 1261 756 1276 746 1292 c 2
 524 1638 l 2
 496 1681 449 1699 404 1699 c 0
 357 1699 309 1679 283 1638 c 2
 61 1292 l 2
 51 1276 46 1261 46 1248 c 0
404 1100 m 0
EndSplineSet
EndChar

StartChar: colon
Encoding: 58 58 254
Width: 691
VWidth: 0
Flags: HW
LayerCount: 2
Fore
SplineSet
292 781 m 0
 378 781 464 841 464 959 c 0
 464 1077 378 1136 292 1136 c 0
 206 1136 119 1077 119 959 c 0
 119 841 206 781 292 781 c 0
292 96 m 0
 378 96 464 155 464 273 c 0
 464 391 378 451 292 451 c 0
 206 451 119 391 119 273 c 0
 119 155 206 96 292 96 c 0
EndSplineSet
EndChar

StartChar: comma
Encoding: 44 44 255
Width: 711
VWidth: 0
Flags: HW
LayerCount: 2
Fore
SplineSet
222 12 m 0
 253 -1 261 -48 236 -70 c 0
 222 -83 204 -91 184 -97 c 0
 150 -107 139 -121 139 -155 c 2
 139 -178 l 2
 139 -189 146 -196 157 -197 c 0
 164 -197 170 -198 176 -198 c 0
 363 -198 470 -13 470 143 c 0
 470 252 414 346 292 346 c 0
 206 346 119 290 119 177 c 0
 119 91 164 36 222 12 c 0
EndSplineSet
EndChar

StartChar: copyright
Encoding: 169 169 256
Width: 1861
VWidth: 0
Flags: HW
LayerCount: 2
Fore
SplineSet
706 983 m 2
 706 1015 725 1034 757 1034 c 2
 824 1034 l 2
 856 1034 875 1015 875 983 c 2
 875 837 l 2
 875 797 899 772 939 772 c 2
 1045 772 l 2
 1085 772 1109 797 1109 837 c 2
 1109 940 l 2
 1109 1156 942 1168 775 1168 c 0
 581 1168 470 1129 470 937 c 2
 470 463 l 2
 470 267 593 230 775 230 c 0
 982 230 1109 264 1109 459 c 2
 1109 569 l 2
 1109 609 1085 634 1045 634 c 2
 939 634 l 2
 899 634 875 609 875 569 c 2
 875 416 l 2
 875 384 856 365 824 365 c 2
 757 365 l 2
 725 365 706 384 706 416 c 2
 706 983 l 2
788 1331 m 0
 1078 1331 1304 1269 1304 986 c 2
 1304 408 l 2
 1304 132 1099 58 788 58 c 0
 442 58 273 143 273 453 c 2
 273 942 l 2
 273 1244 439 1331 788 1331 c 0
1506 456 m 2
 1506 944 l 2
 1506 1362 1219 1480 788 1480 c 0
 414 1480 71 1386 71 944 c 2
 71 456 l 2
 71 36 356 -85 788 -85 c 0
 1164 -85 1506 12 1506 456 c 2
EndSplineSet
EndChar

StartChar: currency
Encoding: 164 164 257
Width: 1390
VWidth: 0
Flags: HW
LayerCount: 2
Fore
SplineSet
539 859 m 2
 539 888 556 905 585 905 c 2
 587 905 l 2
 616 905 634 888 634 859 c 2
 634 529 l 2
 634 500 616 482 587 482 c 2
 585 482 l 2
 556 482 539 500 539 529 c 2
 539 859 l 2
828 279 m 0
 863 288 889 279 913 253 c 2
 967 195 l 2
 987 173 1013 172 1034 194 c 2
 1035 195 l 2
 1056 217 1056 244 1035 266 c 2
 1006 297 l 2
 983 322 984 345 1009 367 c 0
 1087 436 1121 535 1121 680 c 0
 1121 835 1101 936 1029 1009 c 0
 1005 1034 1005 1056 1028 1082 c 2
 1035 1089 l 2
 1056 1112 1055 1138 1034 1160 c 2
 1033 1161 l 2
 1012 1183 986 1182 966 1160 c 2
 937 1128 l 2
 913 1101 888 1095 853 1105 c 0
 778 1127 693 1136 590 1136 c 0
 485 1136 398 1126 323 1104 c 0
 288 1094 263 1101 238 1128 c 2
 208 1161 l 2
 188 1183 163 1183 142 1161 c 2
 141 1160 l 2
 120 1138 119 1113 140 1090 c 2
 148 1081 l 2
 172 1055 172 1032 148 1006 c 0
 79 932 58 826 58 680 c 0
 58 532 88 437 166 369 c 0
 191 347 193 325 170 300 c 2
 139 266 l 2
 118 244 119 218 140 196 c 2
 141 195 l 2
 162 173 187 173 207 195 c 2
 263 256 l 2
 288 283 313 289 348 280 c 0
 417 262 497 254 591 253 c 0
 683 253 759 262 828 279 c 0
EndSplineSet
EndChar

StartChar: d
Encoding: 100 100 258
Width: 1478
VWidth: 0
Flags: HW
LayerCount: 2
Fore
SplineSet
695 219 m 2
 695 187 677 168 645 168 c 2
 605 168 l 2
 573 168 554 187 554 219 c 2
 554 884 l 2
 554 916 573 935 605 935 c 2
 645 935 l 2
 677 935 695 916 695 884 c 2
 695 219 l 2
72 795 m 2
 72 319 l 2
 72 90 190 -23 425 -23 c 0
 526 -23 617 7 675 59 c 0
 696 78 715 73 724 46 c 0
 734 16 757 0 789 0 c 2
 1115 0 l 2
 1155 0 1179 24 1179 64 c 2
 1179 1382 l 2
 1179 1422 1155 1447 1115 1447 c 2
 760 1447 l 2
 720 1447 696 1422 696 1382 c 2
 696 1081 l 2
 696 1056 679 1047 659 1062 c 0
 603 1103 525 1123 423 1123 c 0
 193 1123 72 1017 72 795 c 2
625 550 m 0
EndSplineSet
EndChar

StartChar: dagger
Encoding: 8224 8224 259
Width: 1061
VWidth: 0
Flags: HW
LayerCount: 2
Fore
SplineSet
442 1376 m 0
 363 1376 286 1329 286 1233 c 0
 286 1162 324 1072 367 984 c 0
 377 963 363 949 342 957 c 0
 261 988 187 1014 129 1014 c 0
 63 1014 29 953 29 893 c 0
 29 833 61 774 129 774 c 0
 186 774 258 800 338 830 c 0
 363 840 381 824 376 798 c 0
 328 534 288 305 288 186 c 0
 288 64 365 4 442 4 c 0
 522 4 602 67 602 188 c 0
 602 305 562 523 510 802 c 0
 505 828 523 844 548 834 c 0
 623 805 704 774 767 774 c 0
 834 774 867 834 867 895 c 0
 867 954 834 1014 768 1014 c 0
 703 1014 619 981 541 951 c 0
 520 943 507 958 517 978 c 0
 562 1068 603 1160 603 1233 c 0
 603 1327 522 1376 442 1376 c 0
EndSplineSet
EndChar

StartChar: daggerdbl
Encoding: 8225 8225 260
Width: 1061
VWidth: 0
Flags: HW
LayerCount: 2
Fore
SplineSet
129 569 m 0
 61 569 29 510 29 450 c 0
 29 390 63 329 129 329 c 0
 187 329 261 355 342 386 c 0
 363 394 377 380 367 359 c 0
 324 271 286 182 286 111 c 0
 286 15 363 -33 442 -33 c 0
 522 -33 603 16 603 110 c 0
 603 183 562 275 517 365 c 0
 507 385 520 400 541 392 c 0
 619 362 703 329 768 329 c 0
 834 329 867 389 867 448 c 0
 867 509 834 569 767 569 c 0
 704 569 623 539 548 510 c 0
 521 500 501 514 501 542 c 2
 501 802 l 2
 501 830 521 844 548 834 c 0
 623 805 704 774 767 774 c 0
 834 774 867 834 867 895 c 0
 867 954 834 1014 768 1014 c 0
 703 1014 619 981 541 951 c 0
 520 943 507 958 517 978 c 0
 562 1068 603 1160 603 1233 c 0
 603 1327 522 1376 442 1376 c 0
 363 1376 286 1329 286 1233 c 0
 286 1162 324 1072 367 984 c 0
 377 963 363 949 342 957 c 0
 261 988 187 1014 129 1014 c 0
 63 1014 29 953 29 893 c 0
 29 833 61 774 129 774 c 0
 186 774 258 800 338 830 c 0
 365 840 385 826 385 797 c 2
 385 546 l 2
 385 517 365 504 338 514 c 0
 258 544 186 569 129 569 c 0
EndSplineSet
EndChar

StartChar: dcaron
Encoding: 271 271 261
Width: 1478
VWidth: 0
Flags: HW
LayerCount: 2
Fore
SplineSet
695 219 m 2
 695 187 677 168 645 168 c 2
 605 168 l 2
 573 168 554 187 554 219 c 2
 554 884 l 2
 554 916 573 935 605 935 c 2
 645 935 l 2
 677 935 695 916 695 884 c 2
 695 219 l 2
72 795 m 2
 72 319 l 2
 72 90 190 -23 425 -23 c 0
 526 -23 617 7 675 59 c 0
 696 78 715 73 724 46 c 0
 734 16 757 0 789 0 c 2
 1115 0 l 2
 1155 0 1179 24 1179 64 c 2
 1179 1382 l 2
 1179 1422 1155 1447 1115 1447 c 2
 760 1447 l 2
 720 1447 696 1422 696 1382 c 2
 696 1081 l 2
 696 1056 679 1047 659 1062 c 0
 603 1103 525 1123 423 1123 c 0
 193 1123 72 1017 72 795 c 2
1411 1113 m 0
 1442 1100 1450 1053 1425 1031 c 0
 1411 1018 1393 1010 1373 1004 c 0
 1339 994 1328 980 1328 946 c 2
 1328 922 l 2
 1328 911 1335 904 1346 903 c 0
 1353 903 1359 903 1365 903 c 0
 1552 903 1659 1088 1659 1244 c 0
 1659 1353 1603 1447 1481 1447 c 0
 1395 1447 1309 1390 1309 1277 c 0
 1309 1191 1353 1137 1411 1113 c 0
EndSplineSet
EndChar

StartChar: dcroat
Encoding: 273 273 262
Width: 1478
VWidth: 0
Flags: HW
LayerCount: 2
Fore
SplineSet
695 219 m 2
 695 187 677 168 645 168 c 2
 605 168 l 2
 573 168 554 187 554 219 c 2
 554 884 l 2
 554 916 573 935 605 935 c 2
 645 935 l 2
 677 935 695 916 695 884 c 2
 695 219 l 2
72 795 m 2
 72 319 l 2
 72 90 190 -23 425 -23 c 0
 527 -23 654 15 706 63 c 0
 716 73 717 76 724 47 c 0
 732 10 756 0 789 0 c 2
 1115 0 l 2
 1156 0 1179 23 1179 64 c 2
 1179 1190 l 1
 1203 1190 l 2
 1244 1190 1250 1214 1250 1255 c 2
 1250 1287 l 2
 1250 1328 1244 1351 1203 1351 c 2
 1179 1351 l 1
 1179 1399 l 2
 1179 1440 1156 1447 1115 1447 c 2
 761 1447 l 2
 720 1447 696 1440 696 1399 c 2
 696 1351 l 1
 591 1351 l 2
 550 1351 546 1328 546 1287 c 2
 546 1255 l 2
 546 1214 550 1190 591 1190 c 2
 696 1190 l 1
 696 1081 l 2
 696 1056 696 1039 676 1053 c 0
 620 1094 525 1123 423 1123 c 0
 193 1123 72 1017 72 795 c 2
EndSplineSet
EndChar

StartChar: degree
Encoding: 176 176 263
Width: 812
VWidth: 0
Flags: HW
LayerCount: 2
Fore
SplineSet
342 1034 m 0
 272 1034 222 1086 222 1160 c 0
 222 1234 272 1286 342 1286 c 0
 412 1286 461 1234 461 1160 c 0
 461 1086 412 1034 342 1034 c 0
342 905 m 0
 518 905 622 1031 622 1160 c 0
 622 1289 518 1415 342 1415 c 0
 166 1415 62 1289 62 1160 c 0
 62 1031 166 905 342 905 c 0
EndSplineSet
EndChar

StartChar: dieresis
Encoding: 168 168 264
Width: 1296
VWidth: 0
Flags: HW
LayerCount: 2
Fore
SplineSet
712 354 m 2
 672 354 648 329 648 289 c 2
 648 134 l 2
 648 94 672 69 712 69 c 2
 965 69 l 2
 1005 69 1030 94 1030 134 c 2
 1030 289 l 2
 1030 329 1005 354 965 354 c 2
 712 354 l 2
134 354 m 2
 94 354 70 329 70 289 c 2
 70 134 l 2
 70 94 94 69 134 69 c 2
 387 69 l 2
 427 69 451 94 451 134 c 2
 451 289 l 2
 451 329 427 354 387 354 c 2
 134 354 l 2
550 1100 m 0
EndSplineSet
EndChar

StartChar: divide
Encoding: 247 247 265
Width: 1286
VWidth: 0
Flags: HW
LayerCount: 2
Fore
SplineSet
121 768 m 2
 81 768 57 744 57 704 c 2
 57 631 l 2
 57 591 81 567 121 567 c 2
 976 567 l 2
 1016 567 1040 591 1040 631 c 2
 1040 704 l 2
 1040 744 1016 768 976 768 c 2
 121 768 l 2
762 1202 m 2
 762 1242 738 1266 698 1266 c 2
 398 1266 l 2
 358 1266 333 1242 333 1202 c 2
 333 910 l 2
 333 870 358 846 398 846 c 2
 698 846 l 2
 738 846 762 870 762 910 c 2
 762 1202 l 2
762 409 m 2
 762 449 738 473 698 473 c 2
 398 473 l 2
 358 473 333 449 333 409 c 2
 333 142 l 2
 333 102 358 78 398 78 c 2
 698 78 l 2
 738 78 762 102 762 142 c 2
 762 409 l 2
EndSplineSet
EndChar

StartChar: dollar
Encoding: 36 36 266
Width: 1434
VWidth: 0
Flags: HW
LayerCount: 2
Fore
SplineSet
508 1050 m 2
 508 1072 521 1085 543 1085 c 2
 544 1085 l 2
 566 1085 580 1072 580 1050 c 2
 580 892 l 2
 580 871 565 859 544 864 c 0
 543 864 544 864 543 864 c 0
 520 869 508 884 508 908 c 2
 508 1050 l 2
717 274 m 2
 717 253 703 239 682 239 c 2
 681 239 l 2
 660 239 646 253 646 274 c 2
 646 449 l 2
 646 470 660 481 681 477 c 2
 682 477 l 2
 704 473 717 458 717 435 c 2
 717 274 l 2
614 -142 m 2
 634 -142 646 -130 646 -110 c 2
 646 -32 l 2
 646 0 665 20 697 21 c 0
 991 34 1166 120 1166 431 c 0
 1166 717 923 788 696 834 c 0
 664 840 646 861 646 894 c 2
 646 1051 l 2
 646 1072 660 1085 681 1085 c 2
 682 1085 l 2
 703 1085 717 1072 717 1051 c 2
 717 1013 l 2
 717 972 740 947 781 945 c 2
 1076 928 l 2
 1115 926 1141 949 1141 988 c 0
 1142 1119 1114 1222 969 1269 c 1
 892 1293 802 1303 697 1306 c 0
 665 1307 646 1326 646 1358 c 2
 646 1431 l 2
 646 1451 634 1464 614 1464 c 2
 612 1464 l 2
 592 1464 580 1451 580 1431 c 2
 580 1357 l 2
 580 1325 561 1306 529 1305 c 0
 260 1293 59 1218 59 914 c 0
 59 623 297 550 530 505 c 0
 562 499 580 478 580 445 c 2
 580 275 l 2
 580 253 566 239 544 239 c 2
 543 239 l 2
 521 239 508 253 508 275 c 2
 508 316 l 2
 508 357 485 382 444 385 c 2
 147 404 l 2
 109 406 83 382 84 344 c 0
 87 182 141 101 255 60 c 0
 332 33 422 22 529 19 c 0
 561 18 580 0 580 -32 c 2
 580 -110 l 2
 580 -130 592 -142 612 -142 c 2
 614 -142 l 2
EndSplineSet
EndChar

StartChar: dotaccent
Encoding: 729 729 267
Width: 670
VWidth: 0
Flags: HW
LayerCount: 2
Fore
SplineSet
288 -33 m 0
 374 -33 460 27 460 145 c 0
 460 263 374 322 288 322 c 0
 202 322 115 263 115 145 c 0
 115 27 202 -33 288 -33 c 0
288 1100 m 0
EndSplineSet
EndChar

StartChar: dotlessi
Encoding: 305 305 268
Width: 744
VWidth: 0
Flags: HW
LayerCount: 2
Fore
SplineSet
566 1034 m 2
 566 1074 542 1098 502 1098 c 2
 149 1098 l 2
 109 1098 85 1074 85 1034 c 2
 85 64 l 2
 85 24 109 0 149 0 c 2
 502 0 l 2
 542 0 566 24 566 64 c 2
 566 1034 l 2
315 1100 m 0
567 8 m 0
EndSplineSet
EndChar

StartChar: e
Encoding: 101 101 269
Width: 1513
VWidth: 0
Flags: HW
LayerCount: 2
Fore
SplineSet
563 842 m 2
 563 908 565 935 614 935 c 2
 692 935 l 2
 733 935 738 908 738 842 c 2
 738 691 l 2
 738 659 736 657 704 657 c 2
 597 657 l 2
 565 657 563 659 563 691 c 2
 563 842 l 2
776 409 m 2
 735 409 737 402 737 361 c 2
 737 266 l 2
 737 234 735 198 686 198 c 2
 614 198 l 2
 570 198 563 234 563 266 c 2
 563 477 l 2
 563 509 565 511 597 511 c 2
 1128 511 l 2
 1169 511 1185 534 1192 575 c 0
 1198 611 1195 661 1191 706 c 0
 1168 937 1152 1123 661 1123 c 0
 250 1123 149 1029 107 806 c 0
 96 746 86 654 86 557 c 0
 86 461 92 365 107 299 c 0
 159 66 244 -23 662 -23 c 0
 1053 -23 1132 66 1162 239 c 0
 1168 274 1174 361 1173 377 c 0
 1170 403 1170 409 1144 409 c 2
 776 409 l 2
640 1100 m 0
640 0 m 0
1152 8 m 0
EndSplineSet
EndChar

StartChar: eight
Encoding: 56 56 275
Width: 1427
VWidth: 0
Flags: HW
LayerCount: 2
Fore
SplineSet
531 559 m 2
 531 591 550 609 582 609 c 2
 621 609 l 2
 653 609 672 591 672 559 c 2
 672 249 l 2
 672 217 653 199 621 199 c 2
 582 199 l 2
 550 199 531 217 531 249 c 2
 531 559 l 2
621 1146 m 2
 653 1146 672 1128 672 1096 c 2
 672 863 l 2
 672 831 653 812 621 812 c 2
 592 812 l 2
 560 812 541 831 541 863 c 2
 541 1096 l 2
 541 1128 560 1146 592 1146 c 2
 621 1146 l 2
169 757 m 0
 190 737 189 726 165 710 c 0
 70 648 54 500 54 398 c 0
 54 64 243 -34 610 -34 c 0
 931 -34 1157 29 1157 398 c 0
 1157 546 1117 666 1020 714 c 0
 999 725 997 739 1017 752 c 0
 1082 796 1108 887 1108 998 c 0
 1108 1292 906 1380 608 1380 c 0
 309 1380 101 1293 101 999 c 0
 101 899 117 805 169 757 c 0
EndSplineSet
EndChar

StartChar: ellipsis
Encoding: 8230 8230 276
Width: 2010
VWidth: 0
Flags: HW
LayerCount: 2
Fore
SplineSet
1421 -33 m 0
 1507 -33 1594 27 1594 145 c 0
 1594 263 1507 322 1421 322 c 0
 1335 322 1249 263 1249 145 c 0
 1249 27 1335 -33 1421 -33 c 0
854 -33 m 0
 940 -33 1027 27 1027 145 c 0
 1027 263 940 322 854 322 c 0
 768 322 682 263 682 145 c 0
 682 27 768 -33 854 -33 c 0
288 -33 m 0
 374 -33 460 27 460 145 c 0
 460 263 374 322 288 322 c 0
 202 322 115 263 115 145 c 0
 115 27 202 -33 288 -33 c 0
EndSplineSet
EndChar

StartChar: emdash
Encoding: 8212 8212 278
Width: 1857
VWidth: 0
Flags: HW
LayerCount: 2
Fore
SplineSet
138 759 m 2
 98 759 74 735 74 695 c 2
 74 454 l 2
 74 414 98 390 138 390 c 2
 1435 390 l 2
 1475 390 1499 414 1499 454 c 2
 1499 695 l 2
 1499 735 1475 759 1435 759 c 2
 138 759 l 2
EndSplineSet
EndChar

StartChar: endash
Encoding: 8211 8211 279
Width: 1005
VWidth: 0
Flags: HW
LayerCount: 2
Fore
SplineSet
138 759 m 2
 98 759 74 735 74 695 c 2
 74 454 l 2
 74 414 98 390 138 390 c 2
 714 390 l 2
 754 390 778 414 778 454 c 2
 778 695 l 2
 778 735 754 759 714 759 c 2
 138 759 l 2
EndSplineSet
EndChar

StartChar: equal
Encoding: 61 61 281
Width: 1008
VWidth: 0
Flags: HW
LayerCount: 2
Fore
SplineSet
139 759 m 2
 99 759 75 735 75 695 c 2
 75 539 l 2
 75 499 99 475 139 475 c 2
 717 475 l 2
 757 475 781 499 781 539 c 2
 781 695 l 2
 781 735 757 759 717 759 c 2
 139 759 l 2
139 284 m 2
 99 284 75 260 75 220 c 2
 75 64 l 2
 75 24 99 0 139 0 c 2
 717 0 l 2
 757 0 781 24 781 64 c 2
 781 220 l 2
 781 260 757 284 717 284 c 2
 139 284 l 2
EndSplineSet
EndChar

StartChar: eth
Encoding: 240 240 282
Width: 1395
VWidth: 0
Flags: HW
LayerCount: 2
Fore
SplineSet
645 252 m 2
 645 220 626 201 594 201 c 2
 592 201 l 2
 560 201 541 220 541 252 c 2
 541 650 l 2
 541 682 560 700 592 700 c 2
 594 700 l 2
 626 700 645 682 645 650 c 2
 645 252 l 2
259 1334 m 2
 248 1318 253 1302 270 1293 c 2
 299 1277 l 2
 328 1262 357 1244 387 1225 c 0
 411 1210 411 1185 388 1169 c 2
 304 1112 l 2
 273 1091 266 1060 285 1027 c 2
 286 1025 l 2
 304 993 334 986 364 1007 c 2
 503 1103 l 2
 519 1114 537 1113 551 1099 c 0
 559 1091 567 1082 574 1074 c 0
 597 1049 624 1017 637 978 c 0
 645 954 627 928 602 928 c 2
 527 928 l 2
 398 928 295 910 218 864 c 0
 92 790 61 644 61 444 c 0
 61 345 68 259 95 187 c 0
 162 10 350 -31 599 -31 c 0
 745 -31 861 -14 947 38 c 0
 1122 145 1131 399 1131 683 c 0
 1131 757 1123 825 1107 888 c 0
 1064 1058 978 1190 874 1299 c 0
 853 1321 856 1346 881 1364 c 2
 932 1399 l 2
 963 1420 970 1451 951 1484 c 2
 950 1486 l 2
 932 1518 902 1525 872 1504 c 2
 787 1445 l 2
 759 1426 732 1426 704 1446 c 0
 620 1506 532 1557 432 1598 c 0
 432 1598 l 2
 432 1596 l 2
 431 1596 l 2
 259 1334 l 2
EndSplineSet
EndChar

StartChar: exclam
Encoding: 33 33 283
Width: 801
VWidth: 0
Flags: HW
LayerCount: 2
Fore
SplineSet
337 -33 m 0
 423 -33 509 27 509 145 c 0
 509 263 423 322 337 322 c 0
 251 322 164 263 164 145 c 0
 164 27 251 -33 337 -33 c 0
337 456 m 0
 358 456 378 476 387 514 c 0
 440 740 555 1060 555 1194 c 0
 555 1317 444 1380 335 1380 c 0
 228 1380 123 1319 123 1195 c 0
 123 1065 231 745 285 514 c 0
 294 475 316 456 337 456 c 0
EndSplineSet
EndChar

StartChar: f
Encoding: 102 102 285
Width: 1205
VWidth: 0
Flags: HW
LayerCount: 2
Fore
SplineSet
112 1100 m 2
 71 1100 47 1076 47 1036 c 2
 47 993 l 2
 47 953 71 929 112 929 c 2
 197 929 l 2
 221 929 222 928 222 904 c 2
 222 64 l 2
 222 23 247 0 287 0 c 2
 641 0 l 2
 681 0 706 23 706 64 c 2
 706 904 l 2
 706 919 707 929 722 929 c 2
 907 929 l 2
 948 929 971 953 971 993 c 2
 971 1036 l 2
 971 1076 948 1100 907 1100 c 2
 731 1100 l 2
 716 1100 706 1104 706 1119 c 0
 706 1205 716 1250 841 1250 c 2
 899 1250 l 2
 940 1250 964 1274 964 1314 c 2
 964 1363 l 2
 964 1402 939 1432 901 1440 c 0
 820 1458 736 1464 654 1464 c 0
 394 1464 235 1361 224 1125 c 0
 223 1106 220 1100 204 1100 c 2
 112 1100 l 2
EndSplineSet
EndChar

StartChar: five
Encoding: 53 53 286
Width: 1429
VWidth: 0
Flags: HW
LayerCount: 2
Fore
SplineSet
549 878 m 0
 530 865 514 874 517 897 c 2
 534 1049 l 2
 538 1081 558 1099 590 1099 c 2
 976 1099 l 2
 1016 1099 1040 1123 1040 1163 c 2
 1040 1286 l 2
 1040 1326 1016 1350 976 1350 c 2
 179 1350 l 2
 138 1350 113 1327 111 1286 c 2
 74 618 l 2
 72 578 94 554 134 554 c 2
 457 554 l 2
 497 554 521 578 521 618 c 2
 521 659 l 2
 521 691 540 709 572 709 c 2
 624 709 l 2
 656 709 674 691 674 659 c 2
 674 250 l 2
 674 218 656 200 624 200 c 2
 572 200 l 2
 540 200 521 218 521 250 c 2
 521 337 l 2
 521 377 497 401 457 401 c 2
 114 401 l 2
 78 401 56 377 58 341 c 0
 59 320 60 300 63 280 c 0
 95 25 312 -33 604 -33 c 0
 1004 -33 1154 74 1154 468 c 0
 1154 745 1084 935 808 935 c 0
 699 935 610 919 549 878 c 0
EndSplineSet
EndChar

StartChar: four
Encoding: 52 52 287
Width: 1459
VWidth: 0
Flags: HW
LayerCount: 2
Fore
SplineSet
1165 729 m 2
 1165 769 1141 794 1101 794 c 2
 796 794 l 2
 756 794 732 769 732 729 c 2
 732 561 l 2
 732 529 713 510 681 510 c 2
 571 510 l 2
 557 510 549 518 549 532 c 2
 549 534 l 2
 549 547 552 564 555 577 c 2
 745 1287 l 2
 755 1323 735 1349 697 1349 c 2
 341 1349 l 2
 299 1349 271 1327 260 1287 c 2
 79 618 l 2
 69 581 62 530 62 492 c 2
 62 267 l 2
 62 227 86 203 126 203 c 2
 681 203 l 2
 713 203 732 185 732 153 c 2
 732 64 l 2
 732 24 756 0 796 0 c 2
 1101 0 l 2
 1141 0 1165 24 1165 64 c 2
 1165 729 l 2
EndSplineSet
EndChar

StartChar: g
Encoding: 103 103 288
Width: 1553
VWidth: 0
Flags: HW
LayerCount: 2
Fore
SplineSet
86 596 m 0
 86 524 89 453 94 408 c 0
 119 183 232 77 461 77 c 0
 556 77 647 96 705 139 c 0
 716 147 725 157 732 157 c 0
 738 157 741 148 741 120 c 0
 741 -2 704 -41 542 -50 c 0
 531 -51 520 -51 508 -51 c 0
 440 -51 370 -40 312 -30 c 0
 306 -29 300 -29 295 -29 c 0
 263 -29 244 -47 237 -83 c 2
 213 -201 l 2
 212 -207 212 -212 212 -217 c 0
 212 -248 231 -271 264 -279 c 0
 356 -299 468 -315 605 -315 c 0
 1021 -315 1177 -238 1213 115 c 0
 1223 212 1228 350 1228 497 c 0
 1228 680 1221 878 1213 1035 c 0
 1211 1075 1190 1099 1149 1099 c 2
 813 1099 l 2
 781 1099 776 1082 766 1052 c 1
 766 1053 l 1
 762 1024 757 1014 750 1014 c 0
 742 1014 733 1026 717 1041 c 0
 659 1094 573 1122 464 1123 c 1
 230 1123 120 1010 94 784 c 0
 89 740 86 668 86 596 c 0
730 318 m 2
 730 286 711 267 679 267 c 2
 613 267 l 2
 581 267 554 286 554 318 c 2
 554 883 l 2
 554 915 581 934 613 934 c 2
 679 934 l 2
 711 934 730 915 730 883 c 2
 730 318 l 2
657 1100 m 0
EndSplineSet
EndChar

StartChar: gcommaaccent
Encoding: 291 291 291
Width: 1470
VWidth: 0
Flags: HW
LayerCount: 2
Fore
SplineSet
699 318 m 2
 699 286 680 267 648 267 c 2
 608 267 l 2
 576 267 558 286 558 318 c 2
 558 884 l 2
 558 916 576 934 608 934 c 2
 648 934 l 2
 680 934 699 916 699 884 c 2
 699 318 l 2
74 784 m 2
 74 408 l 2
 74 181 201 77 430 77 c 0
 525 77 614 96 673 139 c 0
 693 154 710 145 710 120 c 2
 710 24 l 2
 710 -2 688 -30 663 -36 c 0
 568 -59 398 -52 281 -31 c 0
 239 -24 213 -40 205 -82 c 2
 182 -202 l 2
 174 -241 194 -270 232 -279 c 0
 325 -300 437 -315 574 -315 c 0
 990 -315 1182 -155 1182 200 c 2
 1182 1035 l 2
 1182 1075 1158 1099 1118 1099 c 2
 798 1099 l 2
 766 1099 745 1084 735 1054 c 0
 726 1027 707 1021 686 1040 c 2
 432 1270 l 2
 423 1278 432 1257 432 1269 c 2
 432 1123 l 1
 198 1123 74 1012 74 784 c 2
EndSplineSet
EndChar

StartChar: germandbls
Encoding: 223 223 293
Width: 1389
VWidth: 0
Flags: HW
LayerCount: 2
Fore
SplineSet
503 1098 m 2
 503 1130 522 1149 554 1149 c 2
 653 1149 l 2
 685 1149 703 1130 703 1098 c 2
 703 876 l 2
 703 847 685 830 656 830 c 2
 655 830 l 2
 626 830 608 812 608 783 c 2
 608 681 l 2
 608 652 626 634 655 634 c 2
 656 634 l 2
 685 634 703 617 703 588 c 2
 703 215 l 2
 703 183 685 164 653 164 c 2
 643 164 l 2
 607 164 585 142 585 106 c 2
 585 3 l 2
 585 -19 598 -31 620 -31 c 2
 656 -31 l 2
 729 -31 791 -28 843 -21 c 0
 1004 0 1123 42 1123 218 c 2
 1123 468 l 2
 1123 519 1113 561 1094 595 c 0
 1053 667 980 714 884 730 c 0
 872 732 872 741 884 744 c 0
 907 750 929 758 949 769 c 0
 1021 810 1064 876 1064 990 c 0
 1064 1045 1061 1097 1046 1142 c 0
 992 1301 825 1349 605 1349 c 0
 521 1349 450 1344 392 1335 c 0
 207 1305 84 1239 84 1030 c 2
 84 -109 l 2
 84 -149 108 -173 148 -173 c 2
 439 -173 l 2
 479 -173 503 -149 503 -109 c 2
 503 1098 l 2
EndSplineSet
EndChar

StartChar: grave
Encoding: 96 96 294
Width: 873
VWidth: 0
Flags: HW
LayerCount: 2
Fore
SplineSet
288 1601 m 0
 250 1623 214 1633 182 1633 c 0
 95 1633 35 1562 35 1482 c 0
 35 1427 64 1368 133 1328 c 0
 221 1277 464 1216 637 1164 c 0
 646 1161 656 1160 664 1160 c 0
 694 1160 717 1176 717 1201 c 0
 717 1216 709 1234 689 1252 c 0
 551 1378 373 1552 288 1601 c 0
376 1100 m 0
EndSplineSet
EndChar

StartChar: greater
Encoding: 62 62 295
Width: 1035
VWidth: 0
Flags: HW
LayerCount: 2
Fore
SplineSet
815 865 m 2
 815 908 796 940 759 961 c 2
 129 1319 l 2
 99 1336 73 1321 73 1287 c 2
 73 988 l 2
 73 945 92 915 130 896 c 2
 536 696 l 2
 559 685 559 663 536 652 c 2
 130 455 l 2
 92 436 73 405 73 362 c 2
 73 64 l 2
 73 30 99 14 129 31 c 2
 759 382 l 2
 796 403 815 435 815 478 c 2
 815 865 l 2
EndSplineSet
EndChar

StartChar: guillemotleft
Encoding: 171 171 296
Width: 1806
VWidth: 0
Flags: HW
LayerCount: 2
Fore
SplineSet
1277 161 m 0
 1316 161 1345 194 1345 234 c 0
 1345 253 1341 273 1327 292 c 2
 1075 617 l 2
 1055 643 1055 671 1075 697 c 2
 1327 1023 l 2
 1342 1043 1347 1062 1347 1081 c 0
 1347 1122 1318 1154 1279 1154 c 0
 1264 1154 1243 1148 1223 1134 c 2
 778 813 l 2
 729 777 703 716 702 656 c 0
 702 598 727 538 778 502 c 2
 1223 180 l 2
 1242 166 1261 161 1277 161 c 0
655 161 m 0
 694 161 723 194 723 234 c 0
 723 253 718 273 704 292 c 2
 452 617 l 2
 432 643 432 671 452 697 c 2
 704 1023 l 2
 719 1043 725 1062 725 1081 c 0
 725 1122 695 1154 656 1154 c 0
 640 1154 622 1148 602 1134 c 2
 156 813 l 2
 107 777 81 716 80 656 c 0
 80 598 105 538 156 502 c 2
 602 180 l 2
 620 166 639 161 655 161 c 0
EndSplineSet
EndChar

StartChar: guillemotright
Encoding: 187 187 297
Width: 1770
VWidth: 0
Flags: HW
LayerCount: 2
Fore
SplineSet
766 656 m 0
 765 716 739 777 690 813 c 2
 245 1134 l 2
 225 1148 205 1154 190 1154 c 0
 151 1154 122 1122 122 1081 c 0
 122 1062 127 1043 142 1023 c 2
 394 697 l 2
 414 671 414 643 394 617 c 2
 142 292 l 2
 128 273 124 253 124 234 c 0
 124 194 152 161 191 161 c 0
 207 161 226 166 245 180 c 2
 690 502 l 2
 741 538 766 598 766 656 c 0
1389 656 m 0
 1388 716 1362 777 1313 813 c 2
 867 1134 l 2
 847 1148 828 1154 812 1154 c 0
 773 1154 744 1122 744 1081 c 0
 744 1062 750 1043 765 1023 c 2
 1017 697 l 2
 1037 671 1037 643 1017 617 c 2
 765 292 l 2
 751 273 745 253 745 234 c 0
 745 194 775 161 814 161 c 0
 830 161 849 166 867 180 c 2
 1313 502 l 2
 1364 538 1389 598 1389 656 c 0
EndSplineSet
EndChar

StartChar: guilsinglleft
Encoding: 8249 8249 298
Width: 1036
VWidth: 0
Flags: HW
LayerCount: 2
Fore
SplineSet
697 161 m 0
 736 161 765 194 765 234 c 0
 765 253 760 273 746 292 c 2
 494 617 l 2
 474 643 474 671 494 697 c 2
 746 1023 l 2
 761 1043 766 1062 766 1081 c 0
 766 1122 738 1154 699 1154 c 0
 684 1154 663 1148 643 1134 c 2
 198 813 l 2
 149 777 123 716 122 656 c 0
 122 598 147 538 198 502 c 2
 643 180 l 2
 662 166 681 161 697 161 c 0
EndSplineSet
EndChar

StartChar: guilsinglright
Encoding: 8250 8250 299
Width: 1034
VWidth: 0
Flags: HW
LayerCount: 2
Fore
SplineSet
766 656 m 0
 765 716 739 777 690 813 c 2
 245 1134 l 2
 225 1148 205 1154 190 1154 c 0
 151 1154 122 1122 122 1081 c 0
 122 1062 127 1043 142 1023 c 2
 394 697 l 2
 414 671 414 643 394 617 c 2
 142 292 l 2
 128 273 124 253 124 234 c 0
 124 194 152 161 191 161 c 0
 207 161 226 166 245 180 c 2
 690 502 l 2
 741 538 766 598 766 656 c 0
EndSplineSet
EndChar

StartChar: h
Encoding: 104 104 300
Width: 1591
VWidth: 0
Flags: HW
LayerCount: 2
Fore
SplineSet
182 0 m 2
 540 0 l 2
 581 0 604 23 604 64 c 2
 604 211 l 1
 608 403 612 576 612 767 c 0
 612 814 612 864 611 913 c 1
 619 927 635 935 655 935 c 2
 705 935 l 2
 737 935 755 916 755 884 c 2
 755 64 l 2
 755 23 779 0 820 0 c 2
 1174 0 l 2
 1215 0 1236 23 1239 64 c 0
 1247 181 1250 313 1250 437 c 0
 1250 579 1246 712 1239 799 c 0
 1222 1011 1139 1122 908 1123 c 0
 804 1123 675 1091 617 1041 c 0
 614 1038 612 1038 609 1036 c 1
 607 1159 605 1279 601 1382 c 0
 599 1422 577 1447 536 1447 c 2
 182 1447 l 2
 141 1447 120 1420 118 1382 c 0
 110 1192 107 987 107 772 c 0
 107 677 107 580 108 482 c 0
 109 434 110 384 111 334 c 0
 113 245 115 155 118 64 c 0
 119 23 141 0 182 0 c 2
673 1100 m 0
673 550 m 0
EndSplineSet
EndChar

StartChar: hbar
Encoding: 295 295 301
Width: 1511
VWidth: 0
Flags: HW
LayerCount: 2
Fore
SplineSet
627 1062 m 0
 610 1047 594 1054 594 1077 c 2
 594 1227 l 1
 941 1227 l 2
 981 1227 1005 1251 1005 1291 c 2
 1005 1305 l 2
 1005 1345 981 1370 941 1370 c 2
 594 1370 l 1
 594 1382 l 2
 594 1422 570 1447 530 1447 c 2
 174 1447 l 2
 134 1447 110 1422 110 1382 c 2
 110 1370 l 1
 101 1370 l 2
 61 1370 36 1345 36 1305 c 2
 36 1291 l 2
 36 1251 61 1227 101 1227 c 2
 110 1227 l 1
 110 64 l 2
 110 24 134 0 174 0 c 2
 530 0 l 2
 570 0 594 24 594 64 c 2
 594 851 l 2
 594 883 612 901 644 901 c 2
 684 901 l 2
 716 901 734 883 734 851 c 2
 734 64 l 2
 734 24 759 0 799 0 c 2
 1153 0 l 2
 1193 0 1217 24 1217 64 c 2
 1217 799 l 2
 1217 1026 1098 1136 865 1136 c 0
 770 1136 682 1111 627 1062 c 0
EndSplineSet
EndChar

StartChar: hungarumlaut
Encoding: 733 733 303
Width: 873
VWidth: 0
Flags: HW
LayerCount: 2
Fore
SplineSet
47 1201 m 0
 47 1176 70 1160 100 1160 c 0
 108 1160 118 1161 127 1164 c 0
 300 1216 543 1277 631 1328 c 0
 700 1368 729 1427 729 1482 c 0
 729 1562 669 1633 582 1633 c 0
 550 1633 514 1623 476 1601 c 0
 391 1552 213 1378 75 1252 c 0
 55 1234 47 1216 47 1201 c 0
631 1201 m 0
 631 1176 654 1160 684 1160 c 0
 692 1160 702 1161 711 1164 c 0
 884 1216 1128 1277 1216 1328 c 0
 1285 1368 1314 1427 1314 1482 c 0
 1314 1562 1254 1633 1167 1633 c 0
 1135 1633 1099 1623 1061 1601 c 0
 976 1552 798 1378 660 1252 c 0
 640 1234 631 1216 631 1201 c 0
680 1100 m 0
EndSplineSet
EndChar

StartChar: hyphen
Encoding: 45 45 304
Width: 1328
VWidth: 0
Flags: HW
LayerCount: 2
Fore
SplineSet
203 686 m 2
 163 686 139 662 139 622 c 2
 139 469 l 2
 139 429 163 404 203 404 c 2
 921 404 l 2
 961 404 986 429 986 469 c 2
 986 622 l 2
 986 662 961 686 921 686 c 2
 203 686 l 2
EndSplineSet
EndChar

StartChar: i
Encoding: 105 105 305
Width: 759
VWidth: 0
Flags: HW
LayerCount: 2
Fore
SplineSet
152 1446 m 2
 112 1446 88 1422 88 1382 c 2
 88 1270 l 2
 88 1230 112 1206 152 1206 c 2
 507 1206 l 2
 547 1206 571 1230 571 1270 c 2
 571 1382 l 2
 571 1422 547 1446 507 1446 c 2
 152 1446 l 2
571 1036 m 2
 571 1076 547 1100 507 1100 c 2
 152 1100 l 2
 112 1100 88 1076 88 1036 c 2
 88 64 l 2
 88 24 112 0 152 0 c 2
 507 0 l 2
 547 0 571 24 571 64 c 2
 571 1036 l 2
EndSplineSet
EndChar

StartChar: j
Encoding: 106 106 315
Width: 868
VWidth: 0
Flags: HW
LayerCount: 2
Fore
SplineSet
244 1446 m 2
 204 1446 179 1422 179 1382 c 2
 179 1270 l 2
 179 1230 204 1206 244 1206 c 2
 599 1206 l 2
 639 1206 663 1230 663 1270 c 2
 663 1382 l 2
 663 1422 639 1446 599 1446 c 2
 244 1446 l 2
663 1036 m 2
 663 1076 639 1100 599 1100 c 2
 244 1100 l 2
 204 1100 179 1076 179 1036 c 2
 179 -5 l 2
 179 -37 161 -56 129 -56 c 2
 84 -56 l 2
 45 -56 22 -81 27 -120 c 2
 37 -197 l 2
 42 -236 69 -263 108 -268 c 0
 157 -274 209 -276 273 -276 c 0
 524 -276 663 -168 663 80 c 2
 663 1036 l 2
EndSplineSet
EndChar

StartChar: k
Encoding: 107 107 317
Width: 1637
VWidth: 0
Flags: HW
LayerCount: 2
Fore
SplineSet
537 0 m 2
 578 0 600 23 602 64 c 2
 616 394 l 2
 617 419 619 461 634 469 c 0
 651 478 665 455 669 446 c 2
 830 59 l 2
 846 20 877 0 919 0 c 2
 1294 0 l 2
 1320 0 1337 15 1337 35 c 0
 1337 42 1334 50 1331 58 c 2
 1095 555 l 2
 1088 570 1085 585 1085 599 c 0
 1085 614 1088 630 1096 645 c 2
 1309 1043 l 2
 1313 1051 1316 1060 1316 1067 c 0
 1316 1086 1300 1100 1275 1100 c 2
 908 1100 l 2
 865 1100 833 1081 813 1043 c 2
 640 720 l 2
 637 712 631 709 627 709 c 0
 621 709 616 715 616 726 c 2
 602 1382 l 1
 602 1423 578 1447 537 1447 c 2
 183 1447 l 2
 142 1447 120 1423 118 1382 c 0
 110 1202 108 930 108 711 c 0
 108 417 113 182 118 64 c 0
 120 24 142 0 183 0 c 2
 537 0 l 2
693 0 m 0
EndSplineSet
EndChar

StartChar: kgreenlandic
Encoding: 312 312 319
Width: 1590
VWidth: 0
Flags: HW
LayerCount: 2
Fore
SplineSet
514 0 m 2
 554 0 579 24 579 64 c 2
 579 219 l 2
 579 252 590 282 611 308 c 2
 642 346 l 2
 659 367 684 363 694 338 c 2
 810 59 l 2
 826 20 855 0 898 0 c 2
 1256 0 l 2
 1292 0 1309 26 1294 58 c 2
 1039 622 l 2
 1025 653 1026 682 1045 710 c 2
 1266 1046 l 2
 1284 1074 1270 1100 1237 1100 c 2
 870 1100 l 2
 827 1100 794 1082 772 1045 c 2
 605 769 l 2
 595 752 579 756 579 776 c 2
 579 1035 l 2
 579 1075 554 1099 514 1099 c 2
 149 1099 l 2
 109 1099 85 1075 85 1035 c 2
 85 64 l 2
 85 24 109 0 149 0 c 2
 514 0 l 2
EndSplineSet
EndChar

StartChar: l
Encoding: 108 108 320
Width: 853
VWidth: 0
Flags: HW
LayerCount: 2
Fore
SplineSet
538 1447 m 2
 184 1447 l 2
 143 1447 121 1420 119 1382 c 0
 111 1192 108 987 108 772 c 0
 108 544 112 307 119 64 c 0
 120 23 143 0 184 0 c 2
 538 0 l 2
 579 0 601 23 602 64 c 0
 608 319 613 528 613 767 c 0
 613 969 609 1203 602 1382 c 0
 600 1422 579 1447 538 1447 c 2
361 1100 m 0
361 0 m 0
705 1100 m 0
EndSplineSet
EndChar

StartChar: lcaron
Encoding: 318 318 322
Width: 760
VWidth: 0
Flags: HW
LayerCount: 2
Fore
SplineSet
572 1382 m 2
 572 1422 548 1447 508 1447 c 2
 153 1447 l 2
 113 1447 89 1422 89 1382 c 2
 89 64 l 2
 89 24 113 0 153 0 c 2
 508 0 l 2
 548 0 572 24 572 64 c 2
 572 1382 l 2
804 1113 m 0
 835 1100 843 1053 818 1031 c 0
 804 1018 786 1010 766 1004 c 0
 732 994 721 980 721 946 c 2
 721 922 l 2
 721 911 728 904 739 903 c 0
 746 903 752 903 758 903 c 0
 945 903 1052 1088 1052 1244 c 0
 1052 1353 996 1447 874 1447 c 0
 788 1447 701 1390 701 1277 c 0
 701 1191 746 1137 804 1113 c 0
EndSplineSet
EndChar

StartChar: ldot
Encoding: 320 320 324
Width: 1313
VWidth: 0
Flags: HW
LayerCount: 2
Fore
SplineSet
572 1382 m 2
 572 1422 548 1447 508 1447 c 2
 153 1447 l 2
 113 1447 89 1422 89 1382 c 2
 89 64 l 2
 89 24 113 0 153 0 c 2
 508 0 l 2
 548 0 572 24 572 64 c 2
 572 1382 l 2
1111 885 m 2
 1111 925 1087 949 1047 949 c 2
 746 949 l 2
 706 949 682 925 682 885 c 2
 682 618 l 2
 682 578 706 554 746 554 c 2
 1047 554 l 2
 1087 554 1111 578 1111 618 c 2
 1111 885 l 2
EndSplineSet
EndChar

StartChar: less
Encoding: 60 60 325
Width: 1036
VWidth: 0
Flags: HW
LayerCount: 2
Fore
SplineSet
63 478 m 2
 63 435 83 403 120 382 c 2
 748 31 l 2
 778 14 805 30 805 64 c 2
 805 362 l 2
 805 405 785 436 747 455 c 2
 341 652 l 2
 318 663 318 685 341 696 c 2
 747 896 l 2
 785 915 805 945 805 988 c 2
 805 1287 l 2
 805 1321 779 1336 749 1319 c 2
 119 961 l 2
 82 940 63 908 63 865 c 2
 63 478 l 2
EndSplineSet
EndChar

StartChar: logicalnot
Encoding: 172 172 326
Width: 1269
VWidth: 0
Flags: HW
LayerCount: 2
Fore
SplineSet
997 871 m 2
 997 911 973 935 933 935 c 2
 134 935 l 2
 94 935 70 911 70 871 c 2
 70 733 l 2
 70 693 94 669 134 669 c 2
 753 669 l 2
 785 669 804 651 804 619 c 2
 804 318 l 2
 804 278 828 254 868 254 c 2
 933 254 l 2
 973 254 997 278 997 318 c 2
 997 871 l 2
EndSplineSet
EndChar

StartChar: lslash
Encoding: 322 322 327
Width: 1145
VWidth: 0
Flags: HW
LayerCount: 2
Fore
SplineSet
721 1382 m 2
 721 1422 697 1447 657 1447 c 2
 302 1447 l 2
 262 1447 238 1422 238 1382 c 2
 238 753 l 1
 112 694 l 2
 73 676 54 645 54 602 c 2
 54 520 l 2
 54 485 80 468 112 483 c 2
 238 542 l 1
 238 64 l 2
 238 24 262 0 302 0 c 2
 657 0 l 2
 697 0 721 24 721 64 c 2
 721 769 l 1
 867 838 l 2
 906 856 926 887 926 930 c 2
 926 1011 l 2
 926 1046 899 1063 867 1048 c 2
 721 979 l 1
 721 1382 l 2
EndSplineSet
EndChar

StartChar: m
Encoding: 109 109 328
Width: 2322
VWidth: 0
Flags: HW
LayerCount: 2
Fore
SplineSet
599 64 m 2
 599 884 l 2
 599 916 618 935 650 935 c 2
 700 935 l 2
 732 935 750 916 750 884 c 2
 750 64 l 2
 750 23 774 0 815 0 c 2
 1159 0 l 2
 1200 0 1223 23 1223 64 c 2
 1223 843 l 2
 1223 908 1225 935 1278 935 c 2
 1328 935 l 2
 1360 935 1379 916 1379 884 c 2
 1379 64 l 2
 1379 23 1402 0 1443 0 c 2
 1793 0 l 2
 1834 0 1854 23 1857 64 c 0
 1865 181 1868 321 1868 445 c 0
 1868 587 1864 729 1857 816 c 0
 1840 1028 1757 1123 1526 1123 c 0
 1318 1123 1243 1054 1196 1017 c 1
 1145 1086 1062 1122 931 1123 c 0
 827 1123 675 1091 617 1041 c 0
 609 1033 600 1030 593 1030 c 0
 582 1030 573 1039 568 1055 c 1
 568 1053 l 1
 558 1083 535 1100 503 1100 c 2
 185 1100 l 2
 144 1100 127 1086 121 1036 c 1
 113 885 108 730 108 569 c 0
 108 407 113 240 121 64 c 1
 127 23 144 0 185 0 c 2
 535 0 l 2
 576 0 599 23 599 64 c 2
EndSplineSet
EndChar

StartChar: macron
Encoding: 175 175 329
Width: 999
VWidth: 0
Flags: HW
LayerCount: 2
Fore
SplineSet
138 759 m 2
 98 759 74 735 74 695 c 2
 74 628 l 2
 74 588 98 563 138 563 c 2
 714 563 l 2
 754 563 778 588 778 628 c 2
 778 695 l 2
 778 735 754 759 714 759 c 2
 138 759 l 2
426 1100 m 0
EndSplineSet
EndChar

StartChar: multiply
Encoding: 215 215 331
Width: 1310
VWidth: 0
Flags: HW
LayerCount: 2
Fore
SplineSet
820 1048 m 2
 793 1077 759 1077 732 1048 c 2
 593 900 l 2
 572 877 545 877 524 900 c 2
 383 1048 l 2
 356 1077 322 1077 295 1048 c 2
 89 828 l 2
 61 798 61 765 89 735 c 2
 229 586 l 2
 251 563 251 535 229 512 c 2
 89 364 l 2
 61 334 61 300 89 270 c 2
 295 50 l 2
 322 21 356 21 383 50 c 2
 524 199 l 2
 545 222 572 222 593 199 c 2
 732 50 l 2
 759 21 793 21 820 50 c 2
 1027 270 l 2
 1055 300 1055 334 1027 364 c 2
 887 512 l 2
 865 535 865 563 887 586 c 2
 1027 735 l 2
 1055 765 1055 798 1027 828 c 2
 820 1048 l 2
EndSplineSet
EndChar

StartChar: n
Encoding: 110 110 332
Width: 1579
VWidth: 0
Flags: HW
LayerCount: 2
Fore
SplineSet
617 1041 m 0
 609 1033 600 1030 593 1030 c 0
 582 1030 573 1039 568 1055 c 1
 568 1053 l 1
 558 1083 535 1100 503 1100 c 2
 185 1100 l 2
 144 1100 127 1086 121 1036 c 1
 113 885 108 730 108 569 c 0
 108 407 113 240 121 64 c 1
 127 23 144 0 185 0 c 2
 540 0 l 2
 581 0 604 23 604 64 c 2
 604 849 l 2
 604 881 623 899 655 899 c 2
 705 899 l 2
 737 899 755 881 755 849 c 2
 755 64 l 2
 755 23 779 0 820 0 c 2
 1174 0 l 2
 1215 0 1236 23 1239 64 c 0
 1247 181 1250 313 1250 437 c 0
 1250 579 1246 712 1239 799 c 0
 1222 1011 1139 1122 908 1123 c 0
 804 1123 675 1091 617 1041 c 0
668 1100 m 0
668 0 m 0
EndSplineSet
EndChar

StartChar: nine
Encoding: 57 57 336
Width: 1445
VWidth: 0
Flags: HW
LayerCount: 2
Fore
SplineSet
487 430 m 2
 629 430 l 2
 661 430 679 411 679 379 c 2
 679 241 l 2
 679 209 661 190 629 190 c 2
 596 190 l 2
 564 190 546 209 546 241 c 2
 546 295 l 2
 546 335 521 359 481 359 c 2
 136 359 l 2
 111 359 97 344 97 319 c 0
 97 306 97 291 97 277 c 0
 105 0 414 -34 620 -34 c 0
 957 -34 1155 71 1155 440 c 2
 1155 944 l 2
 1155 1276 956 1378 611 1378 c 0
 275 1378 58 1312 58 906 c 0
 58 582 150 430 487 430 c 2
676 709 m 2
 676 677 658 659 626 659 c 2
 582 659 l 2
 550 659 531 677 531 709 c 2
 531 1098 l 2
 531 1130 550 1149 582 1149 c 2
 626 1149 l 2
 658 1149 676 1130 676 1098 c 2
 676 709 l 2
EndSplineSet
EndChar

StartChar: numbersign
Encoding: 35 35 339
Width: 1718
VWidth: 0
Flags: HW
LayerCount: 2
Fore
SplineSet
658 790 m 2
 662 822 683 840 715 840 c 2
 781 840 l 2
 812 840 829 820 825 790 c 2
 795 575 l 2
 791 543 769 525 737 525 c 2
 671 525 l 2
 640 525 624 545 628 575 c 2
 658 790 l 2
1340 462 m 2
 1345 501 1323 525 1284 525 c 2
 1261 525 l 2
 1230 525 1214 545 1218 575 c 2
 1248 791 l 2
 1252 823 1273 841 1305 841 c 2
 1319 841 l 2
 1359 841 1385 863 1391 903 c 2
 1399 954 l 2
 1404 991 1383 1015 1346 1015 c 2
 1333 1015 l 2
 1302 1015 1285 1035 1289 1065 c 2
 1319 1286 l 2
 1324 1325 1302 1349 1263 1349 c 2
 970 1349 l 2
 929 1349 903 1327 897 1286 c 2
 866 1065 l 2
 862 1033 841 1015 809 1015 c 2
 743 1015 l 2
 712 1015 696 1035 700 1065 c 2
 729 1286 l 2
 734 1325 713 1349 674 1349 c 2
 380 1349 l 2
 339 1349 313 1327 307 1286 c 2
 277 1065 l 2
 273 1033 251 1015 219 1015 c 2
 204 1015 l 2
 163 1015 138 993 132 952 c 2
 124 901 l 2
 119 864 141 840 178 840 c 2
 191 840 l 2
 222 840 238 820 234 790 c 2
 205 575 l 2
 201 543 180 525 148 525 c 2
 139 525 l 2
 102 525 78 505 73 468 c 2
 67 418 l 2
 62 384 81 363 115 363 c 2
 122 363 l 2
 153 363 169 343 165 313 c 2
 130 64 l 2
 125 25 146 0 185 0 c 2
 481 0 l 2
 522 0 549 23 555 64 c 2
 589 313 l 2
 593 345 615 363 647 363 c 2
 713 363 l 2
 744 363 760 343 756 313 c 2
 721 64 l 2
 716 25 737 0 776 0 c 2
 1071 0 l 2
 1112 0 1138 23 1144 64 c 2
 1179 314 l 2
 1183 346 1205 364 1237 364 c 2
 1261 364 l 2
 1302 364 1329 386 1335 427 c 2
 1340 462 l 2
EndSplineSet
EndChar

StartChar: o
Encoding: 111 111 340
Width: 1525
VWidth: 0
Flags: HW
LayerCount: 2
Fore
SplineSet
631 197 m 2
 552 197 552 234 552 331 c 2
 552 808 l 2
 552 908 552 935 631 935 c 2
 653 935 l 2
 730 935 730 905 730 808 c 2
 730 332 l 2
 730 238 729 197 653 197 c 2
 631 197 l 2
1204 553 m 0
 1204 636 1204 720 1188 805 c 0
 1132 1093 916 1123 646 1123 c 0
 395 1123 138 1094 97 806 c 0
 84 717 86 628 86 542 c 0
 86 458 84 377 97 299 c 0
 148 -6 376 -23 645 -23 c 0
 903 -23 1129 -10 1188 298 c 0
 1203 379 1204 465 1204 553 c 0
645 1100 m 0
EndSplineSet
EndChar

StartChar: oe
Encoding: 339 339 345
Width: 2136
VWidth: 0
Flags: HW
LayerCount: 2
Fore
SplineSet
1142 839 m 2
 1142 871 1161 889 1193 889 c 2
 1219 889 l 2
 1251 889 1270 871 1270 839 c 2
 1270 748 l 2
 1270 716 1251 698 1219 698 c 2
 1193 698 l 2
 1161 698 1142 716 1142 748 c 2
 1142 839 l 2
549 839 m 2
 549 871 567 889 599 889 c 2
 626 889 l 2
 658 889 676 871 676 839 c 2
 676 260 l 2
 676 228 658 210 626 210 c 2
 599 210 l 2
 567 210 549 228 549 260 c 2
 549 839 l 2
986 14 m 0
 1047 -14 1127 -24 1225 -24 c 0
 1377 -24 1502 -9 1598 33 c 0
 1708 81 1750 159 1750 311 c 2
 1750 404 l 2
 1750 444 1726 469 1686 469 c 2
 1335 469 l 2
 1295 469 1271 444 1271 404 c 2
 1271 261 l 2
 1271 229 1252 211 1220 211 c 2
 1193 211 l 2
 1161 211 1143 229 1143 261 c 2
 1143 474 l 2
 1143 506 1161 525 1193 525 c 2
 1683 525 l 2
 1723 525 1747 549 1748 589 c 2
 1750 788 l 2
 1750 811 1750 835 1749 860 c 0
 1744 969 1682 1030 1597 1068 c 0
 1501 1111 1378 1125 1224 1125 c 0
 1112 1125 1006 1110 943 1061 c 0
 912 1037 907 1038 876 1061 c 0
 863 1071 846 1079 829 1087 c 0
 770 1113 695 1125 601 1125 c 0
 449 1125 323 1111 227 1068 c 0
 117 1018 72 941 72 787 c 2
 72 310 l 2
 72 287 72 264 74 239 c 0
 80 131 142 69 228 31 c 0
 325 -11 449 -25 602 -25 c 0
 740 -25 856 1 909 79 c 0
 909 80 l 2
 909 81 l 2
 909 81 l 0
 923 51 949 31 986 14 c 0
904 1100 m 0
EndSplineSet
EndChar

StartChar: ogonek
Encoding: 731 731 346
Width: 693
VWidth: 0
Flags: HW
LayerCount: 2
Fore
SplineSet
106 -267 m 0
 106 -407 210 -533 385 -533 c 0
 419 -533 455 -528 494 -518 c 0
 531 -508 555 -478 555 -439 c 2
 555 -292 l 2
 555 -257 534 -241 500 -249 c 0
 478 -254 458 -256 441 -256 c 0
 367 -256 335 -213 335 -160 c 0
 335 -116 357 -66 396 -27 c 0
 416 -7 416 13 396 33 c 2
 396 33 l 2
 378 51 353 55 330 44 c 0
 175 -30 106 -153 106 -267 c 0
555 8 m 0
EndSplineSet
EndChar

StartChar: one
Encoding: 49 49 350
Width: 961
VWidth: 0
Flags: HW
LayerCount: 2
Fore
SplineSet
35 1156 m 2
 35 1116 59 1092 99 1092 c 2
 171 1092 l 2
 203 1092 222 1074 222 1042 c 2
 222 64 l 2
 222 24 246 0 286 0 c 2
 668 0 l 2
 708 0 733 24 733 64 c 2
 733 1285 l 2
 733 1325 708 1349 668 1349 c 2
 416 1349 l 2
 360 1349 323 1342 271 1321 c 0
 221 1301 163 1287 99 1281 c 0
 56 1277 35 1254 35 1211 c 2
 35 1156 l 2
EndSplineSet
EndChar

StartChar: onehalf
Encoding: 189 189 351
Width: 2580
VWidth: 0
Flags: HW
LayerCount: 2
Fore
SplineSet
952 0 m 2
 994 0 1021 22 1030 63 c 2
 1299 1287 l 2
 1307 1324 1287 1349 1249 1349 c 2
 1010 1349 l 2
 968 1349 941 1328 932 1287 c 2
 662 63 l 2
 654 26 674 0 712 0 c 2
 952 0 l 2
26 1135 m 2
 26 1097 48 1075 86 1075 c 2
 98 1075 l 2
 130 1075 148 1057 148 1025 c 2
 148 428 l 2
 148 388 172 364 212 364 c 2
 418 364 l 2
 458 364 482 388 482 428 c 2
 482 1179 l 2
 482 1219 458 1244 418 1244 c 2
 325 1244 l 2
 257 1244 225 1238 160 1217 c 0
 137 1210 112 1204 86 1201 c 0
 44 1196 26 1175 26 1136 c 2
 26 1135 l 2
1669 707 m 2
 1709 707 1733 731 1733 771 c 2
 1733 830 l 2
 1733 856 1749 871 1775 871 c 2
 1777 871 l 2
 1803 871 1818 856 1818 830 c 2
 1818 742 l 2
 1818 696 1755 671 1703 650 c 0
 1539 584 1426 487 1426 265 c 2
 1426 178 l 2
 1426 138 1450 113 1490 113 c 2
 2036 113 l 2
 2076 113 2100 138 2100 178 c 2
 2100 217 l 2
 2100 257 2076 281 2036 281 c 2
 1774 281 l 2
 1752 281 1737 312 1750 329 c 0
 1774 361 1819 383 1860 401 c 0
 2000 464 2134 536 2134 741 c 0
 2134 966 2004 1023 1782 1023 c 0
 1576 1023 1425 971 1425 743 c 0
 1425 737 1425 730 1425 724 c 0
 1425 713 1432 707 1443 707 c 2
 1669 707 l 2
EndSplineSet
EndChar

StartChar: onequarter
Encoding: 188 188 352
Width: 2565
VWidth: 0
Flags: HW
LayerCount: 2
Fore
SplineSet
939 0 m 2
 981 0 1008 22 1017 63 c 2
 1287 1287 l 2
 1295 1324 1274 1349 1236 1349 c 2
 997 1349 l 2
 955 1349 928 1328 919 1287 c 2
 649 63 l 2
 641 26 662 0 700 0 c 2
 939 0 l 2
26 1135 m 2
 26 1097 48 1075 86 1075 c 2
 98 1075 l 2
 130 1075 148 1057 148 1025 c 2
 148 428 l 2
 148 388 172 364 212 364 c 2
 418 364 l 2
 458 364 482 388 482 428 c 2
 482 1179 l 2
 482 1219 458 1244 418 1244 c 2
 325 1244 l 2
 257 1244 225 1238 160 1217 c 0
 137 1210 112 1204 86 1201 c 0
 44 1196 26 1175 26 1136 c 2
 26 1135 l 2
2114 579 m 2
 2114 619 2090 643 2050 643 c 2
 1875 643 l 2
 1835 643 1810 619 1810 579 c 2
 1810 503 l 2
 1810 471 1792 453 1760 453 c 2
 1715 453 l 2
 1706 453 1700 458 1700 467 c 2
 1700 469 l 2
 1700 478 1702 489 1704 497 c 2
 1826 930 l 2
 1836 966 1817 992 1779 992 c 2
 1582 992 l 2
 1540 992 1511 970 1500 930 c 2
 1391 545 l 2
 1381 508 1374 457 1374 419 c 2
 1374 310 l 2
 1374 270 1398 246 1438 246 c 2
 1760 246 l 2
 1792 246 1810 228 1810 196 c 2
 1810 174 l 2
 1810 134 1835 110 1875 110 c 2
 2050 110 l 2
 2090 110 2114 134 2114 174 c 2
 2114 579 l 2
EndSplineSet
EndChar

StartChar: ordfeminine
Encoding: 170 170 353
Width: 1471
VWidth: 0
Flags: HW
LayerCount: 2
Fore
SplineSet
635 797 m 2
 667 797 685 779 685 747 c 2
 685 464 l 2
 685 432 667 414 635 414 c 2
 595 414 l 2
 563 414 545 432 545 464 c 2
 545 747 l 2
 545 779 563 797 595 797 c 2
 635 797 l 2
1167 1050 m 2
 1167 1071 1167 1094 1165 1118 c 0
 1157 1222 1090 1278 1003 1314 c 0
 903 1355 779 1367 625 1367 c 0
 552 1367 489 1364 436 1356 c 0
 267 1333 114 1281 114 1095 c 0
 114 1079 115 1062 117 1047 c 0
 120 1019 139 1002 167 1003 c 2
 504 1016 l 2
 544 1018 568 1043 568 1083 c 2
 568 1130 l 2
 568 1162 586 1180 618 1180 c 2
 635 1180 l 2
 667 1180 685 1162 685 1130 c 2
 685 959 l 2
 685 929 667 914 637 921 c 0
 586 934 528 942 460 942 c 0
 198 942 61 831 61 573 c 0
 61 335 176 222 417 222 c 0
 532 222 619 260 675 322 c 0
 694 343 714 339 725 313 c 2
 729 303 l 2
 744 265 773 245 814 245 c 2
 1126 245 l 2
 1166 245 1186 269 1180 308 c 2
 1158 453 l 2
 1156 465 1167 462 1158 453 c 2
 1167 462 l 1
 1167 1050 l 2
1167 462 m 1
 1168 462 l 2
 1176 470 1167 451 1167 462 c 2
 1167 462 l 1
EndSplineSet
EndChar

StartChar: ordmasculine
Encoding: 186 186 354
Width: 1334
VWidth: 0
Flags: HW
LayerCount: 2
Fore
SplineSet
571 807 m 2
 571 839 589 858 621 858 c 2
 633 858 l 2
 665 858 684 839 684 807 c 2
 684 319 l 2
 684 287 665 268 633 268 c 2
 621 268 l 2
 589 268 571 287 571 319 c 2
 571 807 l 2
1070 349 m 2
 1070 755 l 2
 1070 999 842 1019 630 1019 c 0
 429 1019 184 1002 184 755 c 2
 184 349 l 2
 184 97 414 84 629 84 c 1
 837 87 1070 94 1070 349 c 2
EndSplineSet
EndChar

StartChar: oslash
Encoding: 248 248 355
Width: 1465
VWidth: 0
Flags: HW
LayerCount: 2
Fore
SplineSet
556 885 m 2
 556 917 574 936 606 936 c 2
 646 936 l 2
 678 936 696 917 696 885 c 2
 696 732 l 2
 696 698 684 670 661 646 c 2
 591 574 l 2
 575 557 556 565 556 588 c 2
 556 885 l 2
556 389 m 2
 556 423 568 451 591 475 c 2
 661 547 l 2
 677 564 696 555 696 532 c 2
 696 248 l 2
 696 216 678 198 646 198 c 2
 606 198 l 2
 574 198 556 216 556 248 c 2
 556 389 l 2
144 16 m 2
 169 42 193 46 226 30 c 0
 330 -20 465 -33 629 -33 c 0
 785 -33 912 -18 1013 23 c 0
 1126 70 1180 146 1180 298 c 2
 1180 805 l 2
 1180 875 1171 930 1147 973 c 0
 1128 1008 1130 1027 1157 1055 c 2
 1166 1064 l 2
 1181 1079 1181 1097 1166 1112 c 2
 1164 1113 l 2
 1149 1128 1132 1128 1117 1113 c 2
 1100 1096 l 2
 1074 1070 1050 1065 1017 1080 c 0
 915 1125 786 1137 630 1137 c 0
 540 1137 463 1131 400 1121 c 0
 204 1090 73 1025 73 805 c 2
 73 298 l 2
 73 234 80 184 101 142 c 0
 119 106 116 86 88 58 c 2
 71 40 l 2
 56 25 56 7 71 -8 c 2
 73 -9 l 2
 88 -24 105 -24 120 -9 c 2
 144 16 l 2
620 1100 m 0
EndSplineSet
EndChar

StartChar: p
Encoding: 112 112 357
Width: 1476
VWidth: 0
Flags: HW
LayerCount: 2
Fore
SplineSet
567 884 m 2
 567 916 585 935 617 935 c 2
 658 935 l 2
 690 935 708 916 708 884 c 2
 708 219 l 2
 708 187 690 168 658 168 c 2
 617 168 l 2
 585 168 567 187 567 219 c 2
 567 884 l 2
1192 309 m 2
 1192 783 l 2
 1192 1013 1067 1123 834 1123 c 0
 727 1123 627 1093 564 1040 c 0
 542 1021 522 1028 513 1055 c 0
 503 1085 481 1100 449 1100 c 2
 148 1100 l 2
 108 1100 84 1076 84 1036 c 2
 84 -281 l 2
 84 -321 108 -345 148 -345 c 2
 503 -345 l 2
 543 -345 567 -321 567 -281 c 2
 567 20 l 2
 567 45 583 53 603 38 c 0
 659 -4 743 -23 837 -23 c 0
 1069 -23 1192 84 1192 309 c 2
EndSplineSet
EndChar

StartChar: paragraph
Encoding: 182 182 358
Width: 1318
VWidth: 0
Flags: HW
LayerCount: 2
Fore
SplineSet
500 64 m 2
 500 24 524 0 564 0 c 2
 657 0 l 2
 697 0 722 24 722 64 c 2
 722 511 l 2
 722 539 739 557 767 557 c 2
 769 557 l 2
 797 557 814 539 814 511 c 2
 814 64 l 2
 814 24 838 0 878 0 c 2
 970 0 l 2
 1010 0 1035 24 1035 64 c 2
 1035 1285 l 2
 1035 1325 1010 1349 970 1349 c 2
 583 1349 l 2
 289 1349 47 1283 47 937 c 0
 47 679 198 571 450 559 c 0
 483 557 500 539 500 506 c 2
 500 64 l 2
EndSplineSet
EndChar

StartChar: parenleft
Encoding: 40 40 359
Width: 860
VWidth: 0
Flags: HW
LayerCount: 2
Fore
SplineSet
574 -143 m 2
 614 -143 l 2
 638 -143 652 -128 652 -104 c 2
 652 66 l 2
 652 83 643 93 626 93 c 2
 597 93 l 2
 461 93 383 395 383 700 c 0
 383 1005 461 1321 597 1321 c 2
 626 1321 l 2
 643 1321 652 1331 652 1348 c 2
 652 1519 l 2
 652 1543 638 1557 614 1557 c 2
 574 1557 l 2
 214 1557 43 1124 43 700 c 0
 43 276 214 -143 574 -143 c 2
EndSplineSet
EndChar

StartChar: parenright
Encoding: 41 41 360
Width: 861
VWidth: 0
Flags: HW
LayerCount: 2
Fore
SplineSet
155 1557 m 2
 115 1557 l 2
 91 1557 76 1543 76 1519 c 2
 76 1348 l 2
 76 1331 86 1321 103 1321 c 2
 131 1321 l 2
 267 1321 345 1005 345 700 c 0
 345 395 267 93 131 93 c 2
 103 93 l 2
 86 93 76 83 76 66 c 2
 76 -104 l 2
 76 -128 91 -143 115 -143 c 2
 155 -143 l 2
 515 -143 685 276 685 700 c 0
 685 1124 515 1557 155 1557 c 2
EndSplineSet
EndChar

StartChar: percent
Encoding: 37 37 361
Width: 2792
VWidth: 0
Flags: HW
LayerCount: 2
Fore
SplineSet
1244 1381 m 2
 1202 1381 1175 1359 1166 1318 c 2
 873 30 l 2
 865 -7 885 -33 923 -33 c 2
 1123 -33 l 2
 1165 -33 1192 -11 1201 30 c 2
 1491 1318 l 2
 1499 1355 1479 1381 1441 1381 c 2
 1244 1381 l 2
2255 374 m 2
 2255 676 l 2
 2255 924 2062 938 1873 938 c 0
 1683 938 1493 923 1493 675 c 2
 1493 373 l 2
 1493 123 1684 109 1874 109 c 0
 2061 109 2255 130 2255 374 c 2
1914 331 m 2
 1914 308 1899 294 1876 294 c 2
 1875 294 l 2
 1852 294 1838 308 1838 331 c 2
 1838 717 l 2
 1838 740 1852 755 1875 755 c 2
 1876 755 l 2
 1899 755 1914 740 1914 717 c 2
 1914 331 l 2
867 786 m 2
 867 1090 l 2
 867 1335 673 1349 486 1349 c 0
 298 1349 106 1334 106 1088 c 2
 106 784 l 2
 106 527 295 523 486 523 c 0
 675 523 867 533 867 786 c 2
527 742 m 2
 527 718 513 705 489 705 c 2
 488 705 l 2
 464 705 450 718 450 742 c 2
 450 1128 l 2
 450 1152 464 1166 488 1166 c 2
 489 1166 l 2
 513 1166 527 1152 527 1128 c 2
 527 742 l 2
EndSplineSet
EndChar

StartChar: period
Encoding: 46 46 362
Width: 670
VWidth: 0
Flags: HW
LayerCount: 2
Fore
SplineSet
288 -33 m 0
 374 -33 460 27 460 145 c 0
 460 263 374 322 288 322 c 0
 202 322 115 263 115 145 c 0
 115 27 202 -33 288 -33 c 0
EndSplineSet
EndChar

StartChar: periodcentered
Encoding: 183 183 363
Width: 670
VWidth: 0
Flags: HW
LayerCount: 2
Fore
SplineSet
288 -33 m 0
 374 -33 460 27 460 145 c 0
 460 263 374 322 288 322 c 0
 202 322 115 263 115 145 c 0
 115 27 202 -33 288 -33 c 0
EndSplineSet
EndChar

StartChar: plus
Encoding: 43 43 364
Width: 1328
VWidth: 0
Flags: HW
LayerCount: 2
Fore
SplineSet
152 686 m 2
 112 686 88 662 88 622 c 2
 88 469 l 2
 88 429 112 404 152 404 c 2
 346 404 l 2
 378 404 397 386 397 354 c 2
 397 149 l 2
 397 109 421 85 461 85 c 2
 664 85 l 2
 704 85 728 109 728 149 c 2
 728 354 l 2
 728 386 747 404 779 404 c 2
 972 404 l 2
 1012 404 1036 429 1036 469 c 2
 1036 622 l 2
 1036 662 1012 686 972 686 c 2
 779 686 l 2
 747 686 728 705 728 737 c 2
 728 944 l 2
 728 984 704 1008 664 1008 c 2
 461 1008 l 2
 421 1008 397 984 397 944 c 2
 397 737 l 2
 397 705 378 686 346 686 c 2
 152 686 l 2
EndSplineSet
EndChar

StartChar: plusminus
Encoding: 177 177 365
Width: 1304
VWidth: 0
Flags: HW
LayerCount: 2
Fore
SplineSet
259 254 m 2
 219 254 195 230 195 190 c 2
 195 63 l 2
 195 23 219 -1 259 -1 c 2
 836 -1 l 2
 876 -1 900 23 900 63 c 2
 900 190 l 2
 900 230 876 254 836 254 c 2
 259 254 l 2
142 1027 m 2
 102 1027 78 1003 78 963 c 2
 78 810 l 2
 78 770 102 745 142 745 c 2
 336 745 l 2
 368 745 387 727 387 695 c 2
 387 490 l 2
 387 450 411 426 451 426 c 2
 654 426 l 2
 694 426 718 450 718 490 c 2
 718 695 l 2
 718 727 737 745 769 745 c 2
 962 745 l 2
 1002 745 1026 770 1026 810 c 2
 1026 963 l 2
 1026 1003 1002 1027 962 1027 c 2
 769 1027 l 2
 737 1027 718 1045 718 1077 c 2
 718 1285 l 2
 718 1325 694 1349 654 1349 c 2
 451 1349 l 2
 411 1349 387 1325 387 1285 c 2
 387 1077 l 2
 387 1045 368 1027 336 1027 c 2
 142 1027 l 2
EndSplineSet
EndChar

StartChar: product
Encoding: 8719 8719 366
Width: 1788
VWidth: 0
Flags: HW
LayerCount: 2
Fore
SplineSet
200 1349 m 2
 159 1349 138 1324 135 1285 c 0
 118 1073 118 867 118 668 c 0
 118 459 119 258 135 64 c 0
 138 24 159 0 200 0 c 2
 591 0 l 2
 632 0 655 23 655 64 c 2
 655 1130 l 2
 655 1162 657 1164 689 1164 c 2
 823 1164 l 2
 855 1164 857 1162 857 1130 c 2
 857 64 l 2
 857 23 880 0 921 0 c 2
 1312 0 l 2
 1353 0 1372 23 1376 64 c 0
 1394 239 1394 463 1394 685 c 0
 1394 904 1394 1121 1376 1285 c 0
 1372 1325 1353 1349 1312 1349 c 2
 200 1349 l 2
EndSplineSet
EndChar

StartChar: q
Encoding: 113 113 367
Width: 1459
VWidth: 0
Flags: HW
LayerCount: 2
Fore
SplineSet
691 219 m 2
 691 187 673 168 641 168 c 2
 602 168 l 2
 570 168 552 187 552 219 c 2
 552 884 l 2
 552 916 570 935 602 935 c 2
 641 935 l 2
 673 935 691 916 691 884 c 2
 691 219 l 2
73 309 m 2
 73 84 192 -23 424 -23 c 0
 522 -23 607 -3 666 40 c 0
 687 55 704 46 704 21 c 2
 704 -281 l 2
 704 -321 728 -345 768 -345 c 2
 1104 -345 l 2
 1144 -345 1168 -321 1168 -281 c 2
 1168 1036 l 2
 1168 1076 1144 1100 1104 1100 c 2
 784 1100 l 2
 752 1100 729 1084 719 1053 c 2
 715 1041 l 2
 708 1022 695 1018 680 1032 c 0
 671 1040 661 1049 650 1056 c 0
 594 1093 515 1123 425 1123 c 0
 192 1123 72 1010 72 783 c 1
 73 783 l 1
 73 309 l 2
EndSplineSet
EndChar

StartChar: question
Encoding: 63 63 368
Width: 955
VWidth: 0
Flags: HW
LayerCount: 2
Fore
SplineSet
344 -33 m 0
 430 -33 517 27 517 145 c 0
 517 263 430 322 344 322 c 0
 258 322 172 263 172 145 c 0
 172 27 258 -33 344 -33 c 0
781 1111 m 0
 781 1246 698 1381 415 1381 c 0
 347 1381 263 1368 162 1340 c 0
 123 1329 103 1299 107 1259 c 2
 124 1094 l 2
 128 1055 153 1038 191 1050 c 0
 233 1063 267 1069 295 1069 c 0
 382 1069 415 1025 415 973 c 0
 415 965 415 958 414 950 c 0
 391 828 291 688 291 492 c 0
 291 453 308 431 343 431 c 0
 366 431 391 444 395 480 c 0
 429 772 781 854 781 1111 c 0
EndSplineSet
EndChar

StartChar: questiondown
Encoding: 191 191 369
Width: 906
VWidth: 0
Flags: HW
LayerCount: 2
Fore
SplineSet
468 1385 m 0
 382 1385 295 1325 295 1207 c 0
 295 1089 382 1030 468 1030 c 0
 554 1030 640 1089 640 1207 c 0
 640 1325 554 1385 468 1385 c 0
31 241 m 0
 31 106 115 -29 398 -29 c 0
 466 -29 549 -16 650 12 c 0
 689 23 709 53 705 93 c 2
 688 258 l 2
 684 297 659 314 621 302 c 0
 579 289 545 283 517 283 c 0
 430 283 397 327 397 379 c 0
 397 387 397 394 398 402 c 0
 421 524 521 664 521 860 c 0
 521 899 505 920 470 920 c 0
 447 920 421 908 417 872 c 0
 383 580 31 498 31 241 c 0
EndSplineSet
EndChar

StartChar: quotedbl
Encoding: 34 34 370
Width: 1213
VWidth: 0
Flags: HW
LayerCount: 2
Fore
SplineSet
704 708 m 0
 723 708 742 725 750 758 c 0
 788 919 867 1137 867 1228 c 0
 867 1326 784 1378 702 1378 c 0
 622 1378 545 1330 545 1230 c 0
 545 1141 619 922 657 758 c 1
 666 724 685 708 704 708 c 0
283 708 m 0
 302 708 322 725 330 758 c 0
 368 919 447 1137 447 1228 c 0
 447 1326 364 1378 282 1378 c 0
 202 1378 124 1330 124 1230 c 0
 124 1141 199 922 237 758 c 1
 246 724 264 708 283 708 c 0
EndSplineSet
EndChar

StartChar: quotedblbase
Encoding: 8222 8222 371
Width: 1229
VWidth: 0
Flags: HW
LayerCount: 2
Fore
SplineSet
711 -346 m 0
 730 -346 750 -329 758 -296 c 0
 796 -135 875 83 875 174 c 0
 875 272 792 324 710 324 c 0
 630 324 552 276 552 176 c 0
 552 87 627 -132 665 -296 c 1
 674 -330 692 -346 711 -346 c 0
291 -346 m 0
 310 -346 330 -329 338 -296 c 0
 376 -135 454 83 454 174 c 0
 454 272 371 324 289 324 c 0
 209 324 132 276 132 176 c 0
 132 87 206 -132 244 -296 c 1
 253 -330 272 -346 291 -346 c 0
EndSplineSet
EndChar

StartChar: quotedblleft
Encoding: 8220 8220 372
Width: 1339
VWidth: 0
Flags: HW
LayerCount: 2
Fore
SplineSet
463 1169 m 0
 432 1182 424 1229 449 1251 c 0
 463 1264 481 1272 501 1278 c 0
 535 1288 546 1302 546 1336 c 2
 546 1359 l 2
 546 1370 539 1377 528 1378 c 0
 521 1378 514 1379 508 1379 c 0
 321 1379 215 1194 215 1038 c 0
 215 929 271 835 393 835 c 0
 479 835 565 891 565 1004 c 0
 565 1090 521 1145 463 1169 c 0
888 1169 m 0
 857 1182 849 1229 874 1251 c 0
 888 1264 906 1272 926 1278 c 0
 960 1288 971 1302 971 1336 c 2
 971 1359 l 2
 971 1370 964 1377 953 1378 c 0
 946 1378 940 1379 934 1379 c 0
 747 1379 640 1194 640 1038 c 0
 640 929 696 835 818 835 c 0
 904 835 991 891 991 1004 c 0
 991 1090 946 1145 888 1169 c 0
EndSplineSet
EndChar

StartChar: quotedblright
Encoding: 8221 8221 373
Width: 1327
VWidth: 0
Flags: HW
LayerCount: 2
Fore
SplineSet
743 1045 m 0
 774 1032 782 985 757 963 c 0
 743 950 725 942 705 936 c 0
 671 926 660 912 660 878 c 2
 660 855 l 2
 660 844 667 837 678 836 c 0
 685 836 691 835 697 835 c 0
 884 835 991 1020 991 1176 c 0
 991 1285 935 1379 813 1379 c 0
 727 1379 640 1323 640 1210 c 0
 640 1124 685 1069 743 1045 c 0
317 1045 m 0
 348 1032 356 985 331 963 c 0
 317 950 299 942 279 936 c 0
 245 926 234 912 234 878 c 2
 234 855 l 2
 234 844 241 837 252 836 c 0
 259 836 266 835 272 835 c 0
 459 835 565 1020 565 1176 c 0
 565 1285 509 1379 387 1379 c 0
 301 1379 215 1323 215 1210 c 0
 215 1124 259 1069 317 1045 c 0
EndSplineSet
EndChar

StartChar: quoteleft
Encoding: 8216 8216 374
Width: 722
VWidth: 0
Flags: HW
LayerCount: 2
Fore
SplineSet
379 1169 m 0
 348 1182 340 1229 365 1251 c 0
 379 1264 397 1272 417 1278 c 0
 451 1288 462 1302 462 1336 c 2
 462 1359 l 2
 462 1370 455 1377 444 1378 c 0
 437 1378 431 1379 425 1379 c 0
 238 1379 131 1194 131 1038 c 0
 131 929 189 835 317 835 c 0
 399 835 481 891 481 1004 c 0
 481 1090 437 1145 379 1169 c 0
EndSplineSet
EndChar

StartChar: quoteright
Encoding: 8217 8217 375
Width: 706
VWidth: 0
Flags: HW
LayerCount: 2
Fore
SplineSet
233 1045 m 0
 264 1032 272 985 247 963 c 0
 233 950 215 942 195 936 c 0
 161 926 150 912 150 878 c 2
 150 855 l 2
 150 844 157 837 168 836 c 0
 175 836 181 835 187 835 c 0
 374 835 481 1020 481 1176 c 0
 481 1285 425 1379 303 1379 c 0
 217 1379 130 1323 130 1210 c 0
 130 1124 175 1069 233 1045 c 0
EndSplineSet
EndChar

StartChar: quotesinglbase
Encoding: 8218 8218 376
Width: 648
VWidth: 0
Flags: HW
LayerCount: 2
Fore
SplineSet
261 -346 m 0
 280 -346 299 -329 307 -296 c 0
 345 -135 424 83 424 174 c 0
 424 272 341 324 259 324 c 0
 179 324 102 276 102 176 c 0
 102 87 176 -132 214 -296 c 1
 223 -330 242 -346 261 -346 c 0
EndSplineSet
EndChar

StartChar: quotesingle
Encoding: 39 39 377
Width: 629
VWidth: 0
Flags: HW
LayerCount: 2
Fore
SplineSet
283 708 m 0
 302 708 322 725 330 758 c 0
 368 919 447 1137 447 1228 c 0
 447 1326 364 1378 282 1378 c 0
 202 1378 124 1330 124 1230 c 0
 124 1141 199 922 237 758 c 1
 246 724 264 708 283 708 c 0
EndSplineSet
EndChar

StartChar: r
Encoding: 114 114 378
Width: 981
VWidth: 0
Flags: HW
LayerCount: 2
Fore
SplineSet
503 0 m 2
 543 0 568 24 568 64 c 2
 568 705 l 2
 568 738 585 759 617 765 c 2
 747 791 l 2
 788 799 810 825 810 867 c 2
 810 1062 l 2
 810 1098 782 1123 746 1117 c 0
 665 1104 597 1070 557 1019 c 0
 541 999 524 1003 517 1027 c 2
 514 1038 l 2
 503 1078 475 1100 433 1100 c 2
 150 1100 l 2
 110 1100 85 1076 85 1036 c 2
 85 64 l 2
 85 24 109 0 149 0 c 2
 503 0 l 2
415 1100 m 0
415 0 m 0
EndSplineSet
EndChar

StartChar: registered
Encoding: 174 174 382
Width: 1861
VWidth: 0
Flags: HW
LayerCount: 2
Fore
SplineSet
757 1044 m 2
 757 1065 770 1078 791 1078 c 2
 793 1078 l 2
 814 1078 827 1065 827 1044 c 2
 827 808 l 2
 827 787 814 774 793 774 c 2
 791 774 l 2
 770 774 757 787 757 808 c 2
 757 1044 l 2
944 715 m 2
 944 719 947 723 951 723 c 2
 1037 731 l 2
 1106 737 1151 799 1151 906 c 2
 1151 985 l 2
 1151 1204 991 1213 860 1213 c 2
 492 1213 l 2
 452 1213 428 1189 428 1149 c 2
 428 300 l 2
 428 260 452 236 492 236 c 2
 693 236 l 2
 733 236 757 260 757 300 c 2
 757 605 l 2
 757 626 770 640 791 640 c 2
 793 640 l 2
 814 640 827 626 827 605 c 2
 827 300 l 2
 827 260 852 236 892 236 c 2
 1084 236 l 2
 1124 236 1148 260 1148 300 c 2
 1148 544 l 2
 1148 635 1109 695 1038 700 c 2
 951 706 l 2
 947 706 944 710 944 714 c 2
 944 715 l 2
788 1331 m 0
 1078 1331 1304 1269 1304 986 c 2
 1304 408 l 2
 1304 132 1099 58 788 58 c 0
 442 58 273 143 273 453 c 2
 273 942 l 2
 273 1244 439 1331 788 1331 c 0
1506 456 m 2
 1506 944 l 2
 1506 1362 1219 1480 788 1480 c 0
 414 1480 71 1386 71 944 c 2
 71 456 l 2
 71 36 356 -85 788 -85 c 0
 1164 -85 1506 12 1506 456 c 2
EndSplineSet
EndChar

StartChar: ring
Encoding: 730 730 383
Width: 805
VWidth: 0
Flags: HW
LayerCount: 2
Fore
SplineSet
443 364 m 0
 443 307 398 261 341 261 c 0
 283 261 239 306 239 364 c 0
 239 423 282 467 341 467 c 0
 399 467 443 422 443 364 c 0
83 258 m 0
 124 167 214 93 343 93 c 0
 382 93 418 100 452 114 c 0
 544 152 624 237 624 364 c 0
 624 402 616 437 602 470 c 0
 561 561 472 636 343 636 c 0
 304 636 268 629 233 615 c 0
 140 577 61 492 61 364 c 0
 61 327 69 291 83 258 c 0
343 1100 m 0
EndSplineSet
EndChar

StartChar: s
Encoding: 115 115 384
Width: 1434
VWidth: 0
Flags: HW
LayerCount: 2
Fore
SplineSet
601 -23 m 0
 886 -23 1166 5 1166 355 c 0
 1166 532 1106 637 869 673 c 0
 780 687 674 701 580 716 c 0
 558 720 541 731 541 743 c 2
 541 849 l 2
 541 881 560 899 592 899 c 2
 632 899 l 2
 664 899 683 881 683 849 c 2
 683 827 l 2
 683 786 706 762 747 760 c 2
 1105 739 l 2
 1125 738 1140 751 1140 772 c 2
 1140 809 l 2
 1140 1108 856 1123 625 1123 c 0
 310 1123 59 1071 59 761 c 0
 59 579 106 465 357 429 c 0
 446 416 552 402 646 389 c 0
 679 385 683 346 683 334 c 2
 683 248 l 2
 683 216 664 197 632 197 c 2
 592 197 l 2
 560 197 541 216 541 248 c 2
 541 274 l 2
 541 315 518 340 477 342 c 2
 99 365 l 2
 91 366 85 360 85 352 c 2
 85 336 l 2
 85 7 303 -23 601 -23 c 0
607 1100 m 0
607 0 m 0
EndSplineSet
EndChar

StartChar: section
Encoding: 167 167 390
Width: 1362
VWidth: 0
Flags: HW
LayerCount: 2
Fore
SplineSet
577 633 m 2
 559 633 548 643 548 661 c 2
 548 793 l 2
 548 811 559 821 577 821 c 2
 578 821 l 2
 596 821 607 811 607 793 c 2
 607 661 l 2
 607 643 596 633 578 633 c 2
 577 633 l 2
973 551 m 1
 1033 513 l 2
 968 554 972 599 1043 633 c 2
 989 607 l 2
 987 606 987 607 989 608 c 0
 1050 644 1095 705 1095 803 c 0
 1095 1025 816 1034 656 1041 c 0
 641 1042 622 1042 604 1043 c 0
 586 1044 556 1077 556 1095 c 2
 556 1236 l 2
 556 1255 567 1266 586 1266 c 2
 588 1266 l 2
 607 1266 618 1255 618 1236 c 2
 618 1169 l 2
 618 1129 642 1105 682 1105 c 2
 1041 1105 l 2
 1069 1105 1085 1120 1085 1148 c 0
 1085 1163 1085 1179 1085 1194 c 0
 1085 1480 816 1497 594 1497 c 0
 308 1497 74 1461 74 1124 c 0
 74 1020 118 953 180 910 c 0
 205 893 203 877 131 848 c 2
 196 873 l 1
 120 840 62 771 62 662 c 0
 62 469 195 412 385 412 c 2
 550 412 l 2
 582 412 601 394 601 362 c 2
 601 229 l 2
 601 210 590 199 571 199 c 2
 569 199 l 2
 550 199 539 210 539 229 c 2
 539 296 l 2
 539 336 515 360 475 360 c 2
 117 360 l 2
 89 360 72 345 72 317 c 0
 72 302 72 287 72 272 c 0
 72 -15 340 -34 562 -34 c 0
 848 -34 1081 2 1081 339 c 0
 1081 444 1035 510 973 551 c 1
EndSplineSet
EndChar

StartChar: semicolon
Encoding: 59 59 391
Width: 710
VWidth: 0
Flags: HW
LayerCount: 2
Fore
SplineSet
292 781 m 0
 378 781 464 841 464 959 c 0
 464 1077 378 1136 292 1136 c 0
 206 1136 119 1077 119 959 c 0
 119 841 206 781 292 781 c 0
222 109 m 0
 253 96 261 49 236 27 c 0
 222 14 204 5 184 -1 c 0
 150 -11 139 -24 139 -58 c 2
 139 -82 l 2
 139 -93 146 -100 157 -101 c 0
 164 -101 170 -102 176 -102 c 0
 363 -102 470 83 470 239 c 0
 470 348 414 442 292 442 c 0
 206 442 119 386 119 273 c 0
 119 187 164 133 222 109 c 0
EndSplineSet
EndChar

StartChar: seven
Encoding: 55 55 392
Width: 991
VWidth: 0
Flags: HW
LayerCount: 2
Fore
SplineSet
98 1349 m 2
 58 1349 34 1325 34 1285 c 2
 34 1210 l 2
 34 1170 58 1145 98 1145 c 2
 232 1145 l 2
 262 1145 279 1126 274 1096 c 2
 105 63 l 2
 99 25 120 0 159 0 c 2
 542 0 l 2
 583 0 609 22 616 63 c 2
 786 1080 l 2
 792 1116 797 1171 797 1207 c 2
 797 1285 l 2
 797 1325 773 1349 733 1349 c 2
 98 1349 l 2
EndSplineSet
EndChar

StartChar: six
Encoding: 54 54 393
Width: 1448
VWidth: 0
Flags: HW
LayerCount: 2
Fore
SplineSet
1169 442 m 0
 1169 796 1035 904 644 904 c 2
 589 904 l 2
 557 904 539 922 539 954 c 2
 539 1108 l 2
 539 1140 557 1158 589 1158 c 2
 626 1158 l 2
 658 1158 677 1140 677 1108 c 2
 677 1044 l 2
 677 1004 701 980 741 980 c 2
 1094 980 l 2
 1114 980 1126 992 1125 1012 c 0
 1125 1023 1124 1035 1124 1047 c 0
 1124 1361 818 1381 607 1381 c 0
 264 1381 72 1265 72 893 c 2
 72 403 l 2
 72 79 264 -33 607 -33 c 1
 956 -30 1169 52 1169 442 c 0
538 625 m 2
 538 657 556 675 588 675 c 2
 640 675 l 2
 672 675 690 657 690 625 c 2
 690 250 l 2
 690 218 672 200 640 200 c 2
 588 200 l 2
 556 200 538 218 538 250 c 2
 538 625 l 2
EndSplineSet
EndChar

StartChar: slash
Encoding: 47 47 394
Width: 1056
VWidth: 0
Flags: HW
LayerCount: 2
Fore
SplineSet
419 0 m 2
 461 0 488 22 497 63 c 2
 766 1287 l 2
 774 1324 754 1349 716 1349 c 2
 477 1349 l 2
 435 1349 408 1328 399 1287 c 2
 129 63 l 2
 121 26 141 0 179 0 c 2
 419 0 l 2
EndSplineSet
EndChar

StartChar: sterling
Encoding: 163 163 396
Width: 1598
VWidth: 0
Flags: HW
LayerCount: 2
Fore
SplineSet
63 64 m 2
 63 24 87 0 127 0 c 2
 255 0 l 1
 345 1 421 2 490 14 c 0
 551 25 589 45 624 75 c 0
 647 95 677 93 683 87 c 0
 686 84 690 81 693 77 c 0
 742 25 821 0 928 0 c 0
 1036 0 1121 16 1184 55 c 0
 1268 107 1293 193 1293 326 c 2
 1293 411 l 2
 1293 451 1268 475 1228 475 c 2
 865 475 l 2
 825 475 801 451 801 411 c 2
 801 277 l 2
 801 245 783 227 751 227 c 2
 743 227 l 2
 711 227 693 245 693 277 c 2
 693 557 l 2
 693 589 711 607 743 607 c 2
 990 607 l 2
 1030 607 1054 632 1054 672 c 2
 1054 731 l 2
 1054 771 1030 795 990 795 c 2
 743 795 l 2
 711 795 693 814 693 846 c 2
 693 1110 l 2
 693 1138 709 1154 737 1154 c 2
 739 1154 l 2
 767 1154 783 1138 783 1110 c 2
 783 969 l 2
 783 929 808 905 848 905 c 2
 1211 905 l 2
 1251 905 1275 929 1275 969 c 2
 1275 1055 l 2
 1275 1078 1274 1101 1272 1126 c 0
 1264 1232 1203 1290 1118 1327 c 0
 1023 1368 904 1381 755 1381 c 0
 561 1381 388 1369 293 1278 c 0
 210 1198 198 1066 198 901 c 2
 198 847 l 2
 198 815 180 796 148 796 c 2
 128 796 l 2
 88 796 64 772 64 732 c 2
 64 672 l 2
 64 632 88 608 128 608 c 2
 148 608 l 2
 180 608 198 590 198 558 c 2
 198 318 l 2
 198 251 124 233 64 225 c 0
 64 225 l 2
 63 224 l 2
 63 224 l 2
 63 64 l 2
EndSplineSet
EndChar

StartChar: t
Encoding: 116 116 397
Width: 968
VWidth: 0
Flags: HW
LayerCount: 2
Fore
SplineSet
646 897 m 2
 646 929 648 931 680 931 c 2
 717 931 l 2
 757 931 781 955 781 995 c 2
 781 1036 l 2
 781 1076 757 1100 717 1100 c 2
 680 1100 l 2
 648 1100 646 1102 646 1134 c 2
 646 1285 l 2
 646 1325 622 1349 582 1349 c 2
 227 1349 l 2
 187 1349 163 1325 163 1285 c 2
 163 1134 l 2
 163 1102 161 1100 129 1100 c 2
 104 1100 l 2
 68 1100 47 1079 47 1043 c 2
 47 988 l 2
 47 952 68 931 104 931 c 2
 129 931 l 2
 161 931 163 929 163 897 c 2
 163 64 l 2
 163 24 187 0 227 0 c 2
 582 0 l 2
 622 0 646 24 646 64 c 2
 646 897 l 2
409 550 m 0
409 0 m 0
EndSplineSet
EndChar

StartChar: thorn
Encoding: 254 254 399
Width: 1430
VWidth: 0
Flags: HW
LayerCount: 2
Fore
SplineSet
570 857 m 2
 570 887 588 904 618 904 c 2
 619 904 l 2
 649 904 667 887 667 857 c 2
 667 243 l 2
 667 213 649 195 619 195 c 2
 618 195 l 2
 588 195 570 213 570 243 c 2
 570 857 l 2
571 1291 m 2
 571 1331 547 1355 507 1355 c 2
 152 1355 l 2
 112 1355 88 1331 88 1291 c 2
 88 -282 l 2
 88 -322 112 -346 152 -346 c 2
 507 -346 l 2
 547 -346 571 -322 571 -282 c 2
 571 49 l 2
 571 56 576 58 581 52 c 0
 585 47 589 42 593 37 c 0
 631 -11 709 -20 802 -20 c 0
 908 -20 990 -1 1048 41 c 0
 1128 99 1152 194 1152 330 c 2
 1152 768 l 2
 1152 791 1152 816 1151 842 c 0
 1143 1042 1015 1119 802 1119 c 0
 694 1119 604 1106 571 1038 c 1
 571 1291 l 2
571 1036 m 1
 571 1036 l 2
 591 1036 571 1016 571 1036 c 2
 571 1036 l 1
EndSplineSet
EndChar

StartChar: three
Encoding: 51 51 400
Width: 1436
VWidth: 0
Flags: HW
LayerCount: 2
Fore
SplineSet
61 937 m 0
 61 925 62 913 62 901 c 0
 63 880 77 866 98 866 c 2
 466 866 l 2
 506 866 530 891 530 931 c 2
 530 1101 l 2
 530 1133 549 1151 581 1151 c 2
 626 1151 l 2
 658 1151 676 1133 676 1101 c 2
 676 838 l 2
 676 806 658 788 626 788 c 2
 521 788 l 2
 481 788 457 763 457 723 c 2
 457 662 l 2
 457 622 481 598 521 598 c 2
 626 598 l 2
 658 598 676 580 676 548 c 2
 676 249 l 2
 676 217 658 199 626 199 c 2
 581 199 l 2
 549 199 530 217 530 249 c 2
 530 454 l 2
 530 494 506 519 466 519 c 2
 102 519 l 2
 78 519 62 503 61 479 c 0
 60 465 60 451 60 437 c 0
 60 120 229 -33 606 -33 c 0
 940 -33 1156 67 1156 442 c 0
 1156 543 1114 625 1030 673 c 0
 1007 686 1007 703 1029 716 c 0
 1106 762 1154 836 1154 942 c 0
 1154 1274 970 1381 604 1381 c 0
 248 1381 61 1271 61 937 c 0
EndSplineSet
EndChar

StartChar: threequarters
Encoding: 190 190 401
Width: 2894
VWidth: 0
Flags: HW
LayerCount: 2
Fore
SplineSet
1251 0 m 2
 1293 0 1320 22 1329 63 c 2
 1599 1287 l 2
 1607 1324 1586 1349 1548 1349 c 2
 1310 1349 l 2
 1268 1349 1240 1328 1231 1287 c 2
 961 63 l 2
 953 26 974 0 1012 0 c 2
 1251 0 l 2
478 1268 m 0
 241 1268 118 1197 118 975 c 0
 118 967 118 959 118 951 c 0
 119 937 128 929 142 929 c 2
 366 929 l 2
 406 929 430 953 430 993 c 2
 430 1071 l 2
 430 1100 448 1118 477 1118 c 2
 478 1118 l 2
 507 1118 525 1100 525 1071 c 2
 525 928 l 2
 525 896 507 877 475 877 c 2
 442 877 l 2
 403 877 381 855 381 816 c 2
 381 814 l 2
 381 775 403 752 442 752 c 2
 475 752 l 2
 507 752 525 734 525 702 c 2
 525 534 l 2
 525 505 507 487 478 487 c 2
 477 487 l 2
 448 487 430 505 430 534 c 2
 430 635 l 2
 430 675 406 699 366 699 c 2
 145 699 l 2
 130 699 119 689 118 674 c 0
 118 665 118 656 118 647 c 0
 118 435 229 333 479 333 c 0
 729 333 843 412 843 620 c 0
 843 692 819 754 769 791 c 0
 746 808 746 823 769 840 c 0
 814 873 842 924 842 994 c 0
 842 1203 706 1268 478 1268 c 0
2392 579 m 2
 2392 619 2368 643 2328 643 c 2
 2153 643 l 2
 2113 643 2089 619 2089 579 c 2
 2089 503 l 2
 2089 471 2070 453 2038 453 c 2
 1993 453 l 2
 1984 453 1979 458 1979 467 c 2
 1979 469 l 2
 1979 478 1981 489 1983 497 c 2
 2104 930 l 2
 2114 966 2096 992 2058 992 c 2
 1860 992 l 2
 1818 992 1790 970 1779 930 c 2
 1670 545 l 2
 1660 508 1652 457 1652 419 c 2
 1652 310 l 2
 1652 270 1676 246 1716 246 c 2
 2038 246 l 2
 2070 246 2089 228 2089 196 c 2
 2089 174 l 2
 2089 134 2113 110 2153 110 c 2
 2328 110 l 2
 2368 110 2392 134 2392 174 c 2
 2392 579 l 2
EndSplineSet
EndChar

StartChar: tilde
Encoding: 732 732 402
Width: 1422
VWidth: 0
Flags: HW
LayerCount: 2
Fore
SplineSet
1086 81 m 2
 1125 81 1150 106 1149 145 c 0
 1142 400 1088 547 806 547 c 0
 663 547 584 485 503 426 c 0
 478 407 449 383 412 383 c 0
 361 383 335 417 324 462 c 0
 312 510 292 525 243 525 c 2
 129 525 l 2
 90 525 66 500 68 461 c 0
 71 405 79 357 90 318 c 1
 128 149 211 59 411 59 c 0
 559 59 642 116 722 179 c 0
 746 198 772 220 809 220 c 0
 878 220 902 151 902 82 c 0
 1086 81 l 2
609 1100 m 0
EndSplineSet
EndChar

StartChar: trademark
Encoding: 8482 8482 403
Width: 1884
VWidth: 0
Flags: HW
LayerCount: 2
Fore
SplineSet
1092 556 m 2
 1120 556 1140 570 1147 597 c 2
 1189 756 l 2
 1193 769 1202 768 1202 754 c 2
 1202 620 l 2
 1202 580 1226 556 1266 556 c 2
 1451 556 l 2
 1491 556 1515 580 1515 620 c 2
 1515 1285 l 2
 1515 1325 1491 1349 1451 1349 c 2
 1207 1349 l 2
 1166 1349 1140 1327 1134 1286 c 2
 1099 1030 l 2
 1097 1016 1086 1015 1084 1029 c 2
 1045 1286 l 2
 1039 1327 1011 1349 970 1349 c 2
 732 1349 l 2
 692 1349 667 1325 667 1285 c 2
 667 620 l 2
 667 580 692 556 732 556 c 2
 917 556 l 2
 957 556 981 580 981 620 c 2
 981 754 l 2
 981 768 990 769 994 756 c 2
 1036 598 l 2
 1043 571 1062 556 1090 556 c 2
 1092 556 l 2
99 1349 m 2
 62 1349 40 1327 40 1290 c 2
 40 1288 l 2
 40 1251 62 1229 99 1229 c 2
 126 1229 l 2
 158 1229 177 1211 177 1179 c 2
 177 620 l 2
 177 580 201 556 241 556 c 2
 428 556 l 2
 468 556 492 580 492 620 c 2
 492 1179 l 2
 492 1211 511 1229 543 1229 c 2
 571 1229 l 2
 608 1229 630 1251 630 1288 c 2
 630 1290 l 2
 630 1327 608 1349 571 1349 c 2
 99 1349 l 2
EndSplineSet
EndChar

StartChar: two
Encoding: 50 50 404
Width: 1403
VWidth: 0
Flags: HW
LayerCount: 2
Fore
SplineSet
469 900 m 2
 509 900 533 924 533 964 c 2
 533 1098 l 2
 533 1130 551 1149 583 1149 c 2
 611 1149 l 2
 643 1149 662 1130 662 1098 c 2
 662 919 l 2
 662 837 565 792 485 753 c 1
 245 641 66 507 66 170 c 2
 66 65 l 2
 66 25 90 1 130 1 c 2
 1016 1 l 2
 1056 1 1080 25 1080 65 c 2
 1080 190 l 2
 1080 230 1056 255 1016 255 c 2
 576 255 l 2
 551 255 533 280 542 304 c 0
 569 378 652 425 726 461 c 0
 910 550 1141 657 1141 952 c 0
 1141 1269 963 1382 607 1382 c 0
 293 1382 64 1300 64 951 c 0
 64 943 65 934 65 925 c 0
 66 910 75 900 90 900 c 2
 469 900 l 2
EndSplineSet
EndChar

StartChar: u
Encoding: 117 117 405
Width: 1577
VWidth: 0
Flags: HW
LayerCount: 2
Fore
SplineSet
719 58 m 0
 727 66 736 69 743 69 c 0
 754 69 763 60 768 44 c 1
 768 46 l 1
 778 16 800 -1 832 -1 c 2
 1151 -1 l 2
 1192 -1 1209 13 1215 63 c 1
 1223 214 1228 369 1228 530 c 0
 1228 692 1223 859 1215 1035 c 1
 1209 1076 1192 1099 1151 1099 c 2
 796 1099 l 2
 755 1099 732 1076 732 1035 c 2
 732 254 l 2
 732 222 713 203 681 203 c 2
 641 203 l 2
 609 203 591 222 591 254 c 2
 591 1035 l 2
 591 1076 567 1099 526 1099 c 2
 172 1099 l 2
 131 1099 110 1076 107 1035 c 0
 99 918 96 786 96 662 c 0
 96 520 100 387 107 300 c 0
 124 88 207 -23 438 -24 c 0
 542 -24 661 8 719 58 c 0
667 1100 m 0
1200 8 m 0
EndSplineSet
EndChar

StartChar: underscore
Encoding: 95 95 413
Width: 1042
VWidth: 0
Flags: HW
LayerCount: 2
Fore
SplineSet
130 1 m 2
 90 1 66 -23 66 -63 c 2
 66 -304 l 2
 66 -344 90 -368 130 -368 c 2
 754 -368 l 2
 794 -368 818 -344 818 -304 c 2
 818 -63 l 2
 818 -23 794 1 754 1 c 2
 130 1 l 2
EndSplineSet
EndChar

StartChar: uni00AD
Encoding: 173 173 416
Width: 1005
VWidth: 0
Flags: HW
LayerCount: 2
Fore
SplineSet
138 759 m 2
 98 759 74 735 74 695 c 2
 74 539 l 2
 74 499 98 475 138 475 c 2
 714 475 l 2
 754 475 778 499 778 539 c 2
 778 695 l 2
 778 735 754 759 714 759 c 2
 138 759 l 2
EndSplineSet
EndChar

StartChar: uni00B2
Encoding: 178 178 417
Width: 1090
VWidth: 0
Flags: HW
LayerCount: 2
Fore
SplineSet
404 707 m 2
 444 707 468 731 468 771 c 2
 468 830 l 2
 468 856 483 871 509 871 c 2
 511 871 l 2
 537 871 552 856 552 830 c 2
 552 742 l 2
 552 696 489 671 437 650 c 0
 273 584 160 487 160 265 c 2
 160 178 l 2
 160 138 184 113 224 113 c 2
 770 113 l 2
 810 113 834 138 834 178 c 2
 834 217 l 2
 834 257 810 281 770 281 c 2
 508 281 l 2
 486 281 471 312 484 329 c 0
 508 361 554 383 595 401 c 0
 735 464 868 536 868 741 c 0
 868 966 738 1023 516 1023 c 0
 310 1023 159 971 159 743 c 0
 159 737 160 730 160 724 c 0
 160 713 166 707 177 707 c 2
 404 707 l 2
EndSplineSet
EndChar

StartChar: uni00B3
Encoding: 179 179 418
Width: 1101
VWidth: 0
Flags: HW
LayerCount: 2
Fore
SplineSet
513 1019 m 0
 276 1019 152 949 152 727 c 0
 152 719 153 711 153 703 c 0
 154 689 163 680 177 680 c 2
 400 680 l 2
 440 680 464 704 464 744 c 2
 464 822 l 2
 464 851 482 869 511 869 c 2
 513 869 l 2
 542 869 560 851 560 822 c 2
 560 679 l 2
 560 647 542 629 510 629 c 2
 477 629 l 2
 438 629 415 606 415 567 c 2
 415 565 l 2
 415 526 438 503 477 503 c 2
 510 503 l 2
 542 503 560 485 560 453 c 2
 560 286 l 2
 560 257 542 239 513 239 c 2
 511 239 l 2
 482 239 464 257 464 286 c 2
 464 386 l 2
 464 426 440 450 400 450 c 2
 179 450 l 2
 164 450 154 440 153 425 c 0
 153 416 152 407 152 398 c 0
 152 186 264 85 514 85 c 0
 764 85 878 163 878 371 c 0
 878 443 854 505 804 542 c 0
 781 559 781 574 804 591 c 0
 849 624 876 675 876 745 c 0
 876 954 741 1019 513 1019 c 0
EndSplineSet
EndChar

StartChar: uni00B9
Encoding: 185 185 419
Width: 731
VWidth: 0
Flags: HW
LayerCount: 2
Fore
SplineSet
97 882 m 2
 97 844 119 821 157 821 c 2
 169 821 l 2
 201 821 219 803 219 771 c 2
 219 174 l 2
 219 134 243 110 283 110 c 2
 489 110 l 2
 529 110 553 134 553 174 c 2
 553 926 l 2
 553 966 529 990 489 990 c 2
 396 990 l 2
 328 990 296 984 231 963 c 0
 208 956 183 950 157 947 c 0
 115 942 97 921 97 882 c 2
 97 882 l 2
EndSplineSet
EndChar

StartChar: uni01C4
Encoding: 452 452 420
Width: 2693
VWidth: 0
Flags: HW
LayerCount: 2
Fore
SplineSet
727 1349 m 2
 151 1349 l 2
 111 1349 87 1325 87 1285 c 2
 87 64 l 2
 87 24 111 0 151 0 c 2
 727 0 l 2
 990 0 1256 22 1256 332 c 2
 1256 1019 l 2
 1256 1319 994 1349 727 1349 c 2
599 1098 m 2
 599 1130 617 1149 649 1149 c 2
 695 1149 l 2
 727 1149 745 1130 745 1098 c 2
 745 249 l 2
 745 217 727 199 695 199 c 2
 649 199 l 2
 617 199 599 217 599 249 c 2
 599 1098 l 2
1437 1349 m 2
 1397 1349 1373 1325 1373 1285 c 2
 1373 1167 l 2
 1373 1127 1397 1103 1437 1103 c 2
 1637 1103 l 2
 1666 1103 1682 1083 1674 1055 c 2
 1381 62 l 2
 1370 26 1390 0 1427 0 c 2
 2167 0 l 2
 2207 0 2231 24 2231 64 c 2
 2231 185 l 2
 2231 225 2207 249 2167 249 c 2
 1996 249 l 2
 1966 249 1951 268 1959 297 c 2
 2223 1287 l 2
 2233 1323 2213 1349 2175 1349 c 2
 1437 1349 l 2
1802 1466 m 0
 1847 1466 1893 1484 1921 1527 c 2
 2144 1873 l 2
 2154 1889 2159 1904 2159 1918 c 0
 2159 1949 2136 1971 2106 1971 c 0
 2091 1971 2073 1966 2057 1953 c 2
 1841 1785 l 2
 1815 1765 1787 1765 1761 1785 c 2
 1545 1953 l 2
 1530 1965 1513 1969 1499 1969 c 0
 1469 1969 1443 1948 1443 1917 c 0
 1443 1904 1449 1889 1459 1873 c 2
 1681 1527 l 2
 1707 1486 1755 1466 1802 1466 c 0
EndSplineSet
EndChar

StartChar: uni021A
Encoding: 538 538 458
Width: 1324
VWidth: 0
Flags: HW
LayerCount: 2
Fore
SplineSet
71 1349 m 2
 31 1349 7 1325 7 1285 c 2
 7 1186 l 2
 7 1146 31 1122 71 1122 c 2
 255 1122 l 2
 287 1122 305 1103 305 1071 c 2
 305 64 l 2
 305 24 330 0 370 0 c 2
 508 0 l 1
 495 -11 487 -29 487 -51 c 2
 487 -75 l 2
 487 -115 511 -139 551 -139 c 2
 598 -139 l 2
 630 -139 648 -157 648 -189 c 2
 648 -275 l 2
 648 -291 638 -300 622 -300 c 2
 621 -300 l 2
 605 -300 595 -291 595 -275 c 2
 595 -244 l 2
 595 -211 573 -191 540 -195 c 2
 425 -210 l 2
 410 -212 403 -220 403 -235 c 2
 403 -260 l 2
 403 -373 492 -393 618 -393 c 0
 736 -393 832 -376 832 -260 c 2
 832 -179 l 2
 832 -81 768 -50 666 -46 c 0
 647 -45 637 -35 637 -16 c 2
 637 -15 l 2
 637 -9 636 -4 634 0 c 1
 752 0 l 2
 792 0 816 24 816 64 c 2
 816 1071 l 2
 816 1103 835 1122 867 1122 c 2
 1053 1122 l 2
 1093 1122 1118 1146 1118 1186 c 2
 1118 1285 l 2
 1118 1325 1093 1349 1053 1349 c 2
 71 1349 l 2
EndSplineSet
EndChar

StartChar: uni021B
Encoding: 539 539 459
Width: 968
VWidth: 0
Flags: HW
LayerCount: 2
Fore
SplineSet
646 880 m 2
 646 912 665 931 697 931 c 2
 717 931 l 2
 757 931 781 955 781 995 c 2
 781 1036 l 2
 781 1076 757 1100 717 1100 c 2
 697 1100 l 2
 665 1100 646 1118 646 1150 c 2
 646 1285 l 2
 646 1325 622 1349 582 1349 c 2
 227 1349 l 2
 187 1349 163 1325 163 1285 c 2
 163 1150 l 2
 163 1118 145 1100 113 1100 c 2
 104 1100 l 2
 68 1100 47 1079 47 1043 c 2
 47 988 l 2
 47 952 68 931 104 931 c 2
 113 931 l 2
 145 931 163 912 163 880 c 2
 163 64 l 2
 163 24 187 0 227 0 c 2
 360 0 l 1
 347 -11 339 -29 339 -51 c 2
 339 -75 l 2
 339 -115 363 -139 403 -139 c 2
 450 -139 l 2
 482 -139 500 -157 500 -189 c 2
 500 -275 l 2
 500 -291 490 -300 474 -300 c 2
 472 -300 l 2
 456 -300 447 -291 447 -275 c 2
 447 -244 l 2
 447 -211 425 -191 392 -195 c 2
 277 -210 l 2
 262 -212 255 -220 255 -235 c 2
 255 -260 l 2
 255 -373 344 -393 470 -393 c 0
 588 -393 684 -376 684 -260 c 2
 684 -179 l 2
 684 -81 620 -50 518 -46 c 0
 499 -45 489 -35 489 -16 c 2
 489 -15 l 2
 489 -9 488 -4 486 0 c 1
 582 0 l 2
 622 0 646 24 646 64 c 2
 646 880 l 2
EndSplineSet
EndChar

StartChar: uni0237
Encoding: 567 567 460
Width: 868
VWidth: 0
Flags: HW
LayerCount: 2
Fore
SplineSet
663 1036 m 2
 663 1076 639 1100 599 1100 c 2
 244 1100 l 2
 204 1100 179 1076 179 1036 c 2
 179 -5 l 2
 179 -37 161 -56 129 -56 c 2
 84 -56 l 2
 45 -56 22 -81 27 -120 c 2
 37 -197 l 2
 42 -236 69 -263 108 -268 c 0
 157 -274 209 -276 273 -276 c 0
 524 -276 663 -168 663 80 c 2
 663 1036 l 2
367 1100 m 0
EndSplineSet
EndChar

StartChar: uni030F
Encoding: 783 783 461
Width: 226
VWidth: 0
Flags: HW
LayerCount: 2
Fore
SplineSet
0 1100 m 0
EndSplineSet
EndChar

StartChar: uni0326
Encoding: 806 806 463
Width: 226
VWidth: 0
Flags: HW
LayerCount: 2
Fore
SplineSet
0 0 m 0
EndSplineSet
EndChar

StartChar: uni0326.001
Encoding: 65539 -1 464
Width: 706
VWidth: 0
Flags: HW
LayerCount: 2
Fore
SplineSet
235 -414 m 0
 266 -427 274 -474 249 -496 c 0
 235 -509 217 -517 197 -523 c 0
 163 -533 152 -547 152 -581 c 2
 152 -605 l 2
 152 -616 159 -623 170 -624 c 0
 177 -624 184 -624 190 -624 c 0
 377 -624 483 -439 483 -283 c 0
 483 -174 427 -80 305 -80 c 0
 219 -80 133 -137 133 -250 c 0
 133 -336 177 -390 235 -414 c 0
308 0 m 0
EndSplineSet
EndChar

StartChar: uni2074
Encoding: 8308 8308 471
Width: 1298
VWidth: 0
Flags: HW
LayerCount: 2
Fore
SplineSet
927 579 m 2
 927 619 903 643 863 643 c 2
 688 643 l 2
 648 643 624 619 624 579 c 2
 624 503 l 2
 624 471 605 453 573 453 c 2
 528 453 l 2
 519 453 514 458 514 467 c 2
 514 469 l 2
 514 478 515 489 517 497 c 2
 639 930 l 2
 649 966 630 992 592 992 c 2
 395 992 l 2
 353 992 324 970 313 930 c 2
 204 545 l 2
 194 508 187 457 187 419 c 2
 187 310 l 2
 187 270 211 246 251 246 c 2
 573 246 l 2
 605 246 624 228 624 196 c 2
 624 174 l 2
 624 134 648 110 688 110 c 2
 863 110 l 2
 903 110 927 134 927 174 c 2
 927 579 l 2
EndSplineSet
EndChar

StartChar: v
Encoding: 118 118 480
Width: 1348
VWidth: 0
Flags: HW
LayerCount: 2
Fore
SplineSet
469 1036 m 2
 463 1077 446 1100 405 1100 c 2
 68 1100 l 2
 35 1100 15 1081 15 1052 c 0
 15 1047 15 1042 17 1037 c 2
 222 63 l 2
 230 22 259 0 300 0 c 2
 843 0 l 2
 884 0 913 22 921 63 c 2
 1126 1037 l 2
 1128 1042 1128 1047 1128 1052 c 0
 1128 1081 1108 1100 1075 1100 c 2
 738 1100 l 2
 697 1100 681 1077 675 1036 c 2
 616 606 l 1
 580 299 l 2
 580 294 576 291 573 291 c 0
 570 291 566 294 565 299 c 2
 529 606 l 1
 469 1036 l 2
EndSplineSet
EndChar

StartChar: w
Encoding: 119 119 481
Width: 2066
VWidth: 0
Flags: HW
LayerCount: 2
Fore
SplineSet
865 666 m 2
 866 670 867 672 870 672 c 0
 873 672 875 670 875 666 c 2
 901 402 l 1
 939 63 l 2
 944 22 970 0 1011 0 c 2
 1470 0 l 2
 1511 0 1537 22 1545 63 c 2
 1707 1036 l 2
 1709 1042 1709 1048 1709 1054 c 0
 1709 1082 1695 1100 1662 1100 c 2
 1318 1100 l 2
 1277 1100 1268 1077 1265 1036 c 2
 1226 644 l 1
 1193 377 l 2
 1193 372 1189 369 1186 369 c 0
 1183 369 1180 372 1179 377 c 2
 1150 644 l 1
 1112 1036 l 2
 1109 1077 1100 1100 1059 1100 c 2
 693 1100 l 2
 652 1100 643 1077 640 1036 c 2
 602 644 l 1
 569 377 l 2
 569 372 566 369 563 369 c 0
 560 369 556 372 555 377 c 2
 522 644 l 1
 482 1036 l 2
 478 1077 469 1100 428 1100 c 2
 83 1100 l 2
 50 1100 36 1082 36 1054 c 0
 36 1048 36 1042 38 1036 c 2
 201 63 l 2
 209 22 235 0 276 0 c 2
 731 0 l 2
 772 0 798 22 803 63 c 2
 839 402 l 1
 865 666 l 2
874 1100 m 0
EndSplineSet
EndChar

StartChar: x
Encoding: 120 120 486
Width: 1395
VWidth: 0
Flags: HW
LayerCount: 2
Fore
SplineSet
454 0 m 2
 496 0 525 21 539 61 c 2
 578 171 l 2
 585 192 605 192 612 171 c 2
 650 61 l 2
 664 21 694 0 736 0 c 2
 1087 0 l 2
 1121 0 1137 26 1120 56 c 2
 861 508 l 2
 844 537 844 566 861 595 c 2
 1119 1044 l 2
 1136 1074 1121 1100 1087 1100 c 2
 733 1100 l 2
 691 1100 661 1079 647 1039 c 2
 611 935 l 2
 604 914 585 914 578 935 c 2
 543 1039 l 2
 529 1079 500 1100 458 1100 c 2
 102 1100 l 2
 68 1100 53 1074 70 1044 c 2
 328 595 l 2
 345 566 346 537 329 508 c 2
 70 56 l 2
 53 26 68 0 102 0 c 2
 454 0 l 2
EndSplineSet
EndChar

StartChar: y
Encoding: 121 121 487
Width: 1342
VWidth: 0
Flags: HW
LayerCount: 2
Fore
SplineSet
475 1036 m 1
 470 1077 445 1100 404 1100 c 2
 81 1100 l 2
 42 1100 22 1074 29 1036 c 2
 187 226 l 1
 211 98 246 92 329 84 c 1
 596 63 l 1
 596 25 l 2
 596 -4 577 -28 548 -35 c 1
 514 -42 478 -45 442 -45 c 0
 382 -45 311 -36 253 -25 c 1
 213 -17 196 -35 190 -76 c 2
 172 -206 l 2
 166 -246 178 -274 217 -281 c 0
 314 -300 441 -314 523 -314 c 0
 738 -314 897 -253 942 12 c 2
 1117 1036 l 2
 1124 1074 1102 1100 1063 1100 c 2
 725 1100 l 2
 684 1100 658 1077 655 1036 c 1
 616 743 l 1
 584 382 l 2
 582 364 575 364 574 382 c 1
 524 743 l 1
 475 1036 l 1
568 1100 m 0
EndSplineSet
EndChar

StartChar: y.alt
Encoding: 65543 -1 488
Width: 1342
VWidth: 0
Flags: HW
LayerCount: 2
Fore
SplineSet
482 1036 m 2
 478 1077 453 1100 412 1100 c 2
 73 1100 l 2
 36 1100 16 1074 27 1038 c 2
 313 76 l 2
 324 40 331 11 331 -12 c 0
 331 -58 306 -80 244 -80 c 0
 225 -80 203 -78 177 -74 c 0
 139 -68 117 -89 122 -127 c 2
 138 -258 l 2
 143 -298 169 -324 209 -329 c 0
 258 -335 302 -338 344 -338 c 0
 595 -338 726 -230 789 -22 c 2
 1109 1038 l 2
 1120 1074 1101 1100 1064 1100 c 2
 725 1100 l 2
 684 1100 658 1077 654 1036 c 2
 602 519 l 1
 588 246 l 2
 587 233 580 226 567 226 c 2
 566 226 l 2
 553 226 546 233 545 246 c 2
 531 519 l 1
 482 1036 l 2
568 1100 m 0
EndSplineSet
EndChar

StartChar: yen
Encoding: 165 165 492
Width: 1571
VWidth: 0
Flags: HW
LayerCount: 2
Fore
SplineSet
517 1287 m 2
 506 1328 479 1349 437 1349 c 2
 91 1349 l 2
 55 1349 37 1324 50 1290 c 2
 314 616 l 1
 167 616 l 2
 130 616 107 593 107 556 c 2
 107 555 l 2
 107 518 130 495 167 495 c 2
 362 495 l 1
 385 435 l 2
 392 417 398 395 401 374 c 1
 167 374 l 2
 130 374 107 351 107 314 c 2
 107 313 l 2
 107 276 130 253 167 253 c 2
 404 253 l 1
 404 64 l 2
 404 24 428 0 468 0 c 2
 851 0 l 2
 891 0 915 24 915 64 c 2
 915 253 l 1
 1146 253 l 2
 1183 253 1206 276 1206 313 c 2
 1206 314 l 2
 1206 351 1183 374 1146 374 c 2
 919 374 l 1
 922 393 928 411 934 427 c 2
 960 495 l 1
 1146 495 l 2
 1183 495 1206 518 1206 555 c 2
 1206 556 l 2
 1206 593 1183 616 1146 616 c 2
 1006 616 l 1
 1266 1289 l 2
 1279 1323 1261 1349 1225 1349 c 2
 883 1349 l 2
 841 1349 813 1328 802 1288 c 2
 702 926 l 2
 692 891 682 836 679 800 c 2
 671 701 l 2
 670 694 666 689 659 689 c 2
 657 689 l 2
 650 689 646 694 645 701 c 2
 636 800 l 2
 633 836 623 891 614 926 c 2
 517 1287 l 2
EndSplineSet
EndChar

StartChar: z
Encoding: 122 122 494
Width: 1169
VWidth: 0
Flags: HW
LayerCount: 2
Fore
SplineSet
110 953 m 2
 110 913 134 889 174 889 c 2
 344 889 l 2
 372 889 385 869 374 843 c 2
 116 256 l 2
 100 219 90 173 90 133 c 2
 90 64 l 2
 90 24 114 0 154 0 c 2
 857 0 l 2
 897 0 921 24 921 64 c 2
 921 144 l 2
 921 184 897 208 857 208 c 2
 665 208 l 2
 637 208 623 228 634 254 c 2
 890 854 l 2
 906 891 915 937 915 977 c 2
 915 1036 l 2
 915 1076 891 1100 851 1100 c 2
 174 1100 l 2
 134 1100 110 1076 110 1036 c 2
 110 953 l 2
495 1100 m 0
EndSplineSet
EndChar

StartChar: zero
Encoding: 48 48 498
Width: 1469
VWidth: 0
Flags: HW
LayerCount: 2
Fore
SplineSet
1170 298 m 2
 1170 1051 l 2
 1170 1356 893 1382 624 1382 c 0
 363 1382 75 1362 75 1051 c 2
 75 298 l 2
 75 -12 357 -33 625 -33 c 0
 889 -33 1170 -21 1170 298 c 2
552 1099 m 2
 552 1131 571 1150 603 1150 c 2
 642 1150 l 2
 674 1150 693 1131 693 1099 c 2
 693 248 l 2
 693 216 674 197 642 197 c 2
 603 197 l 2
 571 197 552 216 552 248 c 2
 552 1099 l 2
EndSplineSet
EndChar
